<?xml version="1.0" encoding="utf-8" standalone="no"?>
<!DOCTYPE svg PUBLIC "-//W3C//DTD SVG 1.1//EN"
  "http://www.w3.org/Graphics/SVG/1.1/DTD/svg11.dtd">
<svg xmlns:xlink="http://www.w3.org/1999/xlink" width="349.054249pt" height="196.544909pt" viewBox="0 0 349.054249 196.544909" xmlns="http://www.w3.org/2000/svg" version="1.1">
 <metadata>
  <rdf:RDF xmlns:dc="http://purl.org/dc/elements/1.1/" xmlns:cc="http://creativecommons.org/ns#" xmlns:rdf="http://www.w3.org/1999/02/22-rdf-syntax-ns#">
   <cc:Work>
    <dc:type rdf:resource="http://purl.org/dc/dcmitype/StillImage"/>
    <dc:date>2026-07-13T01:23:43.645857</dc:date>
    <dc:format>image/svg+xml</dc:format>
    <dc:creator>
     <cc:Agent>
      <dc:title>Matplotlib v3.11.0, https://matplotlib.org/</dc:title>
     </cc:Agent>
    </dc:creator>
   </cc:Work>
  </rdf:RDF>
 </metadata>
 <defs>
  <style type="text/css">*{stroke-linejoin: round; stroke-linecap: butt}</style>
 </defs>
 <g id="figure_1">
  <g id="patch_1">
   <path d="M 0 196.544909 
L 349.054249 196.544909 
L 349.054249 0 
L 0 0 
L 0 196.544909 
z
" style="fill: none"/>
  </g>
  <g id="axes_1">
   <g id="patch_2">
    <path d="M 52.720391 146.690299 
L 341.854249 146.690299 
L 341.854249 24.233607 
L 52.720391 24.233607 
L 52.720391 146.690299 
z
" style="fill: none"/>
   </g>
   <g id="matplotlib.axis_1">
    <g id="xtick_1">
     <g id="line2d_1">
      <defs>
       <path id="mebb47320b7" d="M 0 0 
L 0 3 
" style="stroke: #000000; stroke-width: 0.65"/>
      </defs>
      <g>
       <use xlink:href="#mebb47320b7" x="65.862839" y="146.690299" style="stroke: #000000; stroke-width: 0.65"/>
      </g>
     </g>
     <g id="text_1">
      <!-- 0 -->
      <g transform="translate(63.737839 157.083854) scale(0.085 -0.085)">
       <defs>
        <path id="TimesNewRomanPSMT-13" d="M 231 2094 
Q 231 2819 450 3342 
Q 669 3866 1031 4122 
Q 1313 4325 1613 4325 
Q 2100 4325 2488 3828 
Q 2972 3213 2972 2159 
Q 2972 1422 2759 906 
Q 2547 391 2217 158 
Q 1888 -75 1581 -75 
Q 975 -75 572 641 
Q 231 1244 231 2094 
z
M 844 2016 
Q 844 1141 1059 588 
Q 1238 122 1591 122 
Q 1759 122 1940 273 
Q 2122 425 2216 781 
Q 2359 1319 2359 2297 
Q 2359 3022 2209 3506 
Q 2097 3866 1919 4016 
Q 1791 4119 1609 4119 
Q 1397 4119 1231 3928 
Q 1006 3669 925 3112 
Q 844 2556 844 2016 
z
" transform="scale(0.015625)"/>
       </defs>
       <use xlink:href="#TimesNewRomanPSMT-13"/>
      </g>
     </g>
    </g>
    <g id="xtick_2">
     <g id="line2d_2">
      <g>
       <use xlink:href="#mebb47320b7" x="98.718959" y="146.690299" style="stroke: #000000; stroke-width: 0.65"/>
      </g>
     </g>
     <g id="text_2">
      <!-- 5 -->
      <g transform="translate(96.593959 157.083854) scale(0.085 -0.085)">
       <defs>
        <path id="TimesNewRomanPSMT-18" d="M 2778 4238 
L 2534 3706 
L 1259 3706 
L 981 3138 
Q 1809 3016 2294 2522 
Q 2709 2097 2709 1522 
Q 2709 1188 2573 903 
Q 2438 619 2231 419 
Q 2025 219 1772 97 
Q 1413 -75 1034 -75 
Q 653 -75 479 54 
Q 306 184 306 341 
Q 306 428 378 495 
Q 450 563 559 563 
Q 641 563 702 538 
Q 763 513 909 409 
Q 1144 247 1384 247 
Q 1750 247 2026 523 
Q 2303 800 2303 1197 
Q 2303 1581 2056 1914 
Q 1809 2247 1375 2428 
Q 1034 2569 447 2591 
L 1259 4238 
L 2778 4238 
z
" transform="scale(0.015625)"/>
       </defs>
       <use xlink:href="#TimesNewRomanPSMT-18"/>
      </g>
     </g>
    </g>
    <g id="xtick_3">
     <g id="line2d_3">
      <g>
       <use xlink:href="#mebb47320b7" x="131.575079" y="146.690299" style="stroke: #000000; stroke-width: 0.65"/>
      </g>
     </g>
     <g id="text_3">
      <!-- 10 -->
      <g transform="translate(127.325079 157.083854) scale(0.085 -0.085)">
       <defs>
        <path id="TimesNewRomanPSMT-14" d="M 750 3822 
L 1781 4325 
L 1884 4325 
L 1884 747 
Q 1884 391 1914 303 
Q 1944 216 2037 169 
Q 2131 122 2419 116 
L 2419 0 
L 825 0 
L 825 116 
Q 1125 122 1212 167 
Q 1300 213 1334 289 
Q 1369 366 1369 747 
L 1369 3034 
Q 1369 3497 1338 3628 
Q 1316 3728 1258 3775 
Q 1200 3822 1119 3822 
Q 1003 3822 797 3725 
L 750 3822 
z
" transform="scale(0.015625)"/>
       </defs>
       <use xlink:href="#TimesNewRomanPSMT-14"/>
       <use xlink:href="#TimesNewRomanPSMT-13" transform="translate(50 0)"/>
      </g>
     </g>
    </g>
    <g id="xtick_4">
     <g id="line2d_4">
      <g>
       <use xlink:href="#mebb47320b7" x="164.4312" y="146.690299" style="stroke: #000000; stroke-width: 0.65"/>
      </g>
     </g>
     <g id="text_4">
      <!-- 15 -->
      <g transform="translate(160.1812 157.083854) scale(0.085 -0.085)">
       <use xlink:href="#TimesNewRomanPSMT-14"/>
       <use xlink:href="#TimesNewRomanPSMT-18" transform="translate(50 0)"/>
      </g>
     </g>
    </g>
    <g id="xtick_5">
     <g id="line2d_5">
      <g>
       <use xlink:href="#mebb47320b7" x="197.28732" y="146.690299" style="stroke: #000000; stroke-width: 0.65"/>
      </g>
     </g>
     <g id="text_5">
      <!-- 20 -->
      <g transform="translate(193.03732 157.083854) scale(0.085 -0.085)">
       <defs>
        <path id="TimesNewRomanPSMT-15" d="M 2934 816 
L 2638 0 
L 138 0 
L 138 116 
Q 1241 1122 1691 1759 
Q 2141 2397 2141 2925 
Q 2141 3328 1894 3587 
Q 1647 3847 1303 3847 
Q 991 3847 742 3664 
Q 494 3481 375 3128 
L 259 3128 
Q 338 3706 661 4015 
Q 984 4325 1469 4325 
Q 1984 4325 2329 3994 
Q 2675 3663 2675 3213 
Q 2675 2891 2525 2569 
Q 2294 2063 1775 1497 
Q 997 647 803 472 
L 1909 472 
Q 2247 472 2383 497 
Q 2519 522 2628 598 
Q 2738 675 2819 816 
L 2934 816 
z
" transform="scale(0.015625)"/>
       </defs>
       <use xlink:href="#TimesNewRomanPSMT-15"/>
       <use xlink:href="#TimesNewRomanPSMT-13" transform="translate(50 0)"/>
      </g>
     </g>
    </g>
    <g id="xtick_6">
     <g id="line2d_6">
      <g>
       <use xlink:href="#mebb47320b7" x="230.14344" y="146.690299" style="stroke: #000000; stroke-width: 0.65"/>
      </g>
     </g>
     <g id="text_6">
      <!-- 25 -->
      <g transform="translate(225.89344 157.083854) scale(0.085 -0.085)">
       <use xlink:href="#TimesNewRomanPSMT-15"/>
       <use xlink:href="#TimesNewRomanPSMT-18" transform="translate(50 0)"/>
      </g>
     </g>
    </g>
    <g id="xtick_7">
     <g id="line2d_7">
      <g>
       <use xlink:href="#mebb47320b7" x="262.99956" y="146.690299" style="stroke: #000000; stroke-width: 0.65"/>
      </g>
     </g>
     <g id="text_7">
      <!-- 30 -->
      <g transform="translate(258.74956 157.083854) scale(0.085 -0.085)">
       <defs>
        <path id="TimesNewRomanPSMT-16" d="M 325 3431 
Q 506 3859 782 4092 
Q 1059 4325 1472 4325 
Q 1981 4325 2253 3994 
Q 2459 3747 2459 3466 
Q 2459 3003 1878 2509 
Q 2269 2356 2469 2072 
Q 2669 1788 2669 1403 
Q 2669 853 2319 450 
Q 1863 -75 997 -75 
Q 569 -75 414 31 
Q 259 138 259 259 
Q 259 350 332 419 
Q 406 488 509 488 
Q 588 488 669 463 
Q 722 447 909 348 
Q 1097 250 1169 231 
Q 1284 197 1416 197 
Q 1734 197 1970 444 
Q 2206 691 2206 1028 
Q 2206 1275 2097 1509 
Q 2016 1684 1919 1775 
Q 1784 1900 1550 2001 
Q 1316 2103 1072 2103 
L 972 2103 
L 972 2197 
Q 1219 2228 1467 2375 
Q 1716 2522 1828 2728 
Q 1941 2934 1941 3181 
Q 1941 3503 1739 3701 
Q 1538 3900 1238 3900 
Q 753 3900 428 3381 
L 325 3431 
z
" transform="scale(0.015625)"/>
       </defs>
       <use xlink:href="#TimesNewRomanPSMT-16"/>
       <use xlink:href="#TimesNewRomanPSMT-13" transform="translate(50 0)"/>
      </g>
     </g>
    </g>
    <g id="xtick_8">
     <g id="line2d_8">
      <g>
       <use xlink:href="#mebb47320b7" x="295.855681" y="146.690299" style="stroke: #000000; stroke-width: 0.65"/>
      </g>
     </g>
     <g id="text_8">
      <!-- 35 -->
      <g transform="translate(291.605681 157.083854) scale(0.085 -0.085)">
       <use xlink:href="#TimesNewRomanPSMT-16"/>
       <use xlink:href="#TimesNewRomanPSMT-18" transform="translate(50 0)"/>
      </g>
     </g>
    </g>
    <g id="xtick_9">
     <g id="line2d_9">
      <g>
       <use xlink:href="#mebb47320b7" x="328.711801" y="146.690299" style="stroke: #000000; stroke-width: 0.65"/>
      </g>
     </g>
     <g id="text_9">
      <!-- 40 -->
      <g transform="translate(324.461801 157.083854) scale(0.085 -0.085)">
       <defs>
        <path id="TimesNewRomanPSMT-17" d="M 2978 1563 
L 2978 1119 
L 2409 1119 
L 2409 0 
L 1894 0 
L 1894 1119 
L 100 1119 
L 100 1519 
L 2066 4325 
L 2409 4325 
L 2409 1563 
L 2978 1563 
z
M 1894 1563 
L 1894 3666 
L 406 1563 
L 1894 1563 
z
" transform="scale(0.015625)"/>
       </defs>
       <use xlink:href="#TimesNewRomanPSMT-17"/>
       <use xlink:href="#TimesNewRomanPSMT-13" transform="translate(50 0)"/>
      </g>
     </g>
    </g>
   </g>
   <g id="matplotlib.axis_2">
    <g id="ytick_1">
     <g id="line2d_10">
      <defs>
       <path id="m7a830e1a64" d="M 0 0 
L -3 0 
" style="stroke: #000000; stroke-width: 0.65"/>
      </defs>
      <g>
       <use xlink:href="#m7a830e1a64" x="52.720391" y="135.674022" style="stroke: #000000; stroke-width: 0.65"/>
      </g>
     </g>
     <g id="text_10">
      <!-- 0.2 -->
      <g transform="translate(37.595391 138.620799) scale(0.085 -0.085)">
       <defs>
        <path id="TimesNewRomanPSMT-11" d="M 800 606 
Q 947 606 1047 504 
Q 1147 403 1147 259 
Q 1147 116 1045 14 
Q 944 -88 800 -88 
Q 656 -88 554 14 
Q 453 116 453 259 
Q 453 406 554 506 
Q 656 606 800 606 
z
" transform="scale(0.015625)"/>
       </defs>
       <use xlink:href="#TimesNewRomanPSMT-13"/>
       <use xlink:href="#TimesNewRomanPSMT-11" transform="translate(50 0)"/>
       <use xlink:href="#TimesNewRomanPSMT-15" transform="translate(75 0)"/>
      </g>
     </g>
    </g>
    <g id="ytick_2">
     <g id="line2d_11">
      <g>
       <use xlink:href="#m7a830e1a64" x="52.720391" y="105.892249" style="stroke: #000000; stroke-width: 0.65"/>
      </g>
     </g>
     <g id="text_11">
      <!-- 0.4 -->
      <g transform="translate(37.595391 108.839026) scale(0.085 -0.085)">
       <use xlink:href="#TimesNewRomanPSMT-13"/>
       <use xlink:href="#TimesNewRomanPSMT-11" transform="translate(50 0)"/>
       <use xlink:href="#TimesNewRomanPSMT-17" transform="translate(75 0)"/>
      </g>
     </g>
    </g>
    <g id="ytick_3">
     <g id="line2d_12">
      <g>
       <use xlink:href="#m7a830e1a64" x="52.720391" y="76.110476" style="stroke: #000000; stroke-width: 0.65"/>
      </g>
     </g>
     <g id="text_12">
      <!-- 0.6 -->
      <g transform="translate(37.595391 79.057254) scale(0.085 -0.085)">
       <defs>
        <path id="TimesNewRomanPSMT-19" d="M 2869 4325 
L 2869 4209 
Q 2456 4169 2195 4045 
Q 1934 3922 1679 3669 
Q 1425 3416 1258 3105 
Q 1091 2794 978 2366 
Q 1428 2675 1881 2675 
Q 2316 2675 2634 2325 
Q 2953 1975 2953 1425 
Q 2953 894 2631 456 
Q 2244 -75 1606 -75 
Q 1172 -75 869 213 
Q 275 772 275 1663 
Q 275 2231 503 2743 
Q 731 3256 1154 3653 
Q 1578 4050 1965 4187 
Q 2353 4325 2688 4325 
L 2869 4325 
z
M 925 2138 
Q 869 1716 869 1456 
Q 869 1156 980 804 
Q 1091 453 1309 247 
Q 1469 100 1697 100 
Q 1969 100 2183 356 
Q 2397 613 2397 1088 
Q 2397 1622 2184 2012 
Q 1972 2403 1581 2403 
Q 1463 2403 1327 2353 
Q 1191 2303 925 2138 
z
" transform="scale(0.015625)"/>
       </defs>
       <use xlink:href="#TimesNewRomanPSMT-13"/>
       <use xlink:href="#TimesNewRomanPSMT-11" transform="translate(50 0)"/>
       <use xlink:href="#TimesNewRomanPSMT-19" transform="translate(75 0)"/>
      </g>
     </g>
    </g>
    <g id="ytick_4">
     <g id="line2d_13">
      <g>
       <use xlink:href="#m7a830e1a64" x="52.720391" y="46.328704" style="stroke: #000000; stroke-width: 0.65"/>
      </g>
     </g>
     <g id="text_13">
      <!-- 0.8 -->
      <g transform="translate(37.595391 49.275481) scale(0.085 -0.085)">
       <defs>
        <path id="TimesNewRomanPSMT-1b" d="M 1228 2134 
Q 725 2547 579 2797 
Q 434 3047 434 3316 
Q 434 3728 753 4026 
Q 1072 4325 1600 4325 
Q 2113 4325 2425 4047 
Q 2738 3769 2738 3413 
Q 2738 3175 2569 2928 
Q 2400 2681 1866 2347 
Q 2416 1922 2594 1678 
Q 2831 1359 2831 1006 
Q 2831 559 2490 242 
Q 2150 -75 1597 -75 
Q 994 -75 656 303 
Q 388 606 388 966 
Q 388 1247 577 1523 
Q 766 1800 1228 2134 
z
M 1719 2469 
Q 2094 2806 2194 3001 
Q 2294 3197 2294 3444 
Q 2294 3772 2109 3958 
Q 1925 4144 1606 4144 
Q 1288 4144 1088 3959 
Q 888 3775 888 3528 
Q 888 3366 970 3203 
Q 1053 3041 1206 2894 
L 1719 2469 
z
M 1375 2016 
Q 1116 1797 991 1539 
Q 866 1281 866 981 
Q 866 578 1086 336 
Q 1306 94 1647 94 
Q 1984 94 2187 284 
Q 2391 475 2391 747 
Q 2391 972 2272 1150 
Q 2050 1481 1375 2016 
z
" transform="scale(0.015625)"/>
       </defs>
       <use xlink:href="#TimesNewRomanPSMT-13"/>
       <use xlink:href="#TimesNewRomanPSMT-11" transform="translate(50 0)"/>
       <use xlink:href="#TimesNewRomanPSMT-1b" transform="translate(75 0)"/>
      </g>
     </g>
    </g>
   </g>
   <g id="line2d_14">
    <path d="M 65.862839 141.124086 
L 72.434063 134.646551 
L 79.005287 122.182879 
L 98.718959 100.323058 
L 131.575079 77.942055 
L 197.28732 67.697126 
L 328.711801 45.137433 
" clip-path="url(#paed3a2e57f)" style="fill: none; stroke: #0072b2; stroke-width: 1.15; stroke-linecap: square"/>
    <defs>
     <path id="ma7b1c42cef" d="M 0 1.6 
C 0.424325 1.6 0.831328 1.431414 1.131371 1.131371 
C 1.431414 0.831328 1.6 0.424325 1.6 0 
C 1.6 -0.424325 1.431414 -0.831328 1.131371 -1.131371 
C 0.831328 -1.431414 0.424325 -1.6 0 -1.6 
C -0.424325 -1.6 -0.831328 -1.431414 -1.131371 -1.131371 
C -1.431414 -0.831328 -1.6 -0.424325 -1.6 0 
C -1.6 0.424325 -1.431414 0.831328 -1.131371 1.131371 
C -0.831328 1.431414 -0.424325 1.6 0 1.6 
z
" style="stroke: #0072b2"/>
    </defs>
    <g clip-path="url(#paed3a2e57f)">
     <use xlink:href="#ma7b1c42cef" x="65.862839" y="141.124086" style="fill: #0072b2; stroke: #0072b2"/>
     <use xlink:href="#ma7b1c42cef" x="72.434063" y="134.646551" style="fill: #0072b2; stroke: #0072b2"/>
     <use xlink:href="#ma7b1c42cef" x="79.005287" y="122.182879" style="fill: #0072b2; stroke: #0072b2"/>
     <use xlink:href="#ma7b1c42cef" x="98.718959" y="100.323058" style="fill: #0072b2; stroke: #0072b2"/>
     <use xlink:href="#ma7b1c42cef" x="131.575079" y="77.942055" style="fill: #0072b2; stroke: #0072b2"/>
     <use xlink:href="#ma7b1c42cef" x="197.28732" y="67.697126" style="fill: #0072b2; stroke: #0072b2"/>
     <use xlink:href="#ma7b1c42cef" x="328.711801" y="45.137433" style="fill: #0072b2; stroke: #0072b2"/>
    </g>
   </g>
   <g id="line2d_15">
    <path d="M 65.862839 134.557205 
L 72.434063 119.085574 
L 79.005287 103.494816 
L 98.718959 84.687627 
L 131.575079 65.165675 
L 197.28732 44.541797 
L 328.711801 29.79982 
" clip-path="url(#paed3a2e57f)" style="fill: none; stroke: #d55e00; stroke-width: 1.15; stroke-linecap: square"/>
    <defs>
     <path id="me3d803d143" d="M 0 1.6 
C 0.424325 1.6 0.831328 1.431414 1.131371 1.131371 
C 1.431414 0.831328 1.6 0.424325 1.6 0 
C 1.6 -0.424325 1.431414 -0.831328 1.131371 -1.131371 
C 0.831328 -1.431414 0.424325 -1.6 0 -1.6 
C -0.424325 -1.6 -0.831328 -1.431414 -1.131371 -1.131371 
C -1.431414 -0.831328 -1.6 -0.424325 -1.6 0 
C -1.6 0.424325 -1.431414 0.831328 -1.131371 1.131371 
C -0.831328 1.431414 -0.424325 1.6 0 1.6 
z
" style="stroke: #d55e00"/>
    </defs>
    <g clip-path="url(#paed3a2e57f)">
     <use xlink:href="#me3d803d143" x="65.862839" y="134.557205" style="fill: #d55e00; stroke: #d55e00"/>
     <use xlink:href="#me3d803d143" x="72.434063" y="119.085574" style="fill: #d55e00; stroke: #d55e00"/>
     <use xlink:href="#me3d803d143" x="79.005287" y="103.494816" style="fill: #d55e00; stroke: #d55e00"/>
     <use xlink:href="#me3d803d143" x="98.718959" y="84.687627" style="fill: #d55e00; stroke: #d55e00"/>
     <use xlink:href="#me3d803d143" x="131.575079" y="65.165675" style="fill: #d55e00; stroke: #d55e00"/>
     <use xlink:href="#me3d803d143" x="197.28732" y="44.541797" style="fill: #d55e00; stroke: #d55e00"/>
     <use xlink:href="#me3d803d143" x="328.711801" y="29.79982" style="fill: #d55e00; stroke: #d55e00"/>
    </g>
   </g>
   <g id="patch_3">
    <path d="M 52.720391 146.690299 
L 52.720391 24.233607 
" style="fill: none; stroke: #000000; stroke-width: 0.65; stroke-linejoin: miter; stroke-linecap: square"/>
   </g>
   <g id="patch_4">
    <path d="M 52.720391 146.690299 
L 341.854249 146.690299 
" style="fill: none; stroke: #000000; stroke-width: 0.65; stroke-linejoin: miter; stroke-linecap: square"/>
   </g>
   <g id="patch_5">
    <path d="M 183.70064 178.713268 
L 184.516109 178.713268 
Q 184.703374 178.016003 184.80564 177.090299 
Q 185.366109 177.175299 185.739312 177.256315 
Q 186.113843 177.336003 186.173609 177.374518 
Q 186.233374 177.413034 186.233374 177.463503 
Q 186.233374 177.557799 186.113843 177.604284 
Q 185.99564 177.650768 185.947828 177.745065 
Q 185.901343 177.838034 185.773843 178.220534 
Q 185.646343 178.603034 185.603843 178.713268 
L 186.692906 178.713268 
Q 186.913374 178.322799 186.963843 178.255065 
Q 187.01564 178.186003 187.074078 178.186003 
Q 187.133843 178.186003 187.354312 178.330768 
Q 187.576109 178.475534 187.831109 178.676081 
Q 188.086109 178.875299 188.175093 178.981549 
Q 188.265406 179.087799 188.265406 179.172799 
Q 188.265406 179.333503 188.001109 179.350768 
Q 187.533609 179.385299 187.321109 179.470299 
Q 187.108609 179.555299 186.828374 179.826237 
Q 187.253374 180.123737 187.495093 180.320299 
Q 187.73814 180.515534 187.73814 180.591237 
Q 187.73814 180.693503 187.529624 180.710768 
Q 187.321109 180.728034 187.125874 180.826315 
Q 186.93064 180.923268 186.182906 181.382799 
Q 186.471109 182.053503 186.989078 182.598034 
Q 187.508374 183.141237 188.366343 183.651237 
Q 188.468609 183.711003 188.468609 183.749518 
Q 188.468609 183.788034 188.350406 183.821237 
Q 188.001109 183.923503 187.792593 184.085534 
Q 187.585406 184.246237 187.388843 184.543737 
Q 187.321109 184.638034 187.269312 184.638034 
Q 187.218843 184.638034 187.133843 184.557018 
Q 187.048843 184.476003 186.747359 184.060299 
Q 186.445874 183.643268 186.216109 183.183737 
Q 185.18814 183.991237 184.201343 184.978034 
Q 184.158843 185.020534 184.120328 185.020534 
Q 184.08314 185.020534 184.04064 184.952799 
L 183.802906 184.416237 
Q 183.606343 183.948737 183.606343 183.877018 
Q 183.606343 183.805299 183.666109 183.770768 
Q 183.802906 183.711003 183.861343 183.643268 
Q 183.921109 183.575534 183.921109 183.405534 
L 183.921109 181.280534 
Q 183.513374 181.645768 182.95689 182.024284 
Q 182.400406 182.402799 182.344624 182.437331 
Q 182.288843 182.470534 182.263609 182.470534 
Q 182.238374 182.470534 182.238374 182.432018 
Q 182.238374 182.393503 182.315406 182.317799 
Q 183.377906 181.255299 183.903843 180.268503 
L 183.895874 180.158268 
L 183.95564 180.166237 
Q 184.25314 179.580534 184.431109 178.993503 
L 183.818843 178.993503 
Q 183.903843 179.248503 183.903843 179.478268 
Q 183.903843 179.878034 183.644859 180.090534 
Q 183.385874 180.303034 183.177359 180.303034 
Q 182.968843 180.303034 182.833374 180.146315 
Q 182.697906 179.988268 182.697906 179.826237 
Q 182.697906 179.538034 183.003374 179.358737 
Q 183.173374 179.257799 183.270328 179.058581 
Q 183.368609 178.858034 183.368609 178.670768 
Q 183.368609 178.483503 183.338062 178.394518 
Q 183.308843 178.305534 183.308843 178.263034 
Q 183.308843 178.220534 183.351343 178.220534 
Q 183.393843 178.220534 183.513374 178.399831 
Q 183.632906 178.577799 183.70064 178.713268 
z
M 186.683609 179.725299 
Q 186.793843 179.385299 186.828374 178.993503 
L 185.621109 178.993503 
Q 185.748609 180.235299 186.03814 181.025534 
Q 186.33564 180.540768 186.607906 179.665534 
Q 186.658374 179.698737 186.683609 179.725299 
z
M 185.391343 179.231237 
Q 185.136343 179.818268 184.788374 180.311003 
Q 185.128374 180.388034 185.128374 180.498268 
Q 185.128374 180.608503 184.873374 180.685534 
L 184.873374 183.533034 
Q 185.663609 183.252799 186.173609 183.098737 
Q 185.35814 181.475768 185.391343 179.231237 
z
M 182.535874 178.280299 
Q 182.535874 178.551237 182.373843 178.726549 
Q 182.21314 178.900534 181.987359 178.900534 
Q 181.762906 178.900534 181.622124 178.765065 
Q 181.481343 178.628268 181.498609 178.466237 
Q 181.507906 178.390534 181.507906 178.313503 
Q 181.507906 177.820768 181.082906 177.515299 
Q 180.997906 177.455534 180.997906 177.434284 
Q 180.997906 177.413034 181.090874 177.413034 
Q 181.668609 177.413034 182.101578 177.642799 
Q 182.535874 177.871237 182.535874 178.280299 
z
M 182.93564 178.135534 
L 182.230406 181.016237 
Q 182.051109 181.765299 182.051109 182.246081 
Q 182.051109 182.725534 182.203843 183.438737 
Q 182.263609 183.711003 182.263609 183.932799 
Q 182.263609 184.331237 182.080328 184.543737 
Q 181.898374 184.756237 181.59689 184.756237 
Q 181.295406 184.756237 181.12939 184.582253 
Q 180.963374 184.408268 180.963374 184.174518 
Q 180.963374 183.940768 181.031109 183.736237 
Q 181.243609 183.125299 181.243609 182.827799 
Q 181.243609 182.530299 181.094859 182.377565 
Q 180.946109 182.223503 180.606109 182.147799 
Q 180.538374 182.130534 180.538374 182.101315 
Q 180.538374 182.070768 180.623374 182.062799 
Q 181.158609 182.036237 181.413609 181.730768 
Q 181.668609 181.425299 181.91564 180.702799 
L 182.816109 178.093034 
Q 182.85064 177.990768 182.897124 177.990768 
Q 182.943609 177.990768 182.943609 178.042565 
Q 182.943609 178.093034 182.93564 178.135534 
z
M 181.966109 180.133034 
Q 181.966109 180.388034 181.800093 180.575299 
Q 181.635406 180.761237 181.422906 180.761237 
Q 181.210406 180.761237 181.090874 180.647018 
Q 180.971343 180.532799 180.963374 180.345534 
Q 180.955406 179.953737 180.861109 179.737253 
Q 180.76814 179.520768 180.55564 179.393268 
Q 180.487906 179.350768 180.487906 179.325534 
Q 180.487906 179.300299 180.538374 179.300299 
Q 180.793374 179.300299 181.183843 179.398581 
Q 181.57564 179.495534 181.770874 179.686784 
Q 181.966109 179.878034 181.966109 180.133034 
z
M 192.905874 178.313503 
Q 192.820874 178.253737 192.77439 178.178034 
Q 192.727906 178.101003 192.727906 178.008034 
L 192.735874 177.803503 
Q 192.735874 177.583034 192.676109 177.476784 
Q 192.616343 177.370534 192.454312 177.277565 
Q 192.293609 177.183268 192.293609 177.166003 
Q 192.293609 177.132799 192.62564 177.132799 
Q 193.195406 177.132799 193.547359 177.320065 
Q 193.90064 177.506003 193.90064 177.795534 
Q 193.90064 178.118268 193.611109 178.313503 
L 195.235406 178.313503 
Q 195.336343 178.118268 195.477124 177.915065 
Q 195.617906 177.710534 195.66439 177.660065 
Q 195.710874 177.608268 195.753374 177.608268 
Q 195.830406 177.608268 196.335093 177.978815 
Q 196.841109 178.348034 196.841109 178.471549 
Q 196.841109 178.593737 196.586109 178.593737 
L 194.308374 178.593737 
Q 195.26064 178.688034 195.26064 178.815534 
Q 195.26064 178.883268 195.056109 178.985534 
L 195.056109 179.648268 
L 195.370874 179.648268 
Q 195.463843 179.453034 195.587359 179.271081 
Q 195.710874 179.087799 195.74939 179.045299 
Q 195.787906 179.002799 195.830406 179.002799 
Q 195.94064 179.002799 196.398843 179.368034 
Q 196.858374 179.733268 196.858374 179.852799 
Q 196.858374 179.928503 196.671109 179.928503 
L 195.056109 179.928503 
L 195.056109 180.838268 
Q 195.056109 181.016237 195.065406 181.093268 
L 195.073374 181.246003 
Q 195.073374 181.398737 194.512906 181.450534 
Q 194.563374 181.450534 195.064078 181.663034 
Q 195.566109 181.875534 195.655093 181.939284 
Q 195.745406 182.003034 195.745406 182.062799 
Q 195.745406 182.147799 195.612593 182.169049 
Q 195.481109 182.190299 195.400093 182.271315 
Q 195.320406 182.351003 194.932593 182.806549 
Q 194.546109 183.260768 194.19814 183.550299 
Q 195.243374 183.847799 196.823843 183.847799 
Q 196.926109 183.847799 196.926109 183.890299 
Q 196.926109 183.932799 196.798609 183.991237 
Q 196.53564 184.110768 196.339078 184.387018 
Q 196.143843 184.663268 196.06814 184.960768 
Q 196.033609 185.063034 195.910093 185.063034 
Q 195.787906 185.063034 194.874156 184.773503 
Q 193.960406 184.485299 193.356109 184.110768 
Q 192.463609 184.595534 191.401109 184.760221 
Q 190.338609 184.926237 189.77814 184.926237 
Q 189.625406 184.926237 189.625406 184.870456 
Q 189.625406 184.816003 189.828609 184.773503 
Q 191.52064 184.450768 192.75314 183.651237 
Q 192.140874 183.065534 191.792906 182.155768 
L 191.613609 182.155768 
Q 191.443609 182.155768 191.30814 182.248737 
L 191.086343 181.850299 
Q 191.290874 181.875534 191.511343 181.875534 
L 194.163609 181.875534 
Q 194.418609 181.450534 194.45314 181.458503 
Q 194.163609 181.475768 194.103843 181.442565 
Q 194.045406 181.408034 194.045406 181.255299 
L 194.045406 181.101237 
L 192.778374 181.101237 
L 192.778374 181.178268 
Q 192.778374 181.365534 192.523374 181.438581 
Q 192.268374 181.510299 192.081109 181.510299 
Q 191.893843 181.510299 191.843374 181.481081 
Q 191.792906 181.450534 191.792906 181.373503 
L 191.800874 181.093268 
Q 191.808843 180.923268 191.808843 180.336237 
L 191.808843 179.928503 
L 191.325406 179.928503 
Q 191.155406 179.928503 191.018609 180.022799 
L 190.848609 179.716003 
Q 190.806109 181.951237 190.508609 182.797253 
Q 190.211109 183.643268 189.628062 184.335221 
Q 189.046343 185.028503 188.961343 185.028503 
Q 188.945406 185.028503 188.945406 184.993971 
Q 188.945406 184.960768 188.995874 184.875768 
Q 189.446109 184.153268 189.654624 183.218268 
Q 189.86314 182.283268 189.86314 180.944518 
Q 189.86314 179.605768 189.828609 177.940299 
Q 190.483374 178.083737 191.01064 178.313503 
L 192.905874 178.313503 
z
M 191.783609 178.593737 
L 190.916343 178.593737 
Q 190.857906 178.688034 190.857906 178.790299 
Q 190.857906 179.376003 190.848609 179.631003 
Q 191.018609 179.648268 191.22314 179.648268 
L 191.808843 179.648268 
L 191.808843 179.172799 
Q 191.808843 178.900534 191.783609 178.593737 
z
M 194.02814 178.593737 
L 192.20064 178.593737 
Q 192.58314 178.636237 192.782359 178.678737 
Q 192.982906 178.721237 192.982906 178.802253 
Q 192.982906 178.883268 192.778374 178.985534 
L 192.778374 179.648268 
L 194.045406 179.648268 
L 194.045406 179.018737 
Q 194.045406 178.840768 194.02814 178.593737 
z
M 194.045406 179.928503 
L 192.778374 179.928503 
L 192.778374 180.821003 
L 194.045406 180.821003 
L 194.045406 179.928503 
z
M 193.330874 183.226237 
Q 193.90064 182.725534 194.172906 182.155768 
L 192.005406 182.155768 
Q 192.463609 182.810534 193.330874 183.226237 
z
M 199.29939 185.774909 
L 199.29939 185.928971 
Q 198.672515 185.612878 198.252828 185.190534 
Q 197.655171 184.587565 197.331109 183.770768 
Q 197.008374 182.952643 197.008374 182.073424 
Q 197.008374 180.786471 197.643218 179.726628 
Q 198.278062 178.665456 199.29939 178.208581 
L 199.29939 178.382565 
Q 198.788062 178.665456 198.460015 179.155534 
Q 198.131968 179.644284 197.969937 180.396003 
Q 197.809234 181.147721 197.809234 181.964518 
Q 197.809234 182.853034 197.946031 183.579518 
Q 198.053609 184.15194 198.206343 184.498581 
Q 198.360406 184.845221 198.61939 185.163971 
Q 198.879703 185.484049 199.29939 185.774909 
z
M 202.510796 183.421471 
Q 201.759078 184.227643 201.203921 184.227643 
Q 200.846656 184.227643 200.539859 183.952721 
L 200.539859 184.17319 
Q 200.539859 184.554362 200.655406 184.940846 
Q 200.788218 185.368503 200.788218 185.505299 
Q 200.788218 185.696549 200.667359 185.820065 
Q 200.547828 185.944909 200.369859 185.944909 
Q 200.186578 185.944909 200.078999 185.800143 
Q 199.971421 185.655378 199.971421 185.450846 
Q 199.971421 185.302096 200.078999 184.911628 
Q 200.203843 184.479987 200.203843 184.073581 
L 200.203843 180.308346 
L 200.887828 180.308346 
L 200.887828 182.77069 
Q 200.887828 183.143893 200.951578 183.317878 
Q 201.016656 183.491862 201.180015 183.602096 
Q 201.344703 183.712331 201.55189 183.712331 
Q 201.921109 183.712331 202.510796 183.206315 
L 202.510796 180.308346 
L 203.200093 180.308346 
L 203.200093 183.193034 
Q 203.200093 183.558268 203.274468 183.697721 
Q 203.348843 183.837174 203.52814 183.837174 
Q 203.809703 183.837174 203.893374 183.284674 
L 204.042124 183.284674 
Q 203.963765 184.227643 203.245249 184.227643 
Q 202.934468 184.227643 202.728609 184.017799 
Q 202.522749 183.807956 202.510796 183.421471 
z
M 207.524468 184.110768 
L 205.348999 179.374674 
L 205.348999 183.135924 
Q 205.348999 183.653893 205.46189 183.782721 
Q 205.614624 183.956706 205.946656 183.956706 
L 206.145874 183.956706 
L 206.145874 184.110768 
L 204.18689 184.110768 
L 204.18689 183.956706 
L 204.386109 183.956706 
Q 204.743374 183.956706 204.893453 183.741549 
Q 204.983765 183.608737 204.983765 183.135924 
L 204.983765 179.458346 
Q 204.983765 179.085143 204.901421 178.919128 
Q 204.842984 178.798268 204.687593 178.717253 
Q 204.532203 178.636237 204.18689 178.636237 
L 204.18689 178.482174 
L 205.78064 178.482174 
L 207.823296 182.886237 
L 209.831421 178.482174 
L 211.425171 178.482174 
L 211.425171 178.636237 
L 211.229937 178.636237 
Q 210.870015 178.636237 210.719937 178.852721 
Q 210.628296 178.985534 210.628296 179.458346 
L 210.628296 183.135924 
Q 210.628296 183.653893 210.745171 183.782721 
Q 210.897906 183.956706 211.229937 183.956706 
L 211.425171 183.956706 
L 211.425171 184.110768 
L 209.034546 184.110768 
L 209.034546 183.956706 
L 209.233765 183.956706 
Q 209.595015 183.956706 209.741109 183.741549 
Q 209.831421 183.608737 209.831421 183.135924 
L 209.831421 179.374674 
L 207.661265 184.110768 
L 207.524468 184.110768 
z
M 211.795718 178.382565 
L 211.795718 178.208581 
Q 212.426578 178.52069 212.844937 178.943034 
Q 213.438609 179.549987 213.762671 180.365456 
Q 214.086734 181.180924 214.086734 182.064128 
Q 214.086734 183.351081 213.453218 184.410924 
Q 212.821031 185.472096 211.795718 185.928971 
L 211.795718 185.774909 
Q 212.305718 185.489362 212.635093 185.000612 
Q 212.965796 184.51319 213.125171 183.760143 
Q 213.285874 183.007096 213.285874 182.188971 
Q 213.285874 181.30444 213.149078 180.573971 
Q 213.044156 180.001549 212.888765 179.657565 
Q 212.733374 179.312253 212.475718 178.993503 
Q 212.21939 178.673424 211.795718 178.382565 
z
"/>
   </g>
   <g id="patch_6">
    <path d="M 16.502188 113.015234 
L 16.502188 114.517344 
L 13.871172 116.423203 
Q 13.879141 116.634375 13.879141 116.767187 
Q 13.879141 116.82164 13.877813 116.884062 
Q 13.875156 116.945156 13.871172 117.011562 
L 15.506094 117.011562 
Q 16.037344 117.011562 16.166172 116.896015 
Q 16.348125 116.737969 16.348125 116.423203 
L 16.348125 116.202734 
L 16.502188 116.202734 
L 16.502188 118.614609 
L 16.348125 118.614609 
L 16.348125 118.402109 
Q 16.348125 118.044844 16.115703 117.892109 
Q 15.986875 117.804453 15.506094 117.804453 
L 11.869688 117.804453 
Q 11.338438 117.804453 11.210938 117.921328 
Q 11.027656 118.083359 11.027656 118.402109 
L 11.027656 118.614609 
L 10.873594 118.614609 
L 10.873594 116.563984 
Q 10.873594 115.6675 11.005078 115.2425 
Q 11.135234 114.816172 11.485859 114.52 
Q 11.836484 114.2225 12.322578 114.2225 
Q 12.841875 114.2225 13.224375 114.561172 
Q 13.605547 114.899844 13.762266 115.609062 
L 15.377266 114.446953 
Q 15.93375 114.048515 16.117031 113.762969 
Q 16.298984 113.476094 16.348125 113.015234 
L 16.502188 113.015234 
z
M 13.609531 117.011562 
Q 13.609531 116.933203 13.612188 116.874765 
Q 13.613516 116.816328 13.613516 116.77914 
Q 13.613516 115.974297 13.265547 115.565234 
Q 12.91625 115.156172 12.377031 115.156172 
Q 11.849766 115.156172 11.520391 115.486875 
Q 11.189688 115.81625 11.189688 116.360781 
Q 11.189688 116.601172 11.268047 117.011562 
L 13.609531 117.011562 
z
M 14.132813 112.185156 
Q 14.978828 112.18914 15.460938 111.773437 
Q 15.941719 111.359062 15.941719 110.798594 
Q 15.941719 110.42539 15.737188 110.14914 
Q 15.531328 109.87289 15.033281 109.685625 
L 15.115625 109.558125 
Q 15.684063 109.644453 16.151563 110.06414 
Q 16.619063 110.4825 16.619063 111.113359 
Q 16.619063 111.798672 16.085156 112.286094 
Q 15.55125 112.773515 14.650781 112.773515 
Q 13.675938 112.773515 13.130078 112.27414 
Q 12.584219 111.773437 12.584219 111.019062 
Q 12.584219 110.378906 13.005234 109.968515 
Q 13.42625 109.558125 14.132813 109.558125 
L 14.132813 112.185156 
z
M 13.891094 112.185156 
L 13.891094 110.42539 
Q 13.525859 110.445312 13.377109 110.511719 
Q 13.144688 110.615312 13.011875 110.821172 
Q 12.879063 111.027031 12.879063 111.251484 
Q 12.879063 111.595469 13.147344 111.867734 
Q 13.414297 112.138672 13.891094 112.185156 
z
M 12.588203 106.59375 
L 13.883125 106.59375 
L 13.883125 106.730547 
Q 13.273516 106.888594 13.053047 107.135625 
Q 12.832578 107.382656 12.832578 107.763828 
Q 12.832578 108.054687 12.986641 108.233984 
Q 13.140703 108.411953 13.326641 108.411953 
Q 13.559063 108.411953 13.725078 108.27914 
Q 13.895078 108.150312 14.086328 107.755859 
L 14.381172 107.150234 
Q 14.791563 106.306875 15.464922 106.306875 
Q 15.982891 106.306875 16.301641 106.7 
Q 16.619063 107.091797 16.619063 107.57789 
Q 16.619063 107.925859 16.494219 108.374765 
Q 16.451719 108.511562 16.451719 108.59789 
Q 16.451719 108.693515 16.560625 108.747969 
L 16.560625 108.884765 
L 15.203281 108.884765 
L 15.203281 108.747969 
Q 15.783672 108.631094 16.078516 108.304375 
Q 16.373359 107.976328 16.373359 107.568594 
Q 16.373359 107.283047 16.206016 107.102422 
Q 16.037344 106.921797 15.800938 106.921797 
Q 15.514063 106.921797 15.318828 107.123672 
Q 15.123594 107.324219 14.824766 107.925859 
Q 14.525938 108.5275 14.285547 108.714765 
Q 14.049141 108.900703 13.687891 108.900703 
Q 13.219063 108.900703 12.904297 108.579297 
Q 12.588203 108.25789 12.588203 107.74789 
Q 12.588203 107.523437 12.683828 107.203359 
Q 12.74625 106.992187 12.74625 106.921797 
Q 12.74625 106.85539 12.717031 106.818203 
Q 12.687813 106.781015 12.588203 106.730547 
L 12.588203 106.59375 
z
M 13.078281 106.016015 
L 12.605469 104.845937 
L 12.605469 104.68789 
L 13.492656 104.68789 
Q 12.990625 104.393047 12.790078 104.096875 
Q 12.588203 103.799375 12.588203 103.472656 
Q 12.588203 102.898906 13.037109 102.517734 
Q 13.584297 102.048906 14.464844 102.048906 
Q 15.447656 102.048906 16.091797 102.613359 
Q 16.619063 103.078203 16.619063 103.783437 
Q 16.619063 104.090234 16.531406 104.314687 
Q 16.468984 104.480703 16.281719 104.68789 
L 17.439844 104.68789 
Q 17.830313 104.68789 17.935234 104.640078 
Q 18.041484 104.592265 18.103906 104.474062 
Q 18.166328 104.355859 18.166328 104.045078 
L 18.320391 104.045078 
L 18.320391 106.037265 
L 18.166328 106.037265 
L 18.166328 105.933672 
Q 18.170313 105.705234 18.08 105.543203 
Q 18.033516 105.464844 17.93125 105.421015 
Q 17.830313 105.377187 17.415938 105.377187 
L 13.820703 105.377187 
Q 13.451484 105.377187 13.351875 105.41039 
Q 13.252266 105.443594 13.203125 105.51664 
Q 13.152656 105.588359 13.152656 105.713203 
Q 13.152656 105.812812 13.211094 105.966875 
L 13.078281 106.016015 
z
M 13.738359 104.68789 
L 15.156797 104.68789 
Q 15.617656 104.68789 15.76375 104.650703 
Q 16.004141 104.592265 16.187422 104.366484 
Q 16.369375 104.140703 16.369375 103.79539 
Q 16.369375 103.381015 16.045313 103.123359 
Q 15.621641 102.787344 14.853984 102.787344 
Q 13.982734 102.787344 13.513906 103.168515 
Q 13.189844 103.43414 13.189844 103.799375 
Q 13.189844 103.998594 13.289453 104.193828 
Q 13.363828 104.343906 13.738359 104.68789 
z
M 12.588203 99.633047 
Q 12.588203 98.769765 13.244297 98.246484 
Q 13.804766 97.80289 14.53125 97.80289 
Q 15.04125 97.80289 15.564531 98.048594 
Q 16.086484 98.292969 16.353438 98.721953 
Q 16.619063 99.150937 16.619063 99.678203 
Q 16.619063 100.5375 15.93375 101.043515 
Q 15.356016 101.471172 14.638828 101.471172 
Q 14.115547 101.471172 13.598906 101.212187 
Q 13.082266 100.953203 12.835234 100.529531 
Q 12.588203 100.105859 12.588203 99.633047 
z
M 12.857813 99.761875 
Q 12.857813 99.981015 12.989297 100.20414 
Q 13.119453 100.425937 13.4475 100.562734 
Q 13.775547 100.699531 14.289531 100.699531 
Q 15.119609 100.699531 15.722578 100.370156 
Q 16.324219 100.039453 16.324219 99.500234 
Q 16.324219 99.097812 15.992188 98.836172 
Q 15.660156 98.574531 14.85 98.574531 
Q 13.837969 98.574531 13.25625 99.010156 
Q 12.857813 99.305 12.857813 99.761875 
z
M 13.393047 96.134765 
Q 12.588203 95.46539 12.588203 94.859765 
Q 12.588203 94.548984 12.743594 94.324531 
Q 12.898984 94.100078 13.25625 93.967265 
Q 13.505938 93.876953 14.019922 93.876953 
L 15.642891 93.876953 
Q 16.004141 93.876953 16.132969 93.818515 
Q 16.236563 93.772031 16.295 93.671094 
Q 16.352109 93.568828 16.352109 93.295234 
L 16.502188 93.295234 
L 16.502188 95.175859 
L 16.352109 95.175859 
L 16.352109 95.096172 
Q 16.352109 94.830547 16.272422 94.725625 
Q 16.191406 94.619375 16.033359 94.578203 
Q 15.970938 94.560937 15.642891 94.560937 
L 14.086328 94.560937 
Q 13.568359 94.560937 13.333281 94.696406 
Q 13.098203 94.830547 13.098203 95.150625 
Q 13.098203 95.644687 13.63875 96.134765 
L 15.642891 96.134765 
Q 16.029375 96.134765 16.119688 96.088281 
Q 16.240547 96.029844 16.296328 95.928906 
Q 16.352109 95.82664 16.352109 95.515859 
L 16.502188 95.515859 
L 16.502188 97.396484 
L 16.352109 97.396484 
L 16.352109 97.312812 
Q 16.352109 97.021953 16.206016 96.921015 
Q 16.058594 96.81875 15.642891 96.81875 
L 14.232422 96.81875 
Q 13.547109 96.81875 13.398359 96.850625 
Q 13.248281 96.881172 13.195156 96.94625 
Q 13.140703 97.01 13.140703 97.117578 
Q 13.140703 97.234453 13.203125 97.396484 
L 13.053047 97.457578 
L 12.588203 96.312734 
L 12.588203 96.134765 
L 13.393047 96.134765 
z
M 12.588203 90.53539 
L 13.883125 90.53539 
L 13.883125 90.672187 
Q 13.273516 90.830234 13.053047 91.077265 
Q 12.832578 91.324297 12.832578 91.705469 
Q 12.832578 91.996328 12.986641 92.175625 
Q 13.140703 92.353594 13.326641 92.353594 
Q 13.559063 92.353594 13.725078 92.220781 
Q 13.895078 92.091953 14.086328 91.6975 
L 14.381172 91.091875 
Q 14.791563 90.248515 15.464922 90.248515 
Q 15.982891 90.248515 16.301641 90.64164 
Q 16.619063 91.033437 16.619063 91.519531 
Q 16.619063 91.8675 16.494219 92.316406 
Q 16.451719 92.453203 16.451719 92.539531 
Q 16.451719 92.635156 16.560625 92.689609 
L 16.560625 92.826406 
L 15.203281 92.826406 
L 15.203281 92.689609 
Q 15.783672 92.572734 16.078516 92.246015 
Q 16.373359 91.917969 16.373359 91.510234 
Q 16.373359 91.224687 16.206016 91.044062 
Q 16.037344 90.863437 15.800938 90.863437 
Q 15.514063 90.863437 15.318828 91.065312 
Q 15.123594 91.265859 14.824766 91.8675 
Q 14.525938 92.46914 14.285547 92.656406 
Q 14.049141 92.842344 13.687891 92.842344 
Q 13.219063 92.842344 12.904297 92.520937 
Q 12.588203 92.199531 12.588203 91.689531 
Q 12.588203 91.465078 12.683828 91.145 
Q 12.74625 90.933828 12.74625 90.863437 
Q 12.74625 90.797031 12.717031 90.759844 
Q 12.687813 90.722656 12.588203 90.672187 
L 12.588203 90.53539 
z
M 14.132813 89.045234 
Q 14.978828 89.049219 15.460938 88.633515 
Q 15.941719 88.21914 15.941719 87.658672 
Q 15.941719 87.285469 15.737188 87.009219 
Q 15.531328 86.732969 15.033281 86.545703 
L 15.115625 86.418203 
Q 15.684063 86.504531 16.151563 86.924219 
Q 16.619063 87.342578 16.619063 87.973437 
Q 16.619063 88.65875 16.085156 89.146172 
Q 15.55125 89.633594 14.650781 89.633594 
Q 13.675938 89.633594 13.130078 89.134219 
Q 12.584219 88.633515 12.584219 87.87914 
Q 12.584219 87.238984 13.005234 86.828594 
Q 13.42625 86.418203 14.132813 86.418203 
L 14.132813 89.045234 
z
M 13.891094 89.045234 
L 13.891094 87.285469 
Q 13.525859 87.30539 13.377109 87.371797 
Q 13.144688 87.47539 13.011875 87.68125 
Q 12.879063 87.887109 12.879063 88.111562 
Q 12.879063 88.455547 13.147344 88.727812 
Q 13.414297 88.99875 13.891094 89.045234 
z
M 18.166328 81.411172 
L 18.320391 81.411172 
Q 18.004297 82.038047 17.581953 82.457734 
Q 16.978984 83.05539 16.162188 83.379453 
Q 15.344063 83.702187 14.464844 83.702187 
Q 13.177891 83.702187 12.118047 83.067344 
Q 11.056875 82.4325 10.6 81.411172 
L 10.773984 81.411172 
Q 11.056875 81.9225 11.546953 82.250547 
Q 12.035703 82.578594 12.787422 82.740625 
Q 13.539141 82.901328 14.355938 82.901328 
Q 15.244453 82.901328 15.970938 82.764531 
Q 16.543359 82.656953 16.89 82.504219 
Q 17.236641 82.350156 17.555391 82.091172 
Q 17.875469 81.830859 18.166328 81.411172 
z
M 12.998594 79.469453 
L 15.498125 79.469453 
Q 16.029375 79.469453 16.170156 79.353906 
Q 16.352109 79.199844 16.352109 78.942187 
L 16.352109 78.598203 
L 16.502188 78.598203 
L 16.502188 80.867969 
L 16.352109 80.867969 
L 16.352109 80.697969 
Q 16.352109 80.531953 16.269766 80.395156 
Q 16.186094 80.258359 16.045313 80.206562 
Q 15.904531 80.154765 15.498125 80.154765 
L 12.998594 80.154765 
L 12.998594 80.893203 
L 12.699766 80.893203 
L 12.699766 80.154765 
L 12.451406 80.154765 
Q 11.882969 80.154765 11.488516 79.972812 
Q 11.094063 79.789531 10.851016 79.413672 
Q 10.607969 79.037812 10.607969 78.568984 
Q 10.607969 78.133359 10.890859 77.768125 
Q 11.078125 77.527734 11.310547 77.527734 
Q 11.434063 77.527734 11.544297 77.635312 
Q 11.654531 77.74289 11.654531 77.867734 
Q 11.654531 77.963359 11.586797 78.069609 
Q 11.517734 78.174531 11.291953 78.328594 
Q 11.064844 78.481328 10.986484 78.610156 
Q 10.906797 78.738984 10.906797 78.897031 
Q 10.906797 79.088281 11.009063 79.221094 
Q 11.111328 79.353906 11.325156 79.412344 
Q 11.537656 79.469453 12.426172 79.469453 
L 12.699766 79.469453 
L 12.699766 78.490625 
L 12.998594 78.490625 
L 12.998594 79.469453 
z
M 12.588203 77.012422 
L 13.443516 77.012422 
Q 12.588203 76.535625 12.588203 76.033594 
Q 12.588203 75.805156 12.727656 75.656406 
Q 12.865781 75.506328 13.049063 75.506328 
Q 13.211094 75.506328 13.323984 75.615234 
Q 13.435547 75.722812 13.435547 75.871562 
Q 13.435547 76.016328 13.292109 76.196953 
Q 13.148672 76.377578 13.148672 76.465234 
Q 13.148672 76.539609 13.231016 76.627265 
Q 13.402344 76.813203 13.791484 77.012422 
L 15.613672 77.012422 
Q 15.929766 77.012422 16.091797 76.934062 
Q 16.203359 76.879609 16.277734 76.742812 
Q 16.352109 76.606015 16.352109 76.348359 
L 16.502188 76.348359 
L 16.502188 78.29539 
L 16.352109 78.29539 
Q 16.352109 78.004531 16.261797 77.86375 
Q 16.195391 77.760156 16.049297 77.718984 
Q 15.978906 77.697734 15.646875 77.697734 
L 14.173984 77.697734 
Q 13.509922 77.697734 13.38375 77.725625 
Q 13.25625 77.752187 13.199141 77.825234 
Q 13.140703 77.896953 13.140703 78.004531 
Q 13.140703 78.133359 13.203125 78.29539 
L 13.053047 78.336562 
L 12.588203 77.187734 
L 12.588203 77.012422 
z
M 15.953672 73.140937 
Q 16.406563 73.72664 16.476953 73.87539 
Q 16.580547 74.099844 16.580547 74.353515 
Q 16.580547 74.74664 16.310938 75.002969 
Q 16.041328 75.257969 15.601719 75.257969 
Q 15.322813 75.257969 15.119609 75.133125 
Q 14.838047 74.963125 14.589688 74.542109 
Q 14.34 74.121094 13.982734 73.140937 
L 13.833984 73.140937 
Q 13.264219 73.140937 13.053047 73.321562 
Q 12.841875 73.502187 12.841875 73.846172 
Q 12.841875 74.107812 12.982656 74.261875 
Q 13.123438 74.419922 13.306719 74.419922 
L 13.547109 74.410625 
Q 13.738359 74.410625 13.841953 74.508906 
Q 13.945547 74.605859 13.945547 74.763906 
Q 13.945547 74.917969 13.837969 75.014922 
Q 13.729063 75.111875 13.543125 75.111875 
Q 13.185859 75.111875 12.887031 74.74664 
Q 12.588203 74.381406 12.588203 73.722656 
Q 12.588203 73.215312 12.758203 72.892578 
Q 12.887031 72.646875 13.160625 72.531328 
Q 13.339922 72.455625 13.891094 72.455625 
L 15.182031 72.455625 
Q 15.726563 72.455625 15.84875 72.435703 
Q 15.970938 72.414453 16.012109 72.36664 
Q 16.053281 72.318828 16.053281 72.256406 
Q 16.053281 72.19 16.025391 72.140859 
Q 15.970938 72.053203 15.72125 71.804844 
L 15.953672 71.804844 
Q 16.576563 72.269687 16.576563 72.693359 
Q 16.576563 72.896562 16.435781 73.017422 
Q 16.295 73.136953 15.953672 73.140937 
z
M 15.684063 73.140937 
L 14.236406 73.140937 
Q 14.484766 73.767812 14.588359 73.949765 
Q 14.771641 74.277812 14.970859 74.419922 
Q 15.170078 74.560703 15.406484 74.560703 
Q 15.705313 74.560703 15.903203 74.382734 
Q 16.099766 74.203437 16.099766 73.971015 
Q 16.099766 73.65625 15.684063 73.140937 
z
M 15.057188 68.293281 
Q 15.808906 68.446015 16.213984 68.894922 
Q 16.619063 69.3425 16.619063 69.887031 
Q 16.619063 70.533828 16.075859 71.015937 
Q 15.531328 71.496719 14.605625 71.496719 
Q 13.709141 71.496719 13.148672 70.96414 
Q 12.588203 70.430234 12.588203 69.683828 
Q 12.588203 69.123359 12.885703 68.762109 
Q 13.181875 68.400859 13.501953 68.400859 
Q 13.658672 68.400859 13.756953 68.503125 
Q 13.853906 68.604062 13.853906 68.787344 
Q 13.853906 69.031719 13.695859 69.156562 
Q 13.609531 69.226953 13.365156 69.249531 
Q 13.119453 69.272109 12.990625 69.418203 
Q 12.865781 69.562969 12.865781 69.820625 
Q 12.865781 70.235 13.173906 70.488672 
Q 13.580313 70.824687 14.248359 70.824687 
Q 14.929688 70.824687 15.450313 70.491328 
Q 15.970938 70.15664 15.970938 69.588203 
Q 15.970938 69.180469 15.693359 68.857734 
Q 15.502109 68.629297 15.000078 68.412812 
L 15.057188 68.293281 
z
M 11.451328 66.645078 
L 12.699766 66.645078 
L 12.699766 65.756562 
L 12.990625 65.756562 
L 12.990625 66.645078 
L 15.455625 66.645078 
Q 15.826172 66.645078 15.955 66.538828 
Q 16.0825 66.432578 16.0825 66.266562 
Q 16.0825 66.129765 15.9975 66.000937 
Q 15.9125 65.872109 15.746484 65.801719 
L 15.746484 65.639687 
Q 16.152891 65.785781 16.35875 66.051406 
Q 16.564609 66.317031 16.564609 66.598594 
Q 16.564609 66.789844 16.458359 66.973125 
Q 16.352109 67.155078 16.155547 67.242734 
Q 15.958984 67.329062 15.547266 67.329062 
L 12.990625 67.329062 
L 12.990625 67.930703 
L 12.853828 67.930703 
Q 12.762188 67.703594 12.544375 67.464531 
Q 12.326563 67.225469 12.027734 67.039531 
Q 11.869688 66.943906 11.451328 66.773906 
L 11.451328 66.645078 
z
M 10.6 64.420469 
Q 10.6 64.246484 10.723516 64.124297 
Q 10.845703 64.000781 11.019688 64.000781 
Q 11.193672 64.000781 11.318516 64.124297 
Q 11.443359 64.246484 11.443359 64.420469 
Q 11.443359 64.594453 11.318516 64.719297 
Q 11.193672 64.84414 11.019688 64.84414 
Q 10.845703 64.84414 10.723516 64.721953 
Q 10.6 64.598437 10.6 64.420469 
z
M 12.588203 64.075156 
L 15.642891 64.075156 
Q 16.000156 64.075156 16.118359 64.023359 
Q 16.236563 63.971562 16.295 63.870625 
Q 16.352109 63.768359 16.352109 63.49875 
L 16.502188 63.49875 
L 16.502188 65.346172 
L 16.352109 65.346172 
Q 16.352109 65.067265 16.298984 64.972969 
Q 16.244531 64.877344 16.121016 64.821562 
Q 15.996172 64.764453 15.642891 64.764453 
L 14.177969 64.764453 
Q 13.559063 64.764453 13.377109 64.80164 
Q 13.244297 64.830859 13.1925 64.893281 
Q 13.140703 64.955703 13.140703 65.063281 
Q 13.140703 65.180156 13.203125 65.346172 
L 13.053047 65.403281 
L 12.588203 64.258437 
L 12.588203 64.075156 
z
M 12.588203 61.166562 
Q 12.588203 60.303281 13.244297 59.78 
Q 13.804766 59.336406 14.53125 59.336406 
Q 15.04125 59.336406 15.564531 59.582109 
Q 16.086484 59.826484 16.353438 60.255469 
Q 16.619063 60.684453 16.619063 61.211719 
Q 16.619063 62.071015 15.93375 62.577031 
Q 15.356016 63.004687 14.638828 63.004687 
Q 14.115547 63.004687 13.598906 62.745703 
Q 13.082266 62.486719 12.835234 62.063047 
Q 12.588203 61.639375 12.588203 61.166562 
z
M 12.857813 61.29539 
Q 12.857813 61.514531 12.989297 61.737656 
Q 13.119453 61.959453 13.4475 62.09625 
Q 13.775547 62.233047 14.289531 62.233047 
Q 15.119609 62.233047 15.722578 61.903672 
Q 16.324219 61.572969 16.324219 61.03375 
Q 16.324219 60.631328 15.992188 60.369687 
Q 15.660156 60.108047 14.85 60.108047 
Q 13.837969 60.108047 13.25625 60.543672 
Q 12.857813 60.838515 12.857813 61.29539 
z
M 13.393047 57.668281 
Q 12.588203 56.998906 12.588203 56.393281 
Q 12.588203 56.0825 12.743594 55.858047 
Q 12.898984 55.633594 13.25625 55.500781 
Q 13.505938 55.410469 14.019922 55.410469 
L 15.642891 55.410469 
Q 16.004141 55.410469 16.132969 55.352031 
Q 16.236563 55.305547 16.295 55.204609 
Q 16.352109 55.102344 16.352109 54.82875 
L 16.502188 54.82875 
L 16.502188 56.709375 
L 16.352109 56.709375 
L 16.352109 56.629687 
Q 16.352109 56.364062 16.272422 56.25914 
Q 16.191406 56.15289 16.033359 56.111719 
Q 15.970938 56.094453 15.642891 56.094453 
L 14.086328 56.094453 
Q 13.568359 56.094453 13.333281 56.229922 
Q 13.098203 56.364062 13.098203 56.68414 
Q 13.098203 57.178203 13.63875 57.668281 
L 15.642891 57.668281 
Q 16.029375 57.668281 16.119688 57.621797 
Q 16.240547 57.563359 16.296328 57.462422 
Q 16.352109 57.360156 16.352109 57.049375 
L 16.502188 57.049375 
L 16.502188 58.93 
L 16.352109 58.93 
L 16.352109 58.846328 
Q 16.352109 58.555469 16.206016 58.454531 
Q 16.058594 58.352265 15.642891 58.352265 
L 14.232422 58.352265 
Q 13.547109 58.352265 13.398359 58.38414 
Q 13.248281 58.414687 13.195156 58.479765 
Q 13.140703 58.543515 13.140703 58.651094 
Q 13.140703 58.767969 13.203125 58.93 
L 13.053047 58.991094 
L 12.588203 57.84625 
L 12.588203 57.668281 
L 13.393047 57.668281 
z
M 10.773984 54.600312 
L 10.6 54.600312 
Q 10.912109 53.969453 11.334453 53.551094 
Q 11.941406 52.957422 12.756875 52.633359 
Q 13.572344 52.309297 14.455547 52.309297 
Q 15.7425 52.309297 16.802344 52.942812 
Q 17.863516 53.575 18.320391 54.600312 
L 18.166328 54.600312 
Q 17.880781 54.090312 17.392031 53.760937 
Q 16.904609 53.430234 16.151563 53.270859 
Q 15.398516 53.110156 14.580391 53.110156 
Q 13.695859 53.110156 12.965391 53.246953 
Q 12.392969 53.351875 12.048984 53.507265 
Q 11.703672 53.662656 11.384922 53.920312 
Q 11.064844 54.17664 10.773984 54.600312 
z
"/>
   </g>
   <g id="legend_1">
    <g id="line2d_16">
     <path d="M 138.45271 13.575 
L 146.95271 13.575 
L 155.45271 13.575 
" style="fill: none; stroke: #0072b2; stroke-width: 1.15; stroke-linecap: square"/>
     <g>
      <use xlink:href="#ma7b1c42cef" x="146.95271" y="13.575" style="fill: #0072b2; stroke: #0072b2"/>
     </g>
    </g>
    <g id="text_14">
     <!-- Control -->
     <g transform="translate(160.12771 16.55) scale(0.085 -0.085)">
      <defs>
       <path id="TimesNewRomanPSMT-26" d="M 3853 4334 
L 3950 2894 
L 3853 2894 
Q 3659 3541 3300 3825 
Q 2941 4109 2438 4109 
Q 2016 4109 1675 3895 
Q 1334 3681 1139 3212 
Q 944 2744 944 2047 
Q 944 1472 1128 1050 
Q 1313 628 1683 403 
Q 2053 178 2528 178 
Q 2941 178 3256 354 
Q 3572 531 3950 1056 
L 4047 994 
Q 3728 428 3303 165 
Q 2878 -97 2294 -97 
Q 1241 -97 663 684 
Q 231 1266 231 2053 
Q 231 2688 515 3219 
Q 800 3750 1298 4042 
Q 1797 4334 2388 4334 
Q 2847 4334 3294 4109 
Q 3425 4041 3481 4041 
Q 3566 4041 3628 4100 
Q 3709 4184 3744 4334 
L 3853 4334 
z
" transform="scale(0.015625)"/>
       <path id="TimesNewRomanPSMT-52" d="M 1600 2947 
Q 2250 2947 2644 2453 
Q 2978 2031 2978 1484 
Q 2978 1100 2793 706 
Q 2609 313 2286 112 
Q 1963 -88 1566 -88 
Q 919 -88 538 428 
Q 216 863 216 1403 
Q 216 1797 411 2186 
Q 606 2575 925 2761 
Q 1244 2947 1600 2947 
z
M 1503 2744 
Q 1338 2744 1170 2645 
Q 1003 2547 900 2300 
Q 797 2053 797 1666 
Q 797 1041 1045 587 
Q 1294 134 1700 134 
Q 2003 134 2200 384 
Q 2397 634 2397 1244 
Q 2397 2006 2069 2444 
Q 1847 2744 1503 2744 
z
" transform="scale(0.015625)"/>
       <path id="TimesNewRomanPSMT-51" d="M 1034 2341 
Q 1538 2947 1994 2947 
Q 2228 2947 2397 2830 
Q 2566 2713 2666 2444 
Q 2734 2256 2734 1869 
L 2734 647 
Q 2734 375 2778 278 
Q 2813 200 2889 156 
Q 2966 113 3172 113 
L 3172 0 
L 1756 0 
L 1756 113 
L 1816 113 
Q 2016 113 2095 173 
Q 2175 234 2206 353 
Q 2219 400 2219 647 
L 2219 1819 
Q 2219 2209 2117 2386 
Q 2016 2563 1775 2563 
Q 1403 2563 1034 2156 
L 1034 647 
Q 1034 356 1069 288 
Q 1113 197 1189 155 
Q 1266 113 1500 113 
L 1500 0 
L 84 0 
L 84 113 
L 147 113 
Q 366 113 442 223 
Q 519 334 519 647 
L 519 1709 
Q 519 2225 495 2337 
Q 472 2450 423 2490 
Q 375 2531 294 2531 
Q 206 2531 84 2484 
L 38 2597 
L 900 2947 
L 1034 2947 
L 1034 2341 
z
" transform="scale(0.015625)"/>
       <path id="TimesNewRomanPSMT-57" d="M 1031 3803 
L 1031 2863 
L 1700 2863 
L 1700 2644 
L 1031 2644 
L 1031 788 
Q 1031 509 1111 412 
Q 1191 316 1316 316 
Q 1419 316 1516 380 
Q 1613 444 1666 569 
L 1788 569 
Q 1678 263 1478 108 
Q 1278 -47 1066 -47 
Q 922 -47 784 33 
Q 647 113 581 261 
Q 516 409 516 719 
L 516 2644 
L 63 2644 
L 63 2747 
Q 234 2816 414 2980 
Q 594 3144 734 3369 
Q 806 3488 934 3803 
L 1031 3803 
z
" transform="scale(0.015625)"/>
       <path id="TimesNewRomanPSMT-55" d="M 1038 2947 
L 1038 2303 
Q 1397 2947 1775 2947 
Q 1947 2947 2059 2842 
Q 2172 2738 2172 2600 
Q 2172 2478 2090 2393 
Q 2009 2309 1897 2309 
Q 1788 2309 1652 2417 
Q 1516 2525 1450 2525 
Q 1394 2525 1328 2463 
Q 1188 2334 1038 2041 
L 1038 669 
Q 1038 431 1097 309 
Q 1138 225 1241 169 
Q 1344 113 1538 113 
L 1538 0 
L 72 0 
L 72 113 
Q 291 113 397 181 
Q 475 231 506 341 
Q 522 394 522 644 
L 522 1753 
Q 522 2253 501 2348 
Q 481 2444 426 2487 
Q 372 2531 291 2531 
Q 194 2531 72 2484 
L 41 2597 
L 906 2947 
L 1038 2947 
z
" transform="scale(0.015625)"/>
       <path id="TimesNewRomanPSMT-4f" d="M 1184 4444 
L 1184 647 
Q 1184 378 1223 290 
Q 1263 203 1344 158 
Q 1425 113 1647 113 
L 1647 0 
L 244 0 
L 244 113 
Q 441 113 512 153 
Q 584 194 625 287 
Q 666 381 666 647 
L 666 3247 
Q 666 3731 644 3842 
Q 622 3953 573 3993 
Q 525 4034 450 4034 
Q 369 4034 244 3984 
L 191 4094 
L 1044 4444 
L 1184 4444 
z
" transform="scale(0.015625)"/>
      </defs>
      <use xlink:href="#TimesNewRomanPSMT-26"/>
      <use xlink:href="#TimesNewRomanPSMT-52" transform="translate(66.703125 0)"/>
      <use xlink:href="#TimesNewRomanPSMT-51" transform="translate(116.703125 0)"/>
      <use xlink:href="#TimesNewRomanPSMT-57" transform="translate(166.703125 0)"/>
      <use xlink:href="#TimesNewRomanPSMT-55" transform="translate(194.484375 0)"/>
      <use xlink:href="#TimesNewRomanPSMT-52" transform="translate(227.78125 0)"/>
      <use xlink:href="#TimesNewRomanPSMT-4f" transform="translate(277.78125 0)"/>
     </g>
    </g>
    <g id="line2d_17">
     <path d="M 201.400523 13.575 
L 209.900523 13.575 
L 218.400523 13.575 
" style="fill: none; stroke: #d55e00; stroke-width: 1.15; stroke-linecap: square"/>
     <g>
      <use xlink:href="#me3d803d143" x="209.900523" y="13.575" style="fill: #d55e00; stroke: #d55e00"/>
     </g>
    </g>
    <g id="text_15">
     <!-- Amended -->
     <g transform="translate(223.075523 16.55) scale(0.085 -0.085)">
      <defs>
       <path id="TimesNewRomanPSMT-24" d="M 2928 1419 
L 1288 1419 
L 1000 750 
Q 894 503 894 381 
Q 894 284 986 211 
Q 1078 138 1384 116 
L 1384 0 
L 50 0 
L 50 116 
Q 316 163 394 238 
Q 553 388 747 847 
L 2238 4334 
L 2347 4334 
L 3822 809 
Q 4000 384 4145 257 
Q 4291 131 4550 116 
L 4550 0 
L 2878 0 
L 2878 116 
Q 3131 128 3220 200 
Q 3309 272 3309 375 
Q 3309 513 3184 809 
L 2928 1419 
z
M 2841 1650 
L 2122 3363 
L 1384 1650 
L 2841 1650 
z
" transform="scale(0.015625)"/>
       <path id="TimesNewRomanPSMT-50" d="M 1050 2338 
Q 1363 2650 1419 2697 
Q 1559 2816 1721 2881 
Q 1884 2947 2044 2947 
Q 2313 2947 2506 2790 
Q 2700 2634 2766 2338 
Q 3088 2713 3309 2830 
Q 3531 2947 3766 2947 
Q 3994 2947 4170 2830 
Q 4347 2713 4450 2447 
Q 4519 2266 4519 1878 
L 4519 647 
Q 4519 378 4559 278 
Q 4591 209 4675 161 
Q 4759 113 4950 113 
L 4950 0 
L 3538 0 
L 3538 113 
L 3597 113 
Q 3781 113 3884 184 
Q 3956 234 3988 344 
Q 4000 397 4000 647 
L 4000 1878 
Q 4000 2228 3916 2372 
Q 3794 2572 3525 2572 
Q 3359 2572 3192 2489 
Q 3025 2406 2788 2181 
L 2781 2147 
L 2788 2013 
L 2788 647 
Q 2788 353 2820 281 
Q 2853 209 2943 161 
Q 3034 113 3253 113 
L 3253 0 
L 1806 0 
L 1806 113 
Q 2044 113 2133 169 
Q 2222 225 2256 338 
Q 2272 391 2272 647 
L 2272 1878 
Q 2272 2228 2169 2381 
Q 2031 2581 1784 2581 
Q 1616 2581 1450 2491 
Q 1191 2353 1050 2181 
L 1050 647 
Q 1050 366 1089 281 
Q 1128 197 1204 155 
Q 1281 113 1516 113 
L 1516 0 
L 100 0 
L 100 113 
Q 297 113 375 155 
Q 453 197 493 289 
Q 534 381 534 647 
L 534 1741 
Q 534 2213 506 2350 
Q 484 2453 437 2492 
Q 391 2531 309 2531 
Q 222 2531 100 2484 
L 53 2597 
L 916 2947 
L 1050 2947 
L 1050 2338 
z
" transform="scale(0.015625)"/>
       <path id="TimesNewRomanPSMT-48" d="M 681 1784 
Q 678 1147 991 784 
Q 1303 422 1725 422 
Q 2006 422 2214 576 
Q 2422 731 2563 1106 
L 2659 1044 
Q 2594 616 2278 264 
Q 1963 -88 1488 -88 
Q 972 -88 605 314 
Q 238 716 238 1394 
Q 238 2128 614 2539 
Q 991 2950 1559 2950 
Q 2041 2950 2350 2633 
Q 2659 2316 2659 1784 
L 681 1784 
z
M 681 1966 
L 2006 1966 
Q 1991 2241 1941 2353 
Q 1863 2528 1708 2628 
Q 1553 2728 1384 2728 
Q 1125 2728 920 2526 
Q 716 2325 681 1966 
z
" transform="scale(0.015625)"/>
       <path id="TimesNewRomanPSMT-47" d="M 2222 322 
Q 2013 103 1813 7 
Q 1613 -88 1381 -88 
Q 913 -88 563 304 
Q 213 697 213 1313 
Q 213 1928 600 2439 
Q 988 2950 1597 2950 
Q 1975 2950 2222 2709 
L 2222 3238 
Q 2222 3728 2198 3840 
Q 2175 3953 2125 3993 
Q 2075 4034 2000 4034 
Q 1919 4034 1784 3984 
L 1744 4094 
L 2597 4444 
L 2738 4444 
L 2738 1134 
Q 2738 631 2761 520 
Q 2784 409 2836 365 
Q 2888 322 2956 322 
Q 3041 322 3181 375 
L 3216 266 
L 2366 -88 
L 2222 -88 
L 2222 322 
z
M 2222 541 
L 2222 2016 
Q 2203 2228 2109 2403 
Q 2016 2578 1861 2667 
Q 1706 2756 1559 2756 
Q 1284 2756 1069 2509 
Q 784 2184 784 1559 
Q 784 928 1059 592 
Q 1334 256 1672 256 
Q 1956 256 2222 541 
z
" transform="scale(0.015625)"/>
      </defs>
      <use xlink:href="#TimesNewRomanPSMT-24"/>
      <use xlink:href="#TimesNewRomanPSMT-50" transform="translate(72.21875 0)"/>
      <use xlink:href="#TimesNewRomanPSMT-48" transform="translate(150 0)"/>
      <use xlink:href="#TimesNewRomanPSMT-51" transform="translate(194.390625 0)"/>
      <use xlink:href="#TimesNewRomanPSMT-47" transform="translate(244.390625 0)"/>
      <use xlink:href="#TimesNewRomanPSMT-48" transform="translate(294.390625 0)"/>
      <use xlink:href="#TimesNewRomanPSMT-47" transform="translate(338.78125 0)"/>
     </g>
    </g>
   </g>
  </g>
  <g id="text_16">
   <!-- 字 -->
   <g style="opacity: 0.001" transform="translate(8.499918 187.509197) scale(0.01 -0.01)">
    <defs>
     <path id="STSongti-SC-Black-73c" d="M 3622 1485 
L 3622 -32 
Q 3622 -314 3507 -461 
Q 3392 -608 3104 -685 
Q 2816 -762 2733 -762 
Q 2650 -762 2608 -723 
Q 2566 -685 2560 -627 
Q 2541 -358 2374 -243 
Q 2208 -128 1843 -38 
Q 1741 -13 1741 12 
Q 1741 38 1830 38 
L 2278 26 
Q 2624 26 2720 86 
Q 2816 147 2816 333 
L 2816 1485 
L 691 1485 
Q 563 1485 461 1414 
L 294 1715 
Q 448 1696 614 1696 
L 2816 1696 
L 2816 1914 
Q 2816 2138 2803 2483 
Q 3130 2426 3456 2336 
Q 3526 2477 3638 2659 
Q 3750 2842 3827 2995 
L 1882 2995 
Q 1754 2995 1651 2925 
L 1485 3226 
Q 1638 3206 1805 3206 
L 3827 3206 
Q 3955 3424 3990 3491 
Q 4026 3558 4070 3558 
Q 4141 3558 4666 3258 
Q 4819 3629 4909 3949 
L 1472 3949 
Q 1510 3584 1315 3360 
Q 1120 3136 851 3136 
Q 678 3136 553 3235 
Q 429 3334 429 3468 
Q 429 3603 489 3708 
Q 550 3814 646 3878 
Q 915 4045 995 4150 
Q 1075 4256 1075 4422 
L 1056 4666 
Q 1056 4710 1075 4710 
Q 1107 4710 1232 4540 
Q 1357 4371 1427 4160 
L 2963 4160 
Q 2912 4192 2870 4243 
Q 2829 4294 2809 4352 
Q 2790 4410 2790 4461 
L 2790 4557 
Q 2790 4941 2426 5133 
Q 2310 5197 2310 5216 
Q 2310 5235 2464 5235 
Q 3059 5235 3404 5078 
Q 3750 4922 3750 4614 
Q 3750 4474 3664 4352 
Q 3578 4230 3424 4160 
L 4806 4160 
Q 5024 4506 5059 4541 
Q 5094 4576 5133 4576 
Q 5210 4576 5629 4233 
Q 6048 3891 6048 3747 
Q 6048 3603 5856 3622 
Q 5747 3635 5651 3635 
Q 5094 3635 4742 3213 
Q 4941 3104 5037 3030 
Q 5133 2957 5133 2906 
Q 5133 2797 4909 2797 
Q 4518 2797 4265 2672 
Q 4013 2547 3648 2285 
Q 3757 2246 3757 2185 
Q 3757 2125 3622 2042 
L 3622 1696 
L 4934 1696 
Q 5120 2022 5181 2147 
Q 5242 2272 5306 2272 
Q 5370 2272 5629 2073 
Q 5888 1875 6041 1744 
Q 6195 1613 6195 1549 
Q 6195 1485 6067 1485 
L 3622 1485 
z
" transform="scale(0.015625)"/>
    </defs>
    <use xlink:href="#STSongti-SC-Black-73c"/>
   </g>
  </g>
 </g>
 <defs>
  <clipPath id="paed3a2e57f">
   <rect x="52.720391" y="24.233607" width="289.133858" height="122.456693"/>
  </clipPath>
 </defs>
</svg>
