<?xml version="1.0" encoding="utf-8" standalone="no"?>
<!DOCTYPE svg PUBLIC "-//W3C//DTD SVG 1.1//EN"
  "http://www.w3.org/Graphics/SVG/1.1/DTD/svg11.dtd">
<svg xmlns:xlink="http://www.w3.org/1999/xlink" width="389.423622pt" height="196.260358pt" viewBox="0 0 389.423622 196.260358" xmlns="http://www.w3.org/2000/svg" version="1.1">
 <metadata>
  <rdf:RDF xmlns:dc="http://purl.org/dc/elements/1.1/" xmlns:cc="http://creativecommons.org/ns#" xmlns:rdf="http://www.w3.org/1999/02/22-rdf-syntax-ns#">
   <cc:Work>
    <dc:type rdf:resource="http://purl.org/dc/dcmitype/StillImage"/>
    <dc:date>2026-07-13T01:23:47.392288</dc:date>
    <dc:format>image/svg+xml</dc:format>
    <dc:creator>
     <cc:Agent>
      <dc:title>Matplotlib v3.11.0, https://matplotlib.org/</dc:title>
     </cc:Agent>
    </dc:creator>
   </cc:Work>
  </rdf:RDF>
 </metadata>
 <defs>
  <style type="text/css">*{stroke-linejoin: round; stroke-linecap: butt}</style>
 </defs>
 <g id="figure_1">
  <g id="patch_1">
   <path d="M 0 196.260358 
L 389.423622 196.260358 
L 389.423622 0 
L 0 0 
L 0 196.260358 
z
" style="fill: none"/>
  </g>
  <g id="axes_1">
   <g id="patch_2">
    <path d="M 56.948031 147.405827 
L 382.223622 147.405827 
L 382.223622 24.949134 
L 56.948031 24.949134 
L 56.948031 147.405827 
z
" style="fill: none"/>
   </g>
   <g id="matplotlib.axis_1">
    <g id="xtick_1">
     <g id="line2d_1">
      <defs>
       <path id="m95293441d7" d="M 0 0 
L 0 3 
" style="stroke: #000000; stroke-width: 0.65"/>
      </defs>
      <g>
       <use xlink:href="#m95293441d7" x="71.733286" y="147.405827" style="stroke: #000000; stroke-width: 0.65"/>
      </g>
     </g>
     <g id="text_1">
      <!-- 0 -->
      <g transform="translate(69.608286 157.799381) scale(0.085 -0.085)">
       <defs>
        <path id="TimesNewRomanPSMT-13" d="M 231 2094 
Q 231 2819 450 3342 
Q 669 3866 1031 4122 
Q 1313 4325 1613 4325 
Q 2100 4325 2488 3828 
Q 2972 3213 2972 2159 
Q 2972 1422 2759 906 
Q 2547 391 2217 158 
Q 1888 -75 1581 -75 
Q 975 -75 572 641 
Q 231 1244 231 2094 
z
M 844 2016 
Q 844 1141 1059 588 
Q 1238 122 1591 122 
Q 1759 122 1940 273 
Q 2122 425 2216 781 
Q 2359 1319 2359 2297 
Q 2359 3022 2209 3506 
Q 2097 3866 1919 4016 
Q 1791 4119 1609 4119 
Q 1397 4119 1231 3928 
Q 1006 3669 925 3112 
Q 844 2556 844 2016 
z
" transform="scale(0.015625)"/>
       </defs>
       <use xlink:href="#TimesNewRomanPSMT-13"/>
      </g>
     </g>
    </g>
    <g id="xtick_2">
     <g id="line2d_2">
      <g>
       <use xlink:href="#m95293441d7" x="124.537765" y="147.405827" style="stroke: #000000; stroke-width: 0.65"/>
      </g>
     </g>
     <g id="text_2">
      <!-- 5 -->
      <g transform="translate(122.412765 157.799381) scale(0.085 -0.085)">
       <defs>
        <path id="TimesNewRomanPSMT-18" d="M 2778 4238 
L 2534 3706 
L 1259 3706 
L 981 3138 
Q 1809 3016 2294 2522 
Q 2709 2097 2709 1522 
Q 2709 1188 2573 903 
Q 2438 619 2231 419 
Q 2025 219 1772 97 
Q 1413 -75 1034 -75 
Q 653 -75 479 54 
Q 306 184 306 341 
Q 306 428 378 495 
Q 450 563 559 563 
Q 641 563 702 538 
Q 763 513 909 409 
Q 1144 247 1384 247 
Q 1750 247 2026 523 
Q 2303 800 2303 1197 
Q 2303 1581 2056 1914 
Q 1809 2247 1375 2428 
Q 1034 2569 447 2591 
L 1259 4238 
L 2778 4238 
z
" transform="scale(0.015625)"/>
       </defs>
       <use xlink:href="#TimesNewRomanPSMT-18"/>
      </g>
     </g>
    </g>
    <g id="xtick_3">
     <g id="line2d_3">
      <g>
       <use xlink:href="#m95293441d7" x="177.342244" y="147.405827" style="stroke: #000000; stroke-width: 0.65"/>
      </g>
     </g>
     <g id="text_3">
      <!-- 10 -->
      <g transform="translate(173.092244 157.799381) scale(0.085 -0.085)">
       <defs>
        <path id="TimesNewRomanPSMT-14" d="M 750 3822 
L 1781 4325 
L 1884 4325 
L 1884 747 
Q 1884 391 1914 303 
Q 1944 216 2037 169 
Q 2131 122 2419 116 
L 2419 0 
L 825 0 
L 825 116 
Q 1125 122 1212 167 
Q 1300 213 1334 289 
Q 1369 366 1369 747 
L 1369 3034 
Q 1369 3497 1338 3628 
Q 1316 3728 1258 3775 
Q 1200 3822 1119 3822 
Q 1003 3822 797 3725 
L 750 3822 
z
" transform="scale(0.015625)"/>
       </defs>
       <use xlink:href="#TimesNewRomanPSMT-14"/>
       <use xlink:href="#TimesNewRomanPSMT-13" transform="translate(50 0)"/>
      </g>
     </g>
    </g>
    <g id="xtick_4">
     <g id="line2d_4">
      <g>
       <use xlink:href="#m95293441d7" x="230.146723" y="147.405827" style="stroke: #000000; stroke-width: 0.65"/>
      </g>
     </g>
     <g id="text_4">
      <!-- 15 -->
      <g transform="translate(225.896723 157.799381) scale(0.085 -0.085)">
       <use xlink:href="#TimesNewRomanPSMT-14"/>
       <use xlink:href="#TimesNewRomanPSMT-18" transform="translate(50 0)"/>
      </g>
     </g>
    </g>
    <g id="xtick_5">
     <g id="line2d_5">
      <g>
       <use xlink:href="#m95293441d7" x="282.951202" y="147.405827" style="stroke: #000000; stroke-width: 0.65"/>
      </g>
     </g>
     <g id="text_5">
      <!-- 20 -->
      <g transform="translate(278.701202 157.799381) scale(0.085 -0.085)">
       <defs>
        <path id="TimesNewRomanPSMT-15" d="M 2934 816 
L 2638 0 
L 138 0 
L 138 116 
Q 1241 1122 1691 1759 
Q 2141 2397 2141 2925 
Q 2141 3328 1894 3587 
Q 1647 3847 1303 3847 
Q 991 3847 742 3664 
Q 494 3481 375 3128 
L 259 3128 
Q 338 3706 661 4015 
Q 984 4325 1469 4325 
Q 1984 4325 2329 3994 
Q 2675 3663 2675 3213 
Q 2675 2891 2525 2569 
Q 2294 2063 1775 1497 
Q 997 647 803 472 
L 1909 472 
Q 2247 472 2383 497 
Q 2519 522 2628 598 
Q 2738 675 2819 816 
L 2934 816 
z
" transform="scale(0.015625)"/>
       </defs>
       <use xlink:href="#TimesNewRomanPSMT-15"/>
       <use xlink:href="#TimesNewRomanPSMT-13" transform="translate(50 0)"/>
      </g>
     </g>
    </g>
    <g id="xtick_6">
     <g id="line2d_6">
      <g>
       <use xlink:href="#m95293441d7" x="335.755681" y="147.405827" style="stroke: #000000; stroke-width: 0.65"/>
      </g>
     </g>
     <g id="text_6">
      <!-- 25 -->
      <g transform="translate(331.505681 157.799381) scale(0.085 -0.085)">
       <use xlink:href="#TimesNewRomanPSMT-15"/>
       <use xlink:href="#TimesNewRomanPSMT-18" transform="translate(50 0)"/>
      </g>
     </g>
    </g>
   </g>
   <g id="matplotlib.axis_2">
    <g id="ytick_1">
     <g id="line2d_7">
      <defs>
       <path id="m998e1d340d" d="M 0 0 
L -3 0 
" style="stroke: #000000; stroke-width: 0.65"/>
      </defs>
      <g>
       <use xlink:href="#m998e1d340d" x="56.948031" y="135.644423" style="stroke: #000000; stroke-width: 0.65"/>
      </g>
     </g>
     <g id="text_7">
      <!-- 10 -->
      <g transform="translate(43.948031 138.5912) scale(0.085 -0.085)">
       <use xlink:href="#TimesNewRomanPSMT-14"/>
       <use xlink:href="#TimesNewRomanPSMT-13" transform="translate(50 0)"/>
      </g>
     </g>
    </g>
    <g id="ytick_2">
     <g id="line2d_8">
      <g>
       <use xlink:href="#m998e1d340d" x="56.948031" y="116.72781" style="stroke: #000000; stroke-width: 0.65"/>
      </g>
     </g>
     <g id="text_8">
      <!-- 12 -->
      <g transform="translate(43.948031 119.674587) scale(0.085 -0.085)">
       <use xlink:href="#TimesNewRomanPSMT-14"/>
       <use xlink:href="#TimesNewRomanPSMT-15" transform="translate(50 0)"/>
      </g>
     </g>
    </g>
    <g id="ytick_3">
     <g id="line2d_9">
      <g>
       <use xlink:href="#m998e1d340d" x="56.948031" y="97.811197" style="stroke: #000000; stroke-width: 0.65"/>
      </g>
     </g>
     <g id="text_9">
      <!-- 14 -->
      <g transform="translate(43.948031 100.757975) scale(0.085 -0.085)">
       <defs>
        <path id="TimesNewRomanPSMT-17" d="M 2978 1563 
L 2978 1119 
L 2409 1119 
L 2409 0 
L 1894 0 
L 1894 1119 
L 100 1119 
L 100 1519 
L 2066 4325 
L 2409 4325 
L 2409 1563 
L 2978 1563 
z
M 1894 1563 
L 1894 3666 
L 406 1563 
L 1894 1563 
z
" transform="scale(0.015625)"/>
       </defs>
       <use xlink:href="#TimesNewRomanPSMT-14"/>
       <use xlink:href="#TimesNewRomanPSMT-17" transform="translate(50 0)"/>
      </g>
     </g>
    </g>
    <g id="ytick_4">
     <g id="line2d_10">
      <g>
       <use xlink:href="#m998e1d340d" x="56.948031" y="78.894584" style="stroke: #000000; stroke-width: 0.65"/>
      </g>
     </g>
     <g id="text_10">
      <!-- 16 -->
      <g transform="translate(43.948031 81.841362) scale(0.085 -0.085)">
       <defs>
        <path id="TimesNewRomanPSMT-19" d="M 2869 4325 
L 2869 4209 
Q 2456 4169 2195 4045 
Q 1934 3922 1679 3669 
Q 1425 3416 1258 3105 
Q 1091 2794 978 2366 
Q 1428 2675 1881 2675 
Q 2316 2675 2634 2325 
Q 2953 1975 2953 1425 
Q 2953 894 2631 456 
Q 2244 -75 1606 -75 
Q 1172 -75 869 213 
Q 275 772 275 1663 
Q 275 2231 503 2743 
Q 731 3256 1154 3653 
Q 1578 4050 1965 4187 
Q 2353 4325 2688 4325 
L 2869 4325 
z
M 925 2138 
Q 869 1716 869 1456 
Q 869 1156 980 804 
Q 1091 453 1309 247 
Q 1469 100 1697 100 
Q 1969 100 2183 356 
Q 2397 613 2397 1088 
Q 2397 1622 2184 2012 
Q 1972 2403 1581 2403 
Q 1463 2403 1327 2353 
Q 1191 2303 925 2138 
z
" transform="scale(0.015625)"/>
       </defs>
       <use xlink:href="#TimesNewRomanPSMT-14"/>
       <use xlink:href="#TimesNewRomanPSMT-19" transform="translate(50 0)"/>
      </g>
     </g>
    </g>
    <g id="ytick_5">
     <g id="line2d_11">
      <g>
       <use xlink:href="#m998e1d340d" x="56.948031" y="59.977972" style="stroke: #000000; stroke-width: 0.65"/>
      </g>
     </g>
     <g id="text_11">
      <!-- 18 -->
      <g transform="translate(43.948031 62.924749) scale(0.085 -0.085)">
       <defs>
        <path id="TimesNewRomanPSMT-1b" d="M 1228 2134 
Q 725 2547 579 2797 
Q 434 3047 434 3316 
Q 434 3728 753 4026 
Q 1072 4325 1600 4325 
Q 2113 4325 2425 4047 
Q 2738 3769 2738 3413 
Q 2738 3175 2569 2928 
Q 2400 2681 1866 2347 
Q 2416 1922 2594 1678 
Q 2831 1359 2831 1006 
Q 2831 559 2490 242 
Q 2150 -75 1597 -75 
Q 994 -75 656 303 
Q 388 606 388 966 
Q 388 1247 577 1523 
Q 766 1800 1228 2134 
z
M 1719 2469 
Q 2094 2806 2194 3001 
Q 2294 3197 2294 3444 
Q 2294 3772 2109 3958 
Q 1925 4144 1606 4144 
Q 1288 4144 1088 3959 
Q 888 3775 888 3528 
Q 888 3366 970 3203 
Q 1053 3041 1206 2894 
L 1719 2469 
z
M 1375 2016 
Q 1116 1797 991 1539 
Q 866 1281 866 981 
Q 866 578 1086 336 
Q 1306 94 1647 94 
Q 1984 94 2187 284 
Q 2391 475 2391 747 
Q 2391 972 2272 1150 
Q 2050 1481 1375 2016 
z
" transform="scale(0.015625)"/>
       </defs>
       <use xlink:href="#TimesNewRomanPSMT-14"/>
       <use xlink:href="#TimesNewRomanPSMT-1b" transform="translate(50 0)"/>
      </g>
     </g>
    </g>
    <g id="ytick_6">
     <g id="line2d_12">
      <g>
       <use xlink:href="#m998e1d340d" x="56.948031" y="41.061359" style="stroke: #000000; stroke-width: 0.65"/>
      </g>
     </g>
     <g id="text_12">
      <!-- 20 -->
      <g transform="translate(43.948031 44.008136) scale(0.085 -0.085)">
       <use xlink:href="#TimesNewRomanPSMT-15"/>
       <use xlink:href="#TimesNewRomanPSMT-13" transform="translate(50 0)"/>
      </g>
     </g>
    </g>
   </g>
   <g id="line2d_13">
    <path d="M 71.733286 116.831851 
L 113.976869 110.315078 
L 156.220452 93.602251 
L 198.464035 75.811177 
L 240.707618 61.992591 
L 282.951202 50.916914 
L 325.194785 45.062222 
L 367.438368 30.515347 
" clip-path="url(#p6e56c716fb)" style="fill: none; stroke: #0072b2; stroke-width: 1.15; stroke-linecap: square"/>
    <defs>
     <path id="m7574590d3d" d="M 0 1.6 
C 0.424325 1.6 0.831328 1.431414 1.131371 1.131371 
C 1.431414 0.831328 1.6 0.424325 1.6 0 
C 1.6 -0.424325 1.431414 -0.831328 1.131371 -1.131371 
C 0.831328 -1.431414 0.424325 -1.6 0 -1.6 
C -0.424325 -1.6 -0.831328 -1.431414 -1.131371 -1.131371 
C -1.431414 -0.831328 -1.6 -0.424325 -1.6 0 
C -1.6 0.424325 -1.431414 0.831328 -1.131371 1.131371 
C -0.831328 1.431414 -0.424325 1.6 0 1.6 
z
" style="stroke: #0072b2"/>
    </defs>
    <g clip-path="url(#p6e56c716fb)">
     <use xlink:href="#m7574590d3d" x="71.733286" y="116.831851" style="fill: #0072b2; stroke: #0072b2"/>
     <use xlink:href="#m7574590d3d" x="113.976869" y="110.315078" style="fill: #0072b2; stroke: #0072b2"/>
     <use xlink:href="#m7574590d3d" x="156.220452" y="93.602251" style="fill: #0072b2; stroke: #0072b2"/>
     <use xlink:href="#m7574590d3d" x="198.464035" y="75.811177" style="fill: #0072b2; stroke: #0072b2"/>
     <use xlink:href="#m7574590d3d" x="240.707618" y="61.992591" style="fill: #0072b2; stroke: #0072b2"/>
     <use xlink:href="#m7574590d3d" x="282.951202" y="50.916914" style="fill: #0072b2; stroke: #0072b2"/>
     <use xlink:href="#m7574590d3d" x="325.194785" y="45.062222" style="fill: #0072b2; stroke: #0072b2"/>
     <use xlink:href="#m7574590d3d" x="367.438368" y="30.515347" style="fill: #0072b2; stroke: #0072b2"/>
    </g>
   </g>
   <g id="line2d_14">
    <path d="M 71.733286 132.617765 
L 113.976869 114.372692 
L 156.220452 115.432022 
L 198.464035 112.509405 
L 240.707618 83.935862 
L 282.951202 84.683068 
L 325.194785 78.922959 
L 367.438368 55.958191 
" clip-path="url(#p6e56c716fb)" style="fill: none; stroke: #d55e00; stroke-width: 1.15; stroke-linecap: square"/>
    <defs>
     <path id="m6291e89571" d="M 0 1.6 
C 0.424325 1.6 0.831328 1.431414 1.131371 1.131371 
C 1.431414 0.831328 1.6 0.424325 1.6 0 
C 1.6 -0.424325 1.431414 -0.831328 1.131371 -1.131371 
C 0.831328 -1.431414 0.424325 -1.6 0 -1.6 
C -0.424325 -1.6 -0.831328 -1.431414 -1.131371 -1.131371 
C -1.431414 -0.831328 -1.6 -0.424325 -1.6 0 
C -1.6 0.424325 -1.431414 0.831328 -1.131371 1.131371 
C -0.831328 1.431414 -0.424325 1.6 0 1.6 
z
" style="stroke: #d55e00"/>
    </defs>
    <g clip-path="url(#p6e56c716fb)">
     <use xlink:href="#m6291e89571" x="71.733286" y="132.617765" style="fill: #d55e00; stroke: #d55e00"/>
     <use xlink:href="#m6291e89571" x="113.976869" y="114.372692" style="fill: #d55e00; stroke: #d55e00"/>
     <use xlink:href="#m6291e89571" x="156.220452" y="115.432022" style="fill: #d55e00; stroke: #d55e00"/>
     <use xlink:href="#m6291e89571" x="198.464035" y="112.509405" style="fill: #d55e00; stroke: #d55e00"/>
     <use xlink:href="#m6291e89571" x="240.707618" y="83.935862" style="fill: #d55e00; stroke: #d55e00"/>
     <use xlink:href="#m6291e89571" x="282.951202" y="84.683068" style="fill: #d55e00; stroke: #d55e00"/>
     <use xlink:href="#m6291e89571" x="325.194785" y="78.922959" style="fill: #d55e00; stroke: #d55e00"/>
     <use xlink:href="#m6291e89571" x="367.438368" y="55.958191" style="fill: #d55e00; stroke: #d55e00"/>
    </g>
   </g>
   <g id="line2d_15">
    <path d="M 71.733286 141.839613 
L 113.976869 132.570473 
L 156.220452 119.082928 
L 198.464035 112.689113 
L 240.707618 121.646129 
L 282.951202 95.711453 
L 325.194785 89.336555 
L 367.438368 84.787109 
" clip-path="url(#p6e56c716fb)" style="fill: none; stroke: #009e73; stroke-width: 1.15; stroke-linecap: square"/>
    <defs>
     <path id="m5227856c12" d="M 0 1.6 
C 0.424325 1.6 0.831328 1.431414 1.131371 1.131371 
C 1.431414 0.831328 1.6 0.424325 1.6 0 
C 1.6 -0.424325 1.431414 -0.831328 1.131371 -1.131371 
C 0.831328 -1.431414 0.424325 -1.6 0 -1.6 
C -0.424325 -1.6 -0.831328 -1.431414 -1.131371 -1.131371 
C -1.431414 -0.831328 -1.6 -0.424325 -1.6 0 
C -1.6 0.424325 -1.431414 0.831328 -1.131371 1.131371 
C -0.831328 1.431414 -0.424325 1.6 0 1.6 
z
" style="stroke: #009e73"/>
    </defs>
    <g clip-path="url(#p6e56c716fb)">
     <use xlink:href="#m5227856c12" x="71.733286" y="141.839613" style="fill: #009e73; stroke: #009e73"/>
     <use xlink:href="#m5227856c12" x="113.976869" y="132.570473" style="fill: #009e73; stroke: #009e73"/>
     <use xlink:href="#m5227856c12" x="156.220452" y="119.082928" style="fill: #009e73; stroke: #009e73"/>
     <use xlink:href="#m5227856c12" x="198.464035" y="112.689113" style="fill: #009e73; stroke: #009e73"/>
     <use xlink:href="#m5227856c12" x="240.707618" y="121.646129" style="fill: #009e73; stroke: #009e73"/>
     <use xlink:href="#m5227856c12" x="282.951202" y="95.711453" style="fill: #009e73; stroke: #009e73"/>
     <use xlink:href="#m5227856c12" x="325.194785" y="89.336555" style="fill: #009e73; stroke: #009e73"/>
     <use xlink:href="#m5227856c12" x="367.438368" y="84.787109" style="fill: #009e73; stroke: #009e73"/>
    </g>
   </g>
   <g id="patch_3">
    <path d="M 56.948031 147.405827 
L 56.948031 24.949134 
" style="fill: none; stroke: #000000; stroke-width: 0.65; stroke-linejoin: miter; stroke-linecap: square"/>
   </g>
   <g id="patch_4">
    <path d="M 56.948031 147.405827 
L 382.223622 147.405827 
" style="fill: none; stroke: #000000; stroke-width: 0.65; stroke-linejoin: miter; stroke-linecap: square"/>
   </g>
   <g id="patch_5">
    <path d="M 212.025475 178.350358 
L 213.725475 178.350358 
Q 213.903444 177.983796 213.967194 177.894811 
Q 214.030944 177.805827 214.09071 177.805827 
Q 214.192975 177.805827 214.732194 178.180358 
Q 215.271413 178.553561 215.271413 178.673092 
Q 215.271413 178.791296 214.931413 178.936061 
L 214.931413 181.877858 
Q 214.931413 182.276296 214.94071 182.430358 
L 214.948678 182.718561 
Q 214.948678 182.795592 214.867663 182.855358 
Q 214.787975 182.913796 214.60071 182.973561 
Q 214.413444 183.033327 214.230163 183.033327 
Q 214.04821 183.033327 213.979147 182.957624 
Q 213.911413 182.880592 213.911413 182.786296 
L 213.911413 178.630592 
L 212.118444 178.630592 
Q 212.067975 178.698327 211.982975 178.740827 
L 211.982975 182.557858 
Q 211.982975 182.786296 211.935163 182.859342 
Q 211.888678 182.931061 211.705397 182.994811 
Q 211.523444 183.058561 211.340163 183.058561 
Q 211.15821 183.058561 211.09446 183.016061 
Q 211.03071 182.973561 211.03071 182.936374 
Q 211.03071 182.897858 211.046647 182.549889 
Q 211.063913 182.200592 211.063913 181.741061 
L 211.063913 179.225592 
Q 211.063913 178.418092 211.03071 177.967858 
Q 211.58321 178.128561 212.025475 178.350358 
z
M 209.313444 181.086296 
Q 209.440944 180.262858 209.491413 179.258796 
L 208.14071 179.258796 
Q 207.97071 179.258796 207.833913 179.353092 
L 207.605475 178.953327 
Q 207.808678 178.978561 208.030475 178.978561 
L 209.406413 178.978561 
Q 209.576413 178.520358 209.71321 178.520358 
Q 209.79821 178.520358 210.175397 178.736842 
Q 210.553913 178.953327 210.758444 179.111374 
Q 210.962975 179.268092 210.962975 179.362389 
Q 210.962975 179.455358 210.762428 179.493874 
Q 210.56321 179.531061 210.486178 179.930827 
Q 210.256413 181.163327 210.01071 181.860592 
Q 210.426413 182.361296 210.660163 182.795592 
Q 210.893913 183.228561 210.893913 183.526061 
Q 210.893913 183.823561 210.706647 184.045358 
Q 210.52071 184.265827 210.256413 184.265827 
Q 209.788913 184.265827 209.763678 183.636296 
Q 209.75571 183.237858 209.602975 182.761061 
Q 209.220475 183.423796 208.52321 184.032077 
Q 207.825944 184.640358 207.723678 184.640358 
Q 207.698444 184.640358 207.698444 184.601842 
Q 207.698444 184.563327 207.775475 184.470358 
Q 208.82071 183.220592 209.168678 181.783561 
Q 208.718444 180.968092 207.88571 180.041061 
Q 207.84321 179.990592 207.84321 179.948092 
Q 207.84321 179.905592 207.893678 179.905592 
Q 207.918913 179.905592 208.071647 180.007858 
Q 208.22571 180.108796 208.612194 180.436842 
Q 208.998678 180.763561 209.313444 181.086296 
z
M 212.670944 183.653561 
Q 212.271178 184.240592 211.599147 184.696139 
Q 210.928444 185.150358 210.217897 185.405358 
Q 209.508678 185.660358 209.410397 185.660358 
Q 209.313444 185.660358 209.313444 185.608561 
Q 209.313444 185.558092 209.41571 185.515592 
Q 210.60571 184.996296 211.314928 184.261842 
Q 212.025475 183.526061 212.24196 182.770358 
Q 212.458444 182.013327 212.458444 180.373092 
Q 212.458444 179.853796 212.441178 179.200358 
Q 212.968444 179.242858 213.248678 179.306608 
Q 213.528913 179.370358 213.588678 179.420827 
Q 213.648444 179.471296 213.648444 179.540358 
Q 213.648444 179.608092 213.53821 179.650592 
Q 213.470475 179.675827 213.45321 179.990592 
Q 213.358913 181.503327 213.28321 181.928327 
Q 213.555475 182.013327 213.704225 182.043874 
Q 213.852975 182.073092 213.852975 182.167389 
Q 213.852975 182.260358 213.631178 182.387858 
L 213.631178 184.198092 
Q 213.631178 184.418561 213.720163 184.487624 
Q 213.810475 184.555358 214.077428 184.555358 
Q 214.34571 184.555358 214.489147 184.466374 
Q 214.633913 184.376061 214.748131 184.109108 
Q 214.863678 183.840827 215.06821 183.168796 
Q 215.093444 183.093092 215.147897 183.093092 
Q 215.203678 183.093092 215.186413 183.195358 
Q 215.143913 183.483561 215.143913 183.721296 
Q 215.143913 184.410592 215.467975 184.571296 
Q 215.680475 184.673561 215.680475 184.806374 
Q 215.680475 184.937858 215.36571 185.200827 
Q 215.050944 185.463796 214.022975 185.463796 
Q 213.45321 185.463796 213.188913 185.38278 
Q 212.925944 185.303092 212.798444 185.090592 
Q 212.670944 184.878092 212.670944 184.503561 
L 212.670944 183.653561 
z
M 221.65571 184.563327 
Q 221.688913 184.860827 221.532194 185.052077 
Q 221.375475 185.243327 221.141725 185.243327 
Q 220.907975 185.243327 220.767194 185.119811 
Q 220.626413 184.996296 220.618444 184.801061 
Q 220.601178 184.248561 220.469694 183.998874 
Q 220.33821 183.747858 220.091178 183.603092 
Q 219.733913 184.342858 219.287663 184.733327 
Q 218.841413 185.123796 218.221178 185.344264 
Q 217.600944 185.566061 217.498678 185.566061 
Q 217.438913 185.566061 217.438913 185.53153 
Q 217.438913 185.498327 217.523913 185.455827 
Q 218.263678 185.056061 218.696647 184.619108 
Q 219.130944 184.180827 219.347428 183.632311 
Q 219.563913 183.083796 219.598444 182.488796 
Q 219.632975 181.893796 219.61571 179.285358 
Q 220.12571 179.327858 220.33821 179.374342 
Q 220.55071 179.420827 220.55071 179.480592 
Q 220.55071 179.540358 220.498913 179.590827 
Q 220.448444 179.641296 220.435163 179.710358 
Q 220.42321 179.778092 220.42321 179.981296 
L 220.431178 181.061061 
Q 220.431178 182.081061 220.371413 182.596374 
Q 220.312975 183.110358 220.150944 183.466296 
Q 221.493678 183.806296 221.638444 184.503561 
Q 222.020944 184.520827 222.360944 184.520827 
Q 222.700944 184.520827 222.832428 184.439811 
Q 222.963913 184.358796 222.963913 184.113092 
L 222.963913 178.613327 
Q 222.963913 178.188327 222.947975 177.856296 
Q 223.508444 177.898796 223.788678 177.958561 
Q 224.068913 178.018327 224.068913 178.103327 
Q 224.068913 178.188327 223.86571 178.290592 
L 223.86571 184.631061 
Q 223.86571 185.022858 223.724928 185.214108 
Q 223.585475 185.405358 223.232194 185.498327 
Q 222.878913 185.591296 222.743444 185.591296 
Q 222.513678 185.591296 222.488444 185.285827 
Q 222.46321 184.980358 222.279928 184.814342 
Q 222.097975 184.648327 221.65571 184.563327 
z
M 217.991413 178.910827 
Q 217.991413 179.165827 217.829381 179.349108 
Q 217.668678 179.531061 217.40571 179.531061 
Q 217.295475 179.531061 217.19321 179.472624 
Q 217.090944 179.412858 217.031178 179.319889 
Q 216.971413 179.225592 216.971413 179.123327 
L 216.98071 178.918796 
Q 216.98071 178.630592 216.903678 178.469889 
Q 216.827975 178.307858 216.572975 178.153796 
Q 216.503913 178.111296 216.503913 178.078092 
Q 216.503913 178.043561 216.631413 178.043561 
Q 217.23571 178.043561 217.612897 178.290592 
Q 217.991413 178.536296 217.991413 178.910827 
z
M 219.326178 178.443327 
L 220.541413 178.443327 
Q 220.63571 178.281296 220.72071 178.163092 
Q 220.80571 178.043561 220.865475 178.043561 
Q 220.958444 178.043561 221.331647 178.290592 
Q 221.706178 178.536296 221.706178 178.638561 
Q 221.706178 178.740827 221.468444 178.851061 
L 221.468444 182.140827 
Q 221.468444 182.540592 221.476413 182.693327 
L 221.48571 182.990827 
Q 221.48571 183.143561 221.221413 183.216608 
Q 220.958444 183.288327 220.745944 183.288327 
Q 220.660944 183.288327 220.660944 183.143561 
L 220.660944 178.723561 
L 219.420475 178.723561 
Q 219.40321 178.783327 219.308913 178.817858 
L 219.308913 183.110358 
Q 219.308913 183.178092 219.283678 183.212624 
Q 219.258444 183.245827 219.142897 183.301608 
Q 219.028678 183.356061 218.887897 183.382624 
Q 218.748444 183.407858 218.561178 183.407858 
Q 218.485475 183.407858 218.485475 183.338796 
L 218.501413 182.940358 
Q 218.518678 182.523327 218.518678 182.183327 
L 218.518678 178.978561 
Q 218.518678 178.477858 218.501413 178.120592 
Q 218.952975 178.222858 219.326178 178.443327 
z
M 222.598678 179.335827 
L 222.598678 182.480827 
L 222.615944 183.245827 
Q 222.615944 183.330827 222.581413 183.369342 
Q 222.54821 183.407858 222.364928 183.467624 
Q 222.182975 183.526061 221.918678 183.526061 
Q 221.808444 183.526061 221.808444 183.450358 
L 221.82571 183.126296 
Q 221.833678 182.743796 221.833678 182.421061 
L 221.833678 179.658561 
Q 221.833678 179.276061 221.816413 178.978561 
Q 222.326413 179.003796 222.534928 179.042311 
Q 222.743444 179.080827 222.743444 179.157858 
Q 222.743444 179.233561 222.598678 179.335827 
z
M 218.391178 179.208327 
L 217.711178 181.818092 
Q 217.53321 182.548561 217.53321 182.961608 
Q 217.53321 183.373327 217.685944 184.155592 
Q 217.728444 184.368092 217.728444 184.555358 
Q 217.728444 184.937858 217.545163 185.145046 
Q 217.36321 185.353561 217.040475 185.353561 
Q 216.495944 185.353561 216.495944 184.835592 
Q 216.495944 184.648327 216.614147 184.194108 
Q 216.733678 183.738561 216.733678 183.454342 
Q 216.733678 183.168796 216.596881 183.020046 
Q 216.461413 182.871296 216.096178 182.770358 
Q 216.028444 182.753092 216.028444 182.719889 
Q 216.028444 182.685358 216.210397 182.685358 
Q 216.393678 182.685358 216.571647 182.642858 
Q 216.750944 182.600358 216.890397 182.486139 
Q 217.031178 182.370592 217.128131 182.188639 
Q 217.226413 182.005358 217.396413 181.545827 
L 218.280944 179.148561 
Q 218.315475 179.038327 218.357975 179.038327 
Q 218.400475 179.038327 218.400475 179.102077 
Q 218.400475 179.165827 218.391178 179.208327 
z
M 217.550475 180.780827 
Q 217.550475 181.053092 217.388444 181.219108 
Q 217.226413 181.383796 217.031178 181.383796 
Q 216.835944 181.383796 216.699147 181.235046 
Q 216.563678 181.086296 216.575631 180.937546 
Q 216.588913 180.788796 216.588913 180.624108 
Q 216.588913 180.458092 216.525163 180.330592 
Q 216.461413 180.203092 216.25821 180.108796 
Q 216.198444 180.083561 216.198444 180.050358 
Q 216.198444 180.015827 216.351178 180.015827 
Q 216.928913 180.015827 217.239694 180.220358 
Q 217.550475 180.423561 217.550475 180.780827 
z
M 227.120944 178.706296 
L 229.917975 178.706296 
Q 229.993678 178.570827 230.111881 178.404811 
Q 230.231413 178.238796 230.260631 178.213561 
Q 230.291178 178.188327 230.337663 178.188327 
Q 230.385475 178.188327 230.613913 178.311842 
Q 230.843678 178.435358 231.145163 178.639889 
Q 231.447975 178.843092 231.506413 178.898874 
Q 231.566178 178.953327 231.566178 179.013092 
Q 231.566178 179.140592 231.235475 179.276061 
L 231.235475 184.146296 
Q 231.235475 184.538092 231.243444 184.690827 
L 231.251413 184.980358 
Q 231.251413 185.065358 231.195631 185.111842 
Q 231.141178 185.158327 230.860944 185.251296 
Q 230.58071 185.345592 230.223444 185.345592 
Q 230.163678 185.345592 230.142428 185.31903 
Q 230.121178 185.293796 230.121178 185.200827 
L 230.121178 184.503561 
L 227.043913 184.503561 
L 227.043913 185.098561 
Q 227.043913 185.192858 226.980163 185.230046 
Q 226.916413 185.268561 226.682663 185.353561 
Q 226.448913 185.438561 226.007975 185.438561 
Q 225.930944 185.438561 225.930944 185.370827 
L 225.94821 184.971061 
Q 225.965475 184.555358 225.965475 184.215358 
L 225.965475 179.157858 
Q 225.965475 178.638561 225.94821 178.273327 
Q 226.54321 178.443327 227.120944 178.706296 
z
M 227.043913 181.333327 
L 230.121178 181.333327 
L 230.121178 178.987858 
L 227.163444 178.987858 
Q 227.13821 179.038327 227.043913 179.063561 
L 227.043913 181.333327 
z
M 230.121178 181.613561 
L 227.043913 181.613561 
L 227.043913 184.223327 
L 230.121178 184.223327 
L 230.121178 181.613561 
z
"/>
   </g>
   <g id="patch_6">
    <path d="M 16.659125 111.280113 
Q 16.676391 111.144644 16.676391 110.957379 
L 16.676391 109.792613 
L 14.483656 109.792613 
Q 14.058656 109.792613 13.726625 109.809879 
Q 13.761156 109.299879 13.855453 108.86691 
Q 13.948422 108.432613 14.054672 108.432613 
Q 14.160922 108.432613 14.236625 108.730113 
L 16.676391 108.730113 
L 16.676391 108.161676 
Q 16.276625 107.93191 16.106625 107.808394 
Q 15.936625 107.684879 15.936625 107.617144 
Q 15.936625 107.50691 16.349672 107.069957 
Q 16.761391 106.631676 16.880922 106.631676 
Q 16.956625 106.631676 16.956625 106.792379 
L 16.956625 108.730113 
L 20.399125 108.730113 
Q 20.67936 108.730113 20.994125 108.722144 
L 21.283656 108.704879 
Q 21.411156 108.704879 21.461625 108.78191 
Q 21.513422 108.857613 21.577172 109.044879 
Q 21.640922 109.232144 21.640922 109.487144 
Q 21.640922 109.742144 21.619672 109.78066 
Q 21.598422 109.819176 21.48686 109.819176 
L 20.994125 109.80191 
Q 20.696625 109.792613 20.356625 109.792613 
L 16.956625 109.792613 
L 16.956625 110.855113 
Q 16.956625 111.025113 17.050922 111.16191 
L 16.838422 111.280113 
L 18.478656 111.280113 
Q 18.869125 111.280113 19.013891 111.272144 
L 19.286156 111.264176 
Q 19.36186 111.264176 19.42561 111.319957 
Q 19.48936 111.37441 19.566391 111.600191 
Q 19.643422 111.824644 19.643422 112.015894 
Q 19.643422 112.207144 19.614203 112.241676 
Q 19.583656 112.274879 19.48936 112.274879 
L 18.954125 112.274879 
L 18.954125 113.107613 
L 19.65936 113.107613 
Q 19.74436 113.107613 19.796156 113.146129 
Q 19.846625 113.184644 19.940922 113.41441 
Q 20.033891 113.644176 20.033891 113.86066 
Q 20.033891 114.077144 20.008656 114.107691 
Q 19.983422 114.13691 19.91436 114.13691 
L 19.600922 114.119644 
Q 19.286156 114.102379 18.793422 114.102379 
L 15.571391 114.102379 
Q 15.053422 114.102379 14.68686 114.119644 
Q 14.925922 113.422379 15.138422 112.997379 
L 15.138422 112.47941 
Q 15.095922 112.454176 14.900688 112.322691 
Q 14.704125 112.189879 14.661625 112.152691 
Q 14.619125 112.114176 14.619125 112.071676 
Q 14.619125 111.986676 14.840922 111.590894 
Q 15.061391 111.195113 15.142406 111.080894 
Q 15.223422 110.966676 15.299125 110.966676 
Q 15.426625 110.966676 15.511625 111.280113 
L 16.659125 111.280113 
z
M 18.673891 112.274879 
L 15.418656 112.274879 
L 15.418656 113.014644 
Q 15.45186 113.049176 15.478422 113.107613 
L 18.673891 113.107613 
L 18.673891 112.274879 
z
M 16.583422 100.544879 
L 15.673656 100.502379 
L 15.673656 102.177144 
Q 15.673656 102.355113 15.775922 102.509176 
L 15.36686 102.729644 
Q 15.393422 102.525113 15.393422 102.304644 
L 15.393422 100.485113 
L 14.534125 100.442613 
L 14.534125 102.339176 
Q 14.534125 102.517144 14.636391 102.669879 
L 14.228656 102.891676 
Q 14.253891 102.687144 14.253891 102.466676 
L 14.253891 100.612613 
Q 14.016156 100.477144 13.897953 100.384176 
Q 13.778422 100.289879 13.778422 100.210191 
Q 13.778422 100.129176 13.931156 99.882144 
L 14.245922 99.380113 
Q 14.406625 99.125113 14.508891 99.125113 
Q 14.611156 99.125113 14.738656 99.465113 
L 16.583422 99.584644 
L 16.583422 99.43191 
Q 16.396156 99.329644 16.214203 99.215426 
Q 16.030922 99.099879 16.005688 99.07066 
Q 15.979125 99.040113 15.979125 99.00691 
Q 15.979125 98.939176 16.170375 98.70941 
Q 16.361625 98.479644 16.498422 98.30566 
Q 16.633891 98.131676 16.749438 98.131676 
Q 16.863656 98.131676 16.863656 98.352144 
L 16.863656 100.511676 
Q 16.89686 100.519644 16.948656 100.562144 
Q 17.78936 100.426676 18.291391 100.102613 
Q 18.028422 99.949879 16.991156 99.60191 
Q 17.211625 99.194176 17.412172 98.913941 
Q 17.611391 98.632379 17.663188 98.585894 
Q 17.713656 98.53941 17.765453 98.53941 
Q 17.815922 98.53941 17.841156 98.705426 
Q 17.866391 98.870113 18.486625 99.98441 
Q 19.175922 99.51691 19.991391 98.19941 
Q 20.04186 98.11441 20.072406 98.11441 
Q 20.101625 98.11441 20.118891 98.207379 
Q 20.238422 98.75191 20.748422 99.074644 
Q 20.824125 99.125113 20.824125 99.17691 
Q 20.824125 99.279176 20.441625 99.584644 
Q 20.059125 99.890113 19.367172 100.19691 
Q 18.673891 100.502379 17.74686 100.639176 
L 20.535922 100.639176 
Q 21.164125 100.639176 21.334125 100.890191 
Q 21.504125 101.139879 21.504125 101.752144 
Q 21.504125 101.956676 21.334125 101.972613 
Q 21.01936 101.989879 20.874594 102.165191 
Q 20.731156 102.339176 20.603656 102.729644 
Q 20.578422 102.822613 20.539906 102.822613 
Q 20.501391 102.822613 20.501391 102.729644 
L 20.518656 102.211676 
Q 20.518656 101.81191 20.429672 101.709644 
Q 20.33936 101.607379 20.051156 101.607379 
L 18.793422 101.607379 
Q 18.954125 101.777379 20.59436 102.907613 
Q 20.688656 102.976676 20.688656 103.015191 
Q 20.688656 103.052379 20.671391 103.069644 
L 20.365922 103.349879 
Q 20.076391 103.622144 19.855922 103.774879 
Q 19.456156 102.91691 18.623422 101.607379 
L 16.863656 101.607379 
L 16.863656 102.83191 
Q 16.863656 103.00191 16.956625 103.137379 
Q 16.583422 103.34191 16.583422 103.349879 
Q 17.10936 103.792144 18.231625 104.846676 
Q 18.155922 103.571676 18.155922 103.21441 
Q 18.155922 103.08691 18.177172 103.08691 
Q 18.198422 103.08691 18.227641 103.146676 
Q 18.25686 103.205113 18.368422 103.444176 
L 18.818656 104.480113 
Q 19.175922 105.271676 19.235688 105.385894 
Q 19.294125 105.500113 19.294125 105.55191 
Q 19.294125 105.602379 19.226391 105.619644 
L 18.758891 105.76441 
Q 18.351156 105.89191 18.296703 105.89191 
Q 18.240922 105.89191 18.194438 105.841441 
Q 18.146625 105.789644 18.146625 105.72191 
Q 18.138656 105.517379 18.007172 105.322144 
Q 17.87436 105.12691 17.586156 104.947613 
L 16.81186 104.48941 
Q 16.89686 104.709879 17.32186 105.644879 
Q 17.339125 105.67941 17.339125 105.72191 
Q 17.339125 105.76441 17.280688 105.798941 
Q 17.220922 105.832144 16.782641 105.968941 
Q 16.34436 106.10441 16.272641 106.10441 
Q 16.200922 106.10441 16.200922 105.951676 
Q 16.200922 105.840113 16.115922 105.712613 
Q 16.030922 105.585113 15.911391 105.50941 
Q 15.79186 105.432379 14.848891 105.144176 
Q 14.449125 105.016676 13.778422 104.879879 
Q 13.96436 104.412379 14.151625 104.047144 
Q 14.338891 103.68191 14.390688 103.61816 
Q 14.441156 103.55441 14.504906 103.55441 
Q 14.568656 103.55441 14.615141 103.720426 
Q 14.661625 103.885113 14.929906 104.08566 
Q 15.19686 104.284879 16.370922 105.25441 
L 16.370922 104.251676 
Q 15.936625 104.012613 15.308422 103.792144 
Q 15.469125 103.452144 15.673656 103.137379 
Q 15.87686 102.822613 15.936625 102.772144 
Q 15.996391 102.721676 16.056156 102.721676 
Q 16.115922 102.721676 16.129203 102.85316 
Q 16.141156 102.984644 16.247406 103.06566 
Q 16.353656 103.146676 16.55686 103.332613 
Q 16.583422 103.146676 16.583422 102.934176 
L 16.583422 100.544879 
z
M 17.186391 103.197144 
Q 17.186391 103.069644 17.317875 102.648629 
Q 17.44936 102.227613 17.667172 102.015113 
Q 17.883656 101.802613 18.138656 101.802613 
Q 18.393656 101.802613 18.559672 101.964644 
Q 18.72436 102.126676 18.72436 102.275426 
Q 18.72436 102.424176 18.665922 102.526441 
Q 18.606156 102.627379 18.513188 102.696441 
Q 18.418891 102.764176 18.325922 102.764176 
L 18.146625 102.754879 
Q 17.87436 102.754879 17.675141 102.85316 
Q 17.475922 102.950113 17.361703 103.104176 
Q 17.246156 103.25691 17.216938 103.25691 
Q 17.186391 103.25691 17.186391 103.197144 
z
M 19.923656 106.197379 
Q 19.53186 104.48941 19.02186 103.077613 
Q 18.996625 103.009879 18.996625 102.98066 
Q 18.996625 102.950113 19.013891 102.950113 
Q 19.039125 102.950113 19.116156 103.061676 
L 20.331391 104.74441 
Q 20.816156 105.407144 20.922406 105.538629 
Q 21.028656 105.670113 21.028656 105.712613 
Q 21.028656 105.755113 20.99811 105.781676 
Q 20.968891 105.80691 20.611625 105.95566 
Q 20.25436 106.10441 19.923656 106.197379 
z
M 14.874125 94.067613 
L 14.874125 96.294879 
Q 14.874125 96.464879 14.968422 96.601676 
L 14.568656 96.822144 
Q 14.593891 96.617613 14.593891 96.397144 
L 14.593891 94.067613 
L 14.373422 94.067613 
Q 13.973656 94.067613 13.616391 94.084879 
Q 13.62436 93.634644 13.693422 93.218941 
Q 13.761156 92.80191 13.863422 92.80191 
Q 13.939125 92.80191 14.024125 92.997144 
L 14.593891 92.997144 
L 14.593891 91.560113 
Q 13.939125 91.246676 13.939125 91.136441 
Q 13.939125 91.024879 14.284438 90.587926 
Q 14.628422 90.149644 14.751938 90.149644 
Q 14.874125 90.149644 14.874125 90.344879 
L 14.874125 92.997144 
L 15.486391 92.997144 
L 15.486391 91.99441 
Q 14.951156 91.714176 14.951156 91.599957 
Q 14.951156 91.48441 15.236703 91.063394 
Q 15.520922 90.642379 15.644438 90.642379 
Q 15.766625 90.642379 15.766625 90.837613 
L 15.766625 92.997144 
L 16.361625 92.997144 
L 16.361625 90.949176 
Q 16.17436 90.84691 16.000375 90.732691 
Q 15.826391 90.617144 15.779906 90.57066 
Q 15.733422 90.524176 15.733422 90.481676 
Q 15.733422 90.387379 16.065453 89.992926 
Q 16.396156 89.597144 16.519672 89.597144 
Q 16.64186 89.597144 16.64186 89.78441 
L 16.64186 93.234879 
Q 16.744125 93.005113 16.782641 92.954644 
Q 16.821156 92.904176 16.867641 92.904176 
Q 16.914125 92.904176 16.927406 92.942691 
Q 16.93936 92.979879 16.93936 93.192379 
Q 16.93936 93.404879 16.999125 93.584176 
Q 17.246156 94.28941 17.390922 94.909644 
L 17.40686 93.192379 
Q 16.991156 92.554879 16.693656 92.189644 
Q 16.880922 91.86691 17.174438 91.509644 
Q 17.466625 91.152379 17.568891 91.152379 
Q 17.611391 91.152379 17.624672 91.190894 
Q 17.636625 91.22941 17.636625 91.374176 
Q 17.636625 91.517613 17.663188 91.687613 
Q 17.688422 91.857613 17.738891 91.99441 
L 17.943422 92.529644 
Q 18.12936 91.552144 18.422875 91.012926 
Q 18.716391 90.472379 19.098891 90.472379 
Q 19.328656 90.472379 19.502641 90.63441 
Q 19.676625 90.795113 19.676625 90.986363 
Q 19.676625 91.177613 19.570375 91.305113 
Q 19.464125 91.432613 19.282172 91.480426 
Q 19.098891 91.52691 18.911625 91.61191 
L 19.048422 92.742144 
Q 19.10686 92.750113 19.201156 92.869644 
L 20.67936 92.869644 
Q 21.156156 92.869644 21.299594 93.039644 
Q 21.44436 93.209644 21.521391 93.596129 
Q 21.598422 93.982613 21.598422 94.110113 
Q 21.598422 94.237613 21.44436 94.264176 
Q 21.113656 94.306676 20.97686 94.472691 
Q 20.841391 94.637379 20.76436 95.029176 
Q 20.739125 95.164644 20.701938 95.164644 
Q 20.663422 95.164644 20.663422 94.807379 
Q 20.663422 94.399644 20.634203 94.22566 
Q 20.603656 94.051676 20.535922 94.001207 
Q 20.46686 93.94941 20.29686 93.94941 
L 19.19186 93.94941 
Q 19.44686 95.929644 19.566391 96.20191 
Q 19.600922 96.277613 19.600922 96.316129 
Q 19.600922 96.354644 19.533188 96.385191 
Q 19.464125 96.41441 19.116156 96.482144 
Q 18.76686 96.549879 18.687172 96.549879 
Q 18.606156 96.549879 18.606156 96.447613 
L 18.614125 96.082379 
Q 18.614125 95.581676 18.503891 95.24566 
Q 18.393656 94.909644 17.74686 93.762144 
Q 18.04436 95.317379 18.223656 95.751676 
Q 18.248891 95.810113 18.248891 95.848629 
Q 18.248891 95.887144 18.194438 95.921676 
Q 18.138656 95.954879 17.790688 96.066441 
Q 17.441391 96.176676 17.373656 96.176676 
Q 17.305922 96.176676 17.305922 96.03191 
Q 17.305922 95.802144 17.263422 95.610894 
Q 17.220922 95.419644 17.174438 95.317379 
Q 17.126625 95.215113 16.944672 94.90566 
Q 16.761391 94.594879 16.64186 94.450113 
L 16.64186 96.83941 
Q 16.64186 97.00941 16.736156 97.144879 
L 16.336391 97.366676 
Q 16.361625 97.162144 16.361625 96.941676 
L 16.361625 94.067613 
L 15.766625 94.067613 
L 15.766625 95.784879 
Q 15.766625 95.954879 15.860922 96.091676 
L 15.461156 96.312144 
Q 15.486391 96.107613 15.486391 95.887144 
L 15.486391 94.067613 
L 14.874125 94.067613 
z
M 17.968656 92.614644 
Q 18.376391 93.702379 18.656625 94.71441 
L 18.648656 91.764644 
Q 18.240922 92.070113 17.968656 92.614644 
z
M 19.456156 95.52191 
Q 19.583656 95.147379 19.741703 94.86316 
Q 19.898422 94.577613 19.962172 94.50191 
Q 20.025922 94.424879 20.076391 94.424879 
Q 20.12686 94.424879 20.14811 94.467379 
Q 20.16936 94.509879 20.16936 94.621441 
Q 20.16936 94.731676 20.217172 94.845894 
Q 20.263656 94.960113 20.599672 95.56441 
Q 20.93436 96.167379 21.160141 96.771676 
Q 21.385922 97.374644 21.385922 97.47691 
Q 21.385922 97.51941 21.355375 97.51941 
Q 21.326156 97.51941 21.249125 97.399879 
Q 20.484125 96.192613 19.456156 95.52191 
z
M 19.676625 92.33441 
Q 19.676625 92.139176 19.830688 91.42066 
Q 19.983422 90.702144 20.238422 90.417926 
Q 20.493422 90.132379 20.748422 90.132379 
Q 21.003422 90.132379 21.181391 90.307691 
Q 21.35936 90.481676 21.35936 90.727379 
Q 21.35936 90.812379 21.249125 90.95316 
Q 21.138891 91.092613 20.968891 91.18691 
Q 20.450922 91.459176 20.213188 91.684957 
Q 19.974125 91.90941 19.796156 92.29191 
Q 19.736391 92.410113 19.707172 92.410113 
Q 19.676625 92.410113 19.676625 92.33441 
z
M 20.331391 85.772144 
Q 20.331391 86.120113 20.207875 86.371129 
Q 20.08436 86.622144 19.87186 86.780191 
Q 19.65936 86.93691 19.371156 87.013941 
Q 19.081625 87.089644 18.750922 87.089644 
Q 18.29936 87.089644 17.951391 86.954176 
Q 17.603422 86.817379 17.365688 86.588941 
Q 17.126625 86.359176 17.004438 86.053707 
Q 16.880922 85.74691 16.880922 85.40691 
Q 16.880922 85.169176 16.915453 84.991207 
Q 16.948656 84.81191 16.991156 84.692379 
Q 17.033656 84.547613 17.093422 84.454644 
L 16.778656 83.894176 
L 16.803891 83.817144 
L 19.421625 83.817144 
Q 19.761625 83.817144 19.74436 83.527613 
Q 19.74436 83.459879 19.72311 83.422691 
Q 19.70186 83.384176 19.685922 83.349644 
Q 19.65936 83.315113 19.634125 83.289879 
L 19.753656 83.23941 
Q 19.91436 83.307144 20.04186 83.417379 
Q 20.153422 83.511676 20.242406 83.668394 
Q 20.331391 83.825113 20.331391 84.054879 
Q 20.331391 84.42941 20.106938 84.587457 
Q 19.881156 84.744176 19.558422 84.744176 
L 19.353891 84.744176 
Q 19.541156 84.786676 19.715141 84.867691 
Q 19.889125 84.947379 20.025922 85.06691 
Q 20.161391 85.185113 20.246391 85.360426 
Q 20.331391 85.53441 20.331391 85.772144 
z
M 18.376391 84.744176 
Q 18.198422 84.744176 18.003188 84.761441 
Q 17.806625 84.777379 17.641938 84.837144 
Q 17.475922 84.89691 17.365688 85.020426 
Q 17.254125 85.142613 17.254125 85.355113 
Q 17.254125 85.474644 17.317875 85.606129 
Q 17.381625 85.737613 17.526391 85.849176 
Q 17.671156 85.95941 17.922172 86.032457 
Q 18.17186 86.104176 18.538422 86.104176 
Q 18.793422 86.104176 19.023188 86.06566 
Q 19.251625 86.027144 19.421625 85.942144 
Q 19.591625 85.857144 19.689906 85.733629 
Q 19.78686 85.610113 19.78686 85.440113 
Q 19.78686 85.270113 19.676625 85.142613 
Q 19.566391 85.015113 19.384438 84.926129 
Q 19.201156 84.837144 18.963422 84.79066 
Q 18.72436 84.744176 18.46936 84.744176 
L 18.376391 84.744176 
z
M 22.378031 81.239332 
L 22.532094 81.239332 
Q 22.216 81.866207 21.793656 82.285894 
Q 21.190688 82.883551 20.373891 83.207613 
Q 19.555766 83.530348 18.676547 83.530348 
Q 17.389594 83.530348 16.32975 82.895504 
Q 15.268578 82.26066 14.811703 81.239332 
L 14.985688 81.239332 
Q 15.268578 81.75066 15.758656 82.078707 
Q 16.247406 82.406754 16.999125 82.568785 
Q 17.750844 82.729488 18.567641 82.729488 
Q 19.456156 82.729488 20.182641 82.592691 
Q 20.755063 82.485113 21.101703 82.332379 
Q 21.448344 82.178316 21.767094 81.919332 
Q 22.087172 81.659019 22.378031 81.239332 
z
M 20.024594 78.027926 
Q 20.830766 78.779644 20.830766 79.334801 
Q 20.830766 79.692066 20.555844 79.998863 
L 20.776313 79.998863 
Q 21.157485 79.998863 21.543969 79.883316 
Q 21.971625 79.750504 22.108422 79.750504 
Q 22.299672 79.750504 22.423188 79.871363 
Q 22.548031 79.990894 22.548031 80.168863 
Q 22.548031 80.352144 22.403266 80.459723 
Q 22.2585 80.567301 22.053969 80.567301 
Q 21.905219 80.567301 21.51475 80.459723 
Q 21.08311 80.334879 20.676703 80.334879 
L 16.911469 80.334879 
L 16.911469 79.650894 
L 19.373813 79.650894 
Q 19.747016 79.650894 19.921 79.587144 
Q 20.094985 79.522066 20.205219 79.358707 
Q 20.315453 79.194019 20.315453 78.986832 
Q 20.315453 78.617613 19.809438 78.027926 
L 16.911469 78.027926 
L 16.911469 77.338629 
L 19.796156 77.338629 
Q 20.161391 77.338629 20.300844 77.264254 
Q 20.440297 77.189879 20.440297 77.010582 
Q 20.440297 76.729019 19.887797 76.645348 
L 19.887797 76.496598 
Q 20.830766 76.574957 20.830766 77.293473 
Q 20.830766 77.604254 20.620922 77.810113 
Q 20.411078 78.015973 20.024594 78.027926 
z
M 19.327328 75.209644 
Q 19.157328 75.558941 18.853188 75.746207 
Q 18.547719 75.932144 18.1785 75.932144 
Q 17.614047 75.932144 17.207641 75.507144 
Q 16.799906 75.080816 16.799906 74.416754 
Q 16.799906 73.873551 17.065531 73.475113 
L 17.065531 72.670269 
Q 17.065531 72.490973 17.076156 72.463082 
Q 17.086781 72.433863 17.110688 72.420582 
Q 17.149203 72.396676 17.2435 72.396676 
Q 17.352406 72.396676 17.393578 72.416598 
Q 17.414828 72.429879 17.426781 72.460426 
Q 17.438735 72.490973 17.438735 72.670269 
L 17.438735 73.164332 
Q 17.737563 72.93191 18.202406 72.93191 
Q 18.733656 72.93191 19.112172 73.338316 
Q 19.48936 73.744723 19.48936 74.430035 
Q 19.48936 74.711598 19.407016 75.006441 
Q 19.563735 75.189723 19.681938 75.254801 
Q 19.800141 75.318551 19.883813 75.318551 
Q 19.954203 75.318551 20.02061 75.249488 
Q 20.087016 75.180426 20.116235 74.981207 
Q 20.132172 74.86566 20.145453 74.400816 
Q 20.165375 73.545504 20.203891 73.29316 
Q 20.257016 72.906676 20.489438 72.67691 
Q 20.72186 72.445816 21.063188 72.445816 
Q 21.532016 72.445816 21.942406 72.885426 
Q 22.548031 73.533551 22.548031 74.574801 
Q 22.548031 75.37566 22.186781 75.92816 
Q 21.979594 76.238941 21.755141 76.238941 
Q 21.655531 76.238941 21.555922 76.193785 
Q 21.403188 76.123394 21.129594 75.902926 
Q 21.091078 75.873707 20.680688 75.479254 
Q 20.55186 75.695738 20.450922 75.784723 
Q 20.348656 75.873707 20.219828 75.873707 
Q 20.075063 75.873707 19.879828 75.755504 
Q 19.684594 75.637301 19.327328 75.209644 
z
M 16.999125 74.488473 
Q 16.999125 74.795269 17.244828 75.002457 
Q 17.489203 75.209644 17.995219 75.209644 
Q 18.651313 75.209644 19.012563 74.928082 
Q 19.286156 74.711598 19.286156 74.379566 
Q 19.286156 74.064801 19.04975 73.861598 
Q 18.813344 73.658394 18.306 73.658394 
Q 17.64725 73.658394 17.272719 73.943941 
Q 16.999125 74.156441 16.999125 74.488473 
z
M 20.713891 75.252144 
Q 20.925063 75.446051 21.107016 75.54566 
Q 21.290297 75.645269 21.44436 75.645269 
Q 21.643578 75.645269 21.793656 75.404879 
Q 22.049985 74.990504 22.049985 74.205582 
Q 22.049985 73.459176 21.785688 73.104566 
Q 21.522719 72.748629 21.223891 72.748629 
Q 21.008735 72.748629 20.917094 72.961129 
Q 20.825453 73.176285 20.809516 73.815113 
Q 20.784281 74.748785 20.713891 75.252144 
z
M 19.157328 65.244723 
L 19.186547 65.107926 
L 20.713891 65.590035 
L 20.713891 69.947613 
L 20.559828 69.947613 
L 20.559828 69.735113 
Q 20.559828 69.379176 20.327406 69.225113 
Q 20.194594 69.137457 19.713813 69.137457 
L 16.081391 69.137457 
Q 15.555453 69.137457 15.422641 69.254332 
Q 15.23936 69.416363 15.23936 69.735113 
L 15.23936 69.947613 
L 15.085297 69.947613 
L 15.085297 67.398941 
L 15.23936 67.398941 
Q 15.235375 67.847848 15.323031 68.028473 
Q 15.40936 68.207769 15.542172 68.274176 
Q 15.674985 68.340582 16.177016 68.340582 
L 19.713813 68.340582 
Q 20.057797 68.340582 20.186625 68.274176 
Q 20.274281 68.225035 20.315453 68.121441 
Q 20.356625 68.017848 20.356625 67.473316 
L 20.356625 67.062926 
Q 20.356625 66.414801 20.261 66.154488 
Q 20.165375 65.892848 19.923656 65.677691 
Q 19.68061 65.461207 19.157328 65.244723 
z
M 15.694141 65.056316 
L 15.694141 63.490816 
L 16.151391 63.490816 
L 16.151391 65.056316 
L 15.694141 65.056316 
z
M 13.611328 62.516254 
L 13.124047 61.517473 
L 13.124047 61.417691 
L 16.590235 61.417691 
Q 16.93511 61.417691 17.02036 61.388629 
Q 17.104641 61.359566 17.150172 61.269473 
Q 17.195703 61.17841 17.201516 60.89941 
L 17.313891 60.89941 
L 17.313891 62.443598 
L 17.201516 62.443598 
Q 17.195703 62.152973 17.15211 62.068691 
Q 17.107547 61.983441 17.033922 61.950504 
Q 16.959328 61.916598 16.590235 61.916598 
L 14.374703 61.916598 
Q 13.926172 61.916598 13.799266 61.946629 
Q 13.702391 61.967941 13.65686 62.024129 
Q 13.611328 62.080316 13.611328 62.158785 
Q 13.611328 62.27116 13.705297 62.470723 
L 13.611328 62.516254 
z
M 14.985688 60.509066 
L 14.811703 60.509066 
Q 15.123813 59.878207 15.546156 59.459848 
Q 16.15311 58.866176 16.968578 58.542113 
Q 17.784047 58.218051 18.66725 58.218051 
Q 19.954203 58.218051 21.014047 58.851566 
Q 22.075219 59.483754 22.532094 60.509066 
L 22.378031 60.509066 
Q 22.092485 59.999066 21.603735 59.669691 
Q 21.116313 59.338988 20.363266 59.179613 
Q 19.610219 59.01891 18.792094 59.01891 
Q 17.907563 59.01891 17.177094 59.155707 
Q 16.604672 59.260629 16.260688 59.416019 
Q 15.915375 59.57141 15.596625 59.829066 
Q 15.276547 60.085394 14.985688 60.509066 
z
"/>
   </g>
   <g id="legend_1">
    <g id="line2d_16">
     <path d="M 146.273327 14.935 
L 154.773327 14.935 
L 163.273327 14.935 
" style="fill: none; stroke: #0072b2; stroke-width: 1.15; stroke-linecap: square"/>
     <g>
      <use xlink:href="#m7574590d3d" x="154.773327" y="14.935" style="fill: #0072b2; stroke: #0072b2"/>
     </g>
    </g>
    <g id="text_13">
     <!-- 北部 -->
     <g transform="translate(167.948327 17.91) scale(0.085 -0.085)">
      <defs>
       <path id="STSongti-SC-Black-740" d="M 4166 2707 
Q 4640 3155 5139 4173 
Q 6022 3616 6022 3475 
Q 6022 3405 5856 3373 
Q 5690 3341 5328 3168 
Q 4966 2995 4166 2573 
L 4166 710 
Q 4166 512 4281 419 
Q 4397 326 4710 326 
Q 5024 326 5177 400 
Q 5331 474 5401 691 
Q 5472 909 5562 1491 
Q 5568 1555 5609 1555 
Q 5651 1555 5645 1491 
Q 5619 1242 5619 1037 
Q 5619 832 5692 720 
Q 5766 608 5952 505 
Q 6138 403 6138 249 
Q 6138 96 5952 -86 
Q 5766 -269 5491 -307 
Q 5216 -346 4637 -346 
Q 4058 -346 3821 -256 
Q 3584 -166 3491 32 
Q 3398 230 3398 634 
L 3398 4493 
Q 3398 4928 3379 5210 
Q 4064 5146 4192 5101 
Q 4320 5056 4320 4966 
Q 4320 4877 4166 4806 
L 4166 2707 
z
M 2016 3046 
L 845 3046 
Q 717 3046 614 2976 
L 448 3277 
Q 602 3258 768 3258 
L 2016 3258 
L 2016 4589 
Q 2016 4909 2003 5158 
Q 2586 5101 2755 5043 
Q 2925 4986 2925 4918 
Q 2925 4851 2797 4774 
L 2797 -243 
Q 2797 -294 2784 -316 
Q 2771 -339 2630 -393 
Q 2490 -448 2275 -486 
Q 2061 -525 2025 -525 
Q 1990 -525 1990 -474 
L 2003 -173 
Q 2016 141 2016 397 
L 2016 1120 
Q 1632 800 1414 589 
Q 1197 378 896 32 
Q 851 -19 822 -19 
Q 794 -19 765 19 
Q 736 58 582 326 
Q 429 595 320 877 
Q 1152 1056 2016 1357 
L 2016 3046 
z
" transform="scale(0.015625)"/>
       <path id="STSongti-SC-Black-694" d="M 1850 4320 
Q 1779 4346 1731 4406 
Q 1683 4467 1670 4528 
Q 1658 4589 1658 4755 
Q 1658 4922 1587 5030 
Q 1517 5139 1398 5193 
Q 1280 5248 1280 5270 
Q 1280 5293 1382 5293 
Q 1901 5293 2182 5136 
Q 2464 4979 2464 4723 
Q 2464 4390 2086 4320 
L 2746 4320 
Q 2970 4685 3002 4723 
Q 3034 4762 3072 4762 
Q 3136 4762 3427 4534 
Q 3718 4307 3718 4211 
Q 3718 4109 3558 4109 
L 2694 4109 
Q 3002 4000 3184 3897 
Q 3366 3795 3366 3740 
Q 3366 3686 3257 3644 
Q 3149 3603 3014 3449 
Q 2880 3296 2413 2675 
L 2957 2675 
Q 3206 3130 3296 3130 
Q 3334 3130 3392 3078 
L 3622 2906 
Q 3795 2778 3846 2726 
L 3846 4410 
Q 3846 4870 3821 5082 
Q 4179 4992 4602 4710 
L 5120 4710 
Q 5280 5018 5299 5034 
Q 5318 5050 5357 5050 
Q 5434 5050 5709 4893 
Q 5984 4736 6128 4643 
Q 6272 4550 6272 4480 
Q 6272 4410 6131 4368 
Q 5990 4326 5824 4121 
Q 5658 3917 5037 2816 
Q 5626 2522 5933 2115 
Q 6240 1709 6240 1261 
Q 6240 749 5961 499 
Q 5683 250 5286 250 
Q 5178 250 5142 291 
Q 5107 333 5107 464 
Q 5107 595 4963 739 
Q 4819 883 4550 998 
L 4550 -486 
Q 4550 -557 4521 -585 
Q 4493 -614 4301 -668 
Q 4109 -723 3898 -723 
Q 3853 -723 3840 -710 
Q 3827 -698 3827 -653 
L 3840 -403 
Q 3846 -115 3846 205 
L 3846 2464 
L 659 2464 
Q 531 2464 429 2394 
L 262 2694 
Q 416 2675 582 2675 
L 2195 2675 
Q 2374 3424 2432 4109 
L 749 4109 
Q 621 4109 518 4038 
L 352 4339 
Q 506 4320 672 4320 
L 1850 4320 
z
M 4550 1082 
Q 4717 1062 4838 1062 
Q 5210 1062 5341 1222 
Q 5472 1382 5472 1645 
Q 5472 2189 4838 2758 
Q 5120 3846 5190 4499 
L 4678 4499 
Q 4646 4416 4550 4390 
L 4550 1082 
z
M 813 3974 
Q 998 3974 1292 3894 
Q 1587 3814 1734 3651 
Q 1882 3488 1882 3296 
Q 1882 3104 1757 2953 
Q 1632 2803 1497 2803 
Q 1363 2803 1280 2854 
Q 1197 2906 1168 2989 
Q 1139 3072 1139 3258 
Q 1139 3661 826 3885 
Q 762 3930 762 3952 
Q 762 3974 813 3974 
z
M 1613 1869 
L 2451 1869 
Q 2483 1946 2553 2051 
Q 2624 2157 2646 2176 
Q 2669 2195 2694 2195 
Q 2771 2195 3004 2057 
Q 3238 1920 3363 1840 
Q 3488 1760 3488 1673 
Q 3488 1587 3309 1523 
L 3309 570 
Q 3309 230 3315 134 
L 3322 -38 
Q 3322 -115 3264 -150 
Q 3206 -186 3094 -230 
Q 2982 -275 2662 -275 
Q 2605 -275 2589 -256 
Q 2573 -237 2573 -166 
L 2573 269 
L 1600 269 
L 1600 -230 
Q 1600 -333 1373 -406 
Q 1146 -480 909 -480 
Q 838 -480 838 -429 
L 851 -147 
Q 864 45 864 205 
L 864 1574 
Q 864 1856 845 2131 
Q 1293 2003 1613 1869 
z
M 2573 480 
L 2573 1658 
L 1722 1658 
Q 1690 1600 1600 1568 
L 1600 480 
L 2573 480 
z
" transform="scale(0.015625)"/>
      </defs>
      <use xlink:href="#STSongti-SC-Black-740"/>
      <use xlink:href="#STSongti-SC-Black-694" transform="translate(100 0)"/>
     </g>
    </g>
    <g id="line2d_17">
     <path d="M 200.248327 14.935 
L 208.748327 14.935 
L 217.248327 14.935 
" style="fill: none; stroke: #d55e00; stroke-width: 1.15; stroke-linecap: square"/>
     <g>
      <use xlink:href="#m6291e89571" x="208.748327" y="14.935" style="fill: #d55e00; stroke: #d55e00"/>
     </g>
    </g>
    <g id="text_14">
     <!-- 中部 -->
     <g transform="translate(221.923327 17.91) scale(0.085 -0.085)">
      <defs>
       <path id="STSongti-SC-Black-588" d="M 1741 3878 
L 2816 3878 
L 2816 4781 
Q 2816 5101 2803 5350 
Q 3354 5331 3581 5289 
Q 3808 5248 3808 5165 
Q 3808 5082 3629 4992 
L 3629 3878 
L 4666 3878 
Q 4826 4186 4883 4250 
Q 4941 4314 5024 4314 
Q 5107 4314 5382 4154 
Q 5658 3994 5811 3888 
Q 5965 3782 5965 3686 
Q 5965 3590 5722 3533 
L 5722 1958 
Q 5722 1850 5728 1766 
L 5741 1626 
Q 5741 1581 5686 1549 
Q 5632 1517 5379 1465 
Q 5126 1414 4922 1414 
Q 4870 1414 4854 1433 
Q 4838 1453 4838 1510 
L 4838 1882 
L 3629 1882 
L 3629 237 
Q 3629 26 3635 -211 
L 3648 -429 
Q 3648 -474 3632 -493 
Q 3616 -512 3485 -557 
Q 3354 -602 3133 -643 
Q 2912 -685 2842 -685 
Q 2797 -685 2797 -589 
L 2810 -339 
Q 2816 -83 2816 237 
L 2816 1882 
L 1626 1882 
L 1626 1574 
Q 1626 1536 1606 1513 
Q 1587 1491 1468 1456 
Q 1350 1421 1148 1392 
Q 947 1363 826 1363 
Q 781 1363 787 1427 
Q 800 1574 800 1901 
L 800 3667 
Q 800 3936 781 4211 
Q 1357 4064 1741 3878 
z
M 2816 3667 
L 1779 3667 
Q 1734 3597 1626 3571 
L 1626 2093 
L 2816 2093 
L 2816 3667 
z
M 4838 2093 
L 4838 3667 
L 3629 3667 
L 3629 2093 
L 4838 2093 
z
" transform="scale(0.015625)"/>
      </defs>
      <use xlink:href="#STSongti-SC-Black-588"/>
      <use xlink:href="#STSongti-SC-Black-694" transform="translate(100 0)"/>
     </g>
    </g>
    <g id="line2d_18">
     <path d="M 254.223327 14.935 
L 262.723327 14.935 
L 271.223327 14.935 
" style="fill: none; stroke: #009e73; stroke-width: 1.15; stroke-linecap: square"/>
     <g>
      <use xlink:href="#m5227856c12" x="262.723327" y="14.935" style="fill: #009e73; stroke: #009e73"/>
     </g>
    </g>
    <g id="text_15">
     <!-- 南部 -->
     <g transform="translate(275.898327 17.91) scale(0.085 -0.085)">
      <defs>
       <path id="STSongti-SC-Black-724" d="M 2790 4045 
L 653 4045 
Q 525 4045 422 3974 
L 256 4275 
Q 410 4256 576 4256 
L 2797 4256 
L 2816 4678 
Q 2816 4998 2803 5248 
Q 3123 5222 3398 5171 
Q 3674 5120 3731 5094 
Q 3789 5069 3789 5021 
Q 3789 4973 3597 4864 
L 3571 4256 
L 5024 4256 
Q 5062 4333 5196 4553 
Q 5331 4774 5366 4809 
Q 5402 4845 5450 4845 
Q 5498 4845 5664 4717 
Q 5830 4589 6012 4441 
Q 6195 4294 6256 4227 
Q 6317 4160 6317 4115 
Q 6317 4045 6182 4045 
L 3565 4045 
L 3533 3245 
L 4634 3245 
Q 4864 3635 4947 3635 
Q 5011 3635 5420 3388 
Q 5830 3142 5830 3049 
Q 5830 2957 5606 2899 
L 5606 96 
Q 5606 -115 5558 -246 
Q 5510 -378 5385 -464 
Q 5261 -550 5024 -601 
Q 4787 -653 4672 -653 
Q 4557 -653 4528 -633 
Q 4499 -614 4486 -544 
Q 4442 -288 4317 -189 
Q 4192 -90 4006 -32 
Q 3821 26 3821 48 
Q 3821 70 3904 70 
L 4192 64 
Q 4512 64 4662 137 
Q 4813 211 4813 442 
L 4813 851 
L 3539 851 
L 3539 448 
Q 3539 237 3546 0 
L 3558 -218 
Q 3558 -262 3539 -284 
Q 3520 -307 3392 -355 
Q 3264 -403 3097 -438 
Q 2931 -474 2854 -474 
Q 2810 -474 2810 -378 
L 2822 -128 
Q 2829 128 2829 448 
L 2829 851 
L 2074 851 
Q 1907 851 1798 819 
L 1690 1094 
Q 1824 1062 2010 1062 
L 2829 1062 
L 2829 1651 
L 2246 1651 
Q 2080 1651 1971 1619 
L 1862 1894 
Q 1997 1862 2182 1862 
L 3213 1862 
Q 3475 2470 3571 3034 
L 1709 3034 
Q 1683 3002 1613 2970 
L 1613 -339 
Q 1613 -390 1606 -416 
Q 1600 -442 1469 -506 
Q 1338 -570 1149 -608 
Q 960 -646 921 -646 
Q 883 -646 883 -595 
L 896 -307 
Q 909 -122 909 90 
L 909 3053 
Q 909 3354 890 3507 
Q 1312 3405 1702 3245 
L 2758 3245 
L 2790 4045 
z
M 3853 3034 
Q 4435 2842 4435 2733 
Q 4435 2669 4314 2650 
Q 4077 2605 3405 1862 
L 3757 1862 
Q 3968 2246 4035 2246 
Q 4102 2246 4377 2025 
Q 4653 1805 4653 1728 
Q 4653 1651 4486 1651 
L 3622 1651 
Q 3603 1632 3539 1606 
L 3539 1062 
L 3866 1062 
Q 4045 1344 4102 1427 
Q 4160 1510 4192 1510 
Q 4282 1510 4813 973 
L 4813 3034 
L 3853 3034 
z
M 2003 2976 
Q 2157 2976 2441 2902 
Q 2726 2829 2870 2691 
Q 3014 2554 3014 2381 
Q 3014 2208 2867 2096 
Q 2720 1984 2585 1984 
Q 2451 1984 2377 2051 
Q 2304 2118 2304 2234 
Q 2304 2554 2246 2659 
Q 2189 2765 2070 2851 
Q 1952 2938 1952 2957 
Q 1952 2976 2003 2976 
z
" transform="scale(0.015625)"/>
      </defs>
      <use xlink:href="#STSongti-SC-Black-724"/>
      <use xlink:href="#STSongti-SC-Black-694" transform="translate(100 0)"/>
     </g>
    </g>
   </g>
  </g>
  <g id="text_16">
   <!-- 字 -->
   <g style="opacity: 0.001" transform="translate(7.2 188.224724) scale(0.01 -0.01)">
    <defs>
     <path id="STSongti-SC-Black-73c" d="M 3622 1485 
L 3622 -32 
Q 3622 -314 3507 -461 
Q 3392 -608 3104 -685 
Q 2816 -762 2733 -762 
Q 2650 -762 2608 -723 
Q 2566 -685 2560 -627 
Q 2541 -358 2374 -243 
Q 2208 -128 1843 -38 
Q 1741 -13 1741 12 
Q 1741 38 1830 38 
L 2278 26 
Q 2624 26 2720 86 
Q 2816 147 2816 333 
L 2816 1485 
L 691 1485 
Q 563 1485 461 1414 
L 294 1715 
Q 448 1696 614 1696 
L 2816 1696 
L 2816 1914 
Q 2816 2138 2803 2483 
Q 3130 2426 3456 2336 
Q 3526 2477 3638 2659 
Q 3750 2842 3827 2995 
L 1882 2995 
Q 1754 2995 1651 2925 
L 1485 3226 
Q 1638 3206 1805 3206 
L 3827 3206 
Q 3955 3424 3990 3491 
Q 4026 3558 4070 3558 
Q 4141 3558 4666 3258 
Q 4819 3629 4909 3949 
L 1472 3949 
Q 1510 3584 1315 3360 
Q 1120 3136 851 3136 
Q 678 3136 553 3235 
Q 429 3334 429 3468 
Q 429 3603 489 3708 
Q 550 3814 646 3878 
Q 915 4045 995 4150 
Q 1075 4256 1075 4422 
L 1056 4666 
Q 1056 4710 1075 4710 
Q 1107 4710 1232 4540 
Q 1357 4371 1427 4160 
L 2963 4160 
Q 2912 4192 2870 4243 
Q 2829 4294 2809 4352 
Q 2790 4410 2790 4461 
L 2790 4557 
Q 2790 4941 2426 5133 
Q 2310 5197 2310 5216 
Q 2310 5235 2464 5235 
Q 3059 5235 3404 5078 
Q 3750 4922 3750 4614 
Q 3750 4474 3664 4352 
Q 3578 4230 3424 4160 
L 4806 4160 
Q 5024 4506 5059 4541 
Q 5094 4576 5133 4576 
Q 5210 4576 5629 4233 
Q 6048 3891 6048 3747 
Q 6048 3603 5856 3622 
Q 5747 3635 5651 3635 
Q 5094 3635 4742 3213 
Q 4941 3104 5037 3030 
Q 5133 2957 5133 2906 
Q 5133 2797 4909 2797 
Q 4518 2797 4265 2672 
Q 4013 2547 3648 2285 
Q 3757 2246 3757 2185 
Q 3757 2125 3622 2042 
L 3622 1696 
L 4934 1696 
Q 5120 2022 5181 2147 
Q 5242 2272 5306 2272 
Q 5370 2272 5629 2073 
Q 5888 1875 6041 1744 
Q 6195 1613 6195 1549 
Q 6195 1485 6067 1485 
L 3622 1485 
z
" transform="scale(0.015625)"/>
    </defs>
    <use xlink:href="#STSongti-SC-Black-73c"/>
   </g>
  </g>
 </g>
 <defs>
  <clipPath id="p6e56c716fb">
   <rect x="56.948031" y="24.949134" width="325.275591" height="122.456693"/>
  </clipPath>
 </defs>
</svg>
