<?xml version="1.0" encoding="utf-8" standalone="no"?>
<!DOCTYPE svg PUBLIC "-//W3C//DTD SVG 1.1//EN"
  "http://www.w3.org/Graphics/SVG/1.1/DTD/svg11.dtd">
<svg xmlns:xlink="http://www.w3.org/1999/xlink" width="324.959761pt" height="178.246927pt" viewBox="0 0 324.959761 178.246927" xmlns="http://www.w3.org/2000/svg" version="1.1">
 <metadata>
  <rdf:RDF xmlns:dc="http://purl.org/dc/elements/1.1/" xmlns:cc="http://creativecommons.org/ns#" xmlns:rdf="http://www.w3.org/1999/02/22-rdf-syntax-ns#">
   <cc:Work>
    <dc:type rdf:resource="http://purl.org/dc/dcmitype/StillImage"/>
    <dc:date>2026-07-13T01:23:59.666812</dc:date>
    <dc:format>image/svg+xml</dc:format>
    <dc:creator>
     <cc:Agent>
      <dc:title>Matplotlib v3.11.0, https://matplotlib.org/</dc:title>
     </cc:Agent>
    </dc:creator>
   </cc:Work>
  </rdf:RDF>
 </metadata>
 <defs>
  <style type="text/css">*{stroke-linejoin: round; stroke-linecap: butt}</style>
 </defs>
 <g id="figure_1">
  <g id="patch_1">
   <path d="M 0 178.246927 
L 324.959761 178.246927 
L 324.959761 0 
L 0 0 
L 0 178.246927 
z
" style="fill: none"/>
  </g>
  <g id="axes_1">
   <g id="patch_2">
    <path d="M 52.720391 129.656693 
L 317.759761 129.656693 
L 317.759761 7.2 
L 52.720391 7.2 
L 52.720391 129.656693 
z
" style="fill: none"/>
   </g>
   <g id="FillBetweenPolyCollection_1">
    <path d="M 109.856134 124.09048 
L 83.458663 124.09048 
L 82.424347 123.487987 
L 81.36152 122.885495 
L 80.275698 122.283003 
L 79.173027 121.680511 
L 78.060226 121.078018 
L 76.944514 120.475526 
L 75.833523 119.873034 
L 74.735197 119.270542 
L 73.657682 118.66805 
L 72.609207 118.065557 
L 71.597956 117.463065 
L 70.631945 116.860573 
L 69.718893 116.258081 
L 68.8661 115.655588 
L 68.080335 115.053096 
L 67.367728 114.450604 
L 66.733683 113.848112 
L 66.182794 113.24562 
L 65.718793 112.643127 
L 65.344495 112.040635 
L 65.061778 111.438143 
L 64.871567 110.835651 
L 64.773838 110.233158 
L 64.767635 109.630666 
L 64.851097 109.028174 
L 65.0215 108.425682 
L 65.275298 107.82319 
L 65.608178 107.220697 
L 66.015116 106.618205 
L 66.490433 106.015713 
L 67.027856 105.413221 
L 67.620577 104.810728 
L 68.261315 104.208236 
L 68.942375 103.605744 
L 69.655712 103.003252 
L 70.392996 102.400759 
L 71.145675 101.798267 
L 71.90505 101.195775 
L 72.662351 100.593283 
L 73.408813 99.990791 
L 74.135771 99.388298 
L 74.834748 98.785806 
L 75.497559 98.183314 
L 76.116411 97.580822 
L 76.684014 96.978329 
L 77.193687 96.375837 
L 77.639467 95.773345 
L 78.016215 95.170853 
L 78.319706 94.568361 
L 78.546726 93.965868 
L 78.695133 93.363376 
L 78.763925 92.760884 
L 78.753272 92.158392 
L 78.664534 91.555899 
L 78.500259 90.953407 
L 78.264149 90.350915 
L 77.961015 89.748423 
L 77.596691 89.145931 
L 77.177948 88.543438 
L 76.712369 87.940946 
L 76.208217 87.338454 
L 75.67429 86.735962 
L 75.11976 86.133469 
L 74.554012 85.530977 
L 73.986479 84.928485 
L 73.426479 84.325993 
L 72.883059 83.723501 
L 72.364852 83.121008 
L 71.879945 82.518516 
L 71.435767 81.916024 
L 71.038989 81.313532 
L 70.695456 80.711039 
L 70.410129 80.108547 
L 70.187054 79.506055 
L 70.029355 78.903563 
L 69.939236 78.30107 
L 69.918013 77.698578 
L 69.966154 77.096086 
L 70.083332 76.493594 
L 70.268496 75.891102 
L 70.519937 75.288609 
L 70.83537 74.686117 
L 71.212013 74.083625 
L 71.646664 73.481133 
L 72.135775 72.87864 
L 72.675531 72.276148 
L 73.261909 71.673656 
L 73.890739 71.071164 
L 74.557757 70.468672 
L 75.25865 69.866179 
L 75.98909 69.263687 
L 76.744773 68.661195 
L 77.521435 68.058703 
L 78.314879 67.45621 
L 79.12099 66.853718 
L 79.93575 66.251226 
L 80.755251 65.648734 
L 81.575704 65.046242 
L 82.393454 64.443749 
L 110.921343 64.443749 
L 110.921343 64.443749 
L 111.739093 65.046242 
L 112.559546 65.648734 
L 113.379047 66.251226 
L 114.193807 66.853718 
L 114.999918 67.45621 
L 115.793362 68.058703 
L 116.570024 68.661195 
L 117.325707 69.263687 
L 118.056147 69.866179 
L 118.75704 70.468672 
L 119.424058 71.071164 
L 120.052888 71.673656 
L 120.639266 72.276148 
L 121.179022 72.87864 
L 121.668133 73.481133 
L 122.102784 74.083625 
L 122.479427 74.686117 
L 122.79486 75.288609 
L 123.046301 75.891102 
L 123.231465 76.493594 
L 123.348643 77.096086 
L 123.396784 77.698578 
L 123.375561 78.30107 
L 123.285442 78.903563 
L 123.127743 79.506055 
L 122.904668 80.108547 
L 122.619341 80.711039 
L 122.275808 81.313532 
L 121.87903 81.916024 
L 121.434852 82.518516 
L 120.949945 83.121008 
L 120.431738 83.723501 
L 119.888318 84.325993 
L 119.328318 84.928485 
L 118.760785 85.530977 
L 118.195037 86.133469 
L 117.640507 86.735962 
L 117.10658 87.338454 
L 116.602428 87.940946 
L 116.136849 88.543438 
L 115.718106 89.145931 
L 115.353782 89.748423 
L 115.050648 90.350915 
L 114.814538 90.953407 
L 114.650263 91.555899 
L 114.561525 92.158392 
L 114.550872 92.760884 
L 114.619664 93.363376 
L 114.768071 93.965868 
L 114.995091 94.568361 
L 115.298582 95.170853 
L 115.67533 95.773345 
L 116.12111 96.375837 
L 116.630783 96.978329 
L 117.198386 97.580822 
L 117.817238 98.183314 
L 118.480049 98.785806 
L 119.179026 99.388298 
L 119.905984 99.990791 
L 120.652446 100.593283 
L 121.409747 101.195775 
L 122.169122 101.798267 
L 122.921801 102.400759 
L 123.659085 103.003252 
L 124.372422 103.605744 
L 125.053482 104.208236 
L 125.69422 104.810728 
L 126.286941 105.413221 
L 126.824364 106.015713 
L 127.299681 106.618205 
L 127.706619 107.220697 
L 128.039499 107.82319 
L 128.293297 108.425682 
L 128.4637 109.028174 
L 128.547162 109.630666 
L 128.540959 110.233158 
L 128.44323 110.835651 
L 128.253019 111.438143 
L 127.970302 112.040635 
L 127.596004 112.643127 
L 127.132003 113.24562 
L 126.581114 113.848112 
L 125.947069 114.450604 
L 125.234462 115.053096 
L 124.448697 115.655588 
L 123.595904 116.258081 
L 122.682852 116.860573 
L 121.716841 117.463065 
L 120.70559 118.065557 
L 119.657115 118.66805 
L 118.5796 119.270542 
L 117.481274 119.873034 
L 116.370283 120.475526 
L 115.254571 121.078018 
L 114.14177 121.680511 
L 113.039099 122.283003 
L 111.953277 122.885495 
L 110.89045 123.487987 
L 109.856134 124.09048 
z
" clip-path="url(#p89d3139ee1)" style="fill: #1f77b4; fill-opacity: 0.3"/>
   </g>
   <g id="FillBetweenPolyCollection_2">
    <path d="M 197.256316 105.805334 
L 173.223835 105.805334 
L 172.365323 105.134938 
L 171.483154 104.464542 
L 170.58 103.794146 
L 169.658825 103.12375 
L 168.722887 102.453354 
L 167.775732 101.782958 
L 166.821187 101.112562 
L 165.863346 100.442166 
L 164.906553 99.77177 
L 163.955383 99.101374 
L 163.014615 98.430978 
L 162.089198 97.760582 
L 161.18422 97.090186 
L 160.304861 96.41979 
L 159.456354 95.749393 
L 158.643928 95.078997 
L 157.872757 94.408601 
L 157.147902 93.738205 
L 156.474248 93.067809 
L 155.856442 92.397413 
L 155.298825 91.727017 
L 154.805365 91.056621 
L 154.37959 90.386225 
L 154.024519 89.715829 
L 153.742599 89.045433 
L 153.535639 88.375037 
L 153.404753 87.704641 
L 153.350312 87.034245 
L 153.371893 86.363849 
L 153.468252 85.693453 
L 153.637296 85.023056 
L 153.876079 84.35266 
L 154.180803 83.682264 
L 154.546844 83.011868 
L 154.968789 82.341472 
L 155.440494 81.671076 
L 155.955161 81.00068 
L 156.505426 80.330284 
L 157.08347 79.659888 
L 157.681141 78.989492 
L 158.290084 78.319096 
L 158.901891 77.6487 
L 159.508242 76.978304 
L 160.101056 76.307908 
L 160.672642 75.637512 
L 161.215836 74.967116 
L 161.724133 74.296719 
L 162.191804 73.626323 
L 162.613996 72.955927 
L 162.98681 72.285531 
L 163.30736 71.615135 
L 163.573804 70.944739 
L 163.785356 70.274343 
L 163.942267 69.603947 
L 164.045787 68.933551 
L 164.098106 68.263155 
L 164.102269 67.592759 
L 164.062081 66.922363 
L 163.981996 66.251967 
L 163.866994 65.581571 
L 163.722457 64.911175 
L 163.554042 64.240779 
L 163.367552 63.570383 
L 163.168823 62.899986 
L 162.96361 62.22959 
L 162.75749 61.559194 
L 162.555787 60.888798 
L 162.363498 60.218402 
L 162.185248 59.548006 
L 162.025257 58.87761 
L 161.887327 58.207214 
L 161.774837 57.536818 
L 161.690756 56.866422 
L 161.637666 56.196026 
L 161.617791 55.52563 
L 161.633027 54.855234 
L 161.68498 54.184838 
L 161.774998 53.514442 
L 161.904196 52.844046 
L 162.073485 52.173649 
L 162.283578 51.503253 
L 162.535002 50.832857 
L 162.828089 50.162461 
L 163.162968 49.492065 
L 163.539542 48.821669 
L 163.957464 48.151273 
L 164.416108 47.480877 
L 164.914535 46.810481 
L 165.451468 46.140085 
L 166.025263 45.469689 
L 166.633893 44.799293 
L 167.274937 44.128897 
L 167.945578 43.458501 
L 168.642616 42.788105 
L 169.362492 42.117709 
L 170.101326 41.447312 
L 170.854958 40.776916 
L 171.619014 40.10652 
L 172.388968 39.436124 
L 198.091183 39.436124 
L 198.091183 39.436124 
L 198.861137 40.10652 
L 199.625193 40.776916 
L 200.378826 41.447312 
L 201.117659 42.117709 
L 201.837535 42.788105 
L 202.534573 43.458501 
L 203.205214 44.128897 
L 203.846258 44.799293 
L 204.454888 45.469689 
L 205.028684 46.140085 
L 205.565616 46.810481 
L 206.064043 47.480877 
L 206.522687 48.151273 
L 206.940609 48.821669 
L 207.317184 49.492065 
L 207.652063 50.162461 
L 207.94515 50.832857 
L 208.196573 51.503253 
L 208.406666 52.173649 
L 208.575955 52.844046 
L 208.705154 53.514442 
L 208.795171 54.184838 
L 208.847124 54.855234 
L 208.862361 55.52563 
L 208.842485 56.196026 
L 208.789396 56.866422 
L 208.705315 57.536818 
L 208.592824 58.207214 
L 208.454894 58.87761 
L 208.294904 59.548006 
L 208.116653 60.218402 
L 207.924364 60.888798 
L 207.722661 61.559194 
L 207.516542 62.22959 
L 207.311328 62.899986 
L 207.112599 63.570383 
L 206.926109 64.240779 
L 206.757694 64.911175 
L 206.613158 65.581571 
L 206.498156 66.251967 
L 206.41807 66.922363 
L 206.377883 67.592759 
L 206.382046 68.263155 
L 206.434364 68.933551 
L 206.537885 69.603947 
L 206.694795 70.274343 
L 206.906347 70.944739 
L 207.172791 71.615135 
L 207.493341 72.285531 
L 207.866156 72.955927 
L 208.288348 73.626323 
L 208.756019 74.296719 
L 209.264316 74.967116 
L 209.80751 75.637512 
L 210.379095 76.307908 
L 210.97191 76.978304 
L 211.57826 77.6487 
L 212.190067 78.319096 
L 212.799011 78.989492 
L 213.396681 79.659888 
L 213.974725 80.330284 
L 214.52499 81.00068 
L 215.039657 81.671076 
L 215.511362 82.341472 
L 215.933307 83.011868 
L 216.299348 83.682264 
L 216.604072 84.35266 
L 216.842855 85.023056 
L 217.011899 85.693453 
L 217.108258 86.363849 
L 217.129839 87.034245 
L 217.075398 87.704641 
L 216.944513 88.375037 
L 216.737552 89.045433 
L 216.455632 89.715829 
L 216.100561 90.386225 
L 215.674787 91.056621 
L 215.181327 91.727017 
L 214.62371 92.397413 
L 214.005904 93.067809 
L 213.33225 93.738205 
L 212.607394 94.408601 
L 211.836223 95.078997 
L 211.023797 95.749393 
L 210.17529 96.41979 
L 209.295932 97.090186 
L 208.390953 97.760582 
L 207.465537 98.430978 
L 206.524768 99.101374 
L 205.573598 99.77177 
L 204.616805 100.442166 
L 203.658964 101.112562 
L 202.704419 101.782958 
L 201.757265 102.453354 
L 200.821327 103.12375 
L 199.900152 103.794146 
L 198.996997 104.464542 
L 198.114829 105.134938 
L 197.256316 105.805334 
z
" clip-path="url(#p89d3139ee1)" style="fill: #1f77b4; fill-opacity: 0.3"/>
   </g>
   <g id="FillBetweenPolyCollection_3">
    <path d="M 291.998222 91.333669 
L 255.647284 91.333669 
L 254.531729 90.540058 
L 253.414869 89.746447 
L 252.304395 88.952837 
L 251.208396 88.159226 
L 250.13527 87.365615 
L 249.093613 86.572005 
L 248.092117 85.778394 
L 247.139446 84.984783 
L 246.244108 84.191173 
L 245.414333 83.397562 
L 244.657939 82.603951 
L 243.982206 81.810341 
L 243.393756 81.01673 
L 242.898438 80.223119 
L 242.501225 79.429509 
L 242.206122 78.635898 
L 242.01609 77.842287 
L 241.932989 77.048677 
L 241.957536 76.255066 
L 242.089282 75.461455 
L 242.326615 74.667845 
L 242.666771 73.874234 
L 243.105878 73.080624 
L 243.639008 72.287013 
L 244.260249 71.493402 
L 244.962793 70.699792 
L 245.739038 69.906181 
L 246.580698 69.11257 
L 247.478919 68.31896 
L 248.424406 67.525349 
L 249.407549 66.731738 
L 250.418549 65.938128 
L 251.447539 65.144517 
L 252.484708 64.350906 
L 253.520408 63.557296 
L 254.545259 62.763685 
L 255.55024 61.970074 
L 256.526775 61.176464 
L 257.4668 60.382853 
L 258.362821 59.589242 
L 259.207963 58.795632 
L 259.996005 58.002021 
L 260.721403 57.20841 
L 261.379305 56.4148 
L 261.965561 55.621189 
L 262.476717 54.827578 
L 262.910012 54.033968 
L 263.263363 53.240357 
L 263.53535 52.446746 
L 263.7252 51.653136 
L 263.832764 50.859525 
L 263.858502 50.065914 
L 263.803459 49.272304 
L 263.669245 48.478693 
L 263.458021 47.685082 
L 263.172479 46.891472 
L 262.815824 46.097861 
L 262.39176 45.30425 
L 261.904472 44.51064 
L 261.35861 43.717029 
L 260.75927 42.923418 
L 260.111971 42.129808 
L 259.422635 41.336197 
L 258.697556 40.542586 
L 257.943371 39.748976 
L 257.167019 38.955365 
L 256.375699 38.161754 
L 255.576824 37.368144 
L 254.777962 36.574533 
L 253.986776 35.780922 
L 253.21096 34.987312 
L 252.458163 34.193701 
L 251.735919 33.40009 
L 251.051561 32.60648 
L 250.412147 31.812869 
L 249.824373 31.019259 
L 249.294495 30.225648 
L 248.828251 29.432037 
L 248.430788 28.638427 
L 248.106591 27.844816 
L 247.859428 27.051205 
L 247.692292 26.257595 
L 247.607366 25.463984 
L 247.60599 24.670373 
L 247.688646 23.876763 
L 247.854952 23.083152 
L 248.103673 22.289541 
L 248.432741 21.495931 
L 248.839293 20.70232 
L 249.319717 19.908709 
L 249.869712 19.115099 
L 250.484357 18.321488 
L 251.15819 17.527877 
L 251.885289 16.734267 
L 252.659369 15.940656 
L 253.473873 15.147045 
L 254.322065 14.353435 
L 255.197128 13.559824 
L 256.092258 12.766213 
L 291.553247 12.766213 
L 291.553247 12.766213 
L 292.448378 13.559824 
L 293.323441 14.353435 
L 294.171633 15.147045 
L 294.986136 15.940656 
L 295.760217 16.734267 
L 296.487316 17.527877 
L 297.161148 18.321488 
L 297.775794 19.115099 
L 298.325789 19.908709 
L 298.806213 20.70232 
L 299.212765 21.495931 
L 299.541833 22.289541 
L 299.790554 23.083152 
L 299.95686 23.876763 
L 300.039516 24.670373 
L 300.03814 25.463984 
L 299.953214 26.257595 
L 299.786078 27.051205 
L 299.538914 27.844816 
L 299.214718 28.638427 
L 298.817255 29.432037 
L 298.351011 30.225648 
L 297.821133 31.019259 
L 297.233359 31.812869 
L 296.593944 32.60648 
L 295.909587 33.40009 
L 295.187342 34.193701 
L 294.434546 34.987312 
L 293.65873 35.780922 
L 292.867544 36.574533 
L 292.068681 37.368144 
L 291.269806 38.161754 
L 290.478487 38.955365 
L 289.702135 39.748976 
L 288.947949 40.542586 
L 288.222871 41.336197 
L 287.533535 42.129808 
L 286.886236 42.923418 
L 286.286895 43.717029 
L 285.741033 44.51064 
L 285.253746 45.30425 
L 284.829682 46.097861 
L 284.473027 46.891472 
L 284.187485 47.685082 
L 283.976261 48.478693 
L 283.842047 49.272304 
L 283.787003 50.065914 
L 283.812741 50.859525 
L 283.920306 51.653136 
L 284.110156 52.446746 
L 284.382143 53.240357 
L 284.735493 54.033968 
L 285.168788 54.827578 
L 285.679945 55.621189 
L 286.266201 56.4148 
L 286.924103 57.20841 
L 287.649501 58.002021 
L 288.437542 58.795632 
L 289.282685 59.589242 
L 290.178706 60.382853 
L 291.11873 61.176464 
L 292.095265 61.970074 
L 293.100247 62.763685 
L 294.125097 63.557296 
L 295.160797 64.350906 
L 296.197966 65.144517 
L 297.226957 65.938128 
L 298.237957 66.731738 
L 299.2211 67.525349 
L 300.166587 68.31896 
L 301.064808 69.11257 
L 301.906467 69.906181 
L 302.682713 70.699792 
L 303.385257 71.493402 
L 304.006498 72.287013 
L 304.539627 73.080624 
L 304.978735 73.874234 
L 305.318891 74.667845 
L 305.556223 75.461455 
L 305.68797 76.255066 
L 305.712517 77.048677 
L 305.629416 77.842287 
L 305.439384 78.635898 
L 305.14428 79.429509 
L 304.747067 80.223119 
L 304.25175 81.01673 
L 303.6633 81.810341 
L 302.987567 82.603951 
L 302.231173 83.397562 
L 301.401398 84.191173 
L 300.50606 84.984783 
L 299.553389 85.778394 
L 298.551893 86.572005 
L 297.510236 87.365615 
L 296.437109 88.159226 
L 295.341111 88.952837 
L 294.230637 89.746447 
L 293.113777 90.540058 
L 291.998222 91.333669 
z
" clip-path="url(#p89d3139ee1)" style="fill: #1f77b4; fill-opacity: 0.3"/>
   </g>
   <g id="matplotlib.axis_1">
    <g id="xtick_1">
     <g id="line2d_1">
      <defs>
       <path id="m21d6fa843d" d="M 0 0 
L 0 3 
" style="stroke: #000000; stroke-width: 0.65"/>
      </defs>
      <g>
       <use xlink:href="#m21d6fa843d" x="96.657398" y="129.656693" style="stroke: #000000; stroke-width: 0.65"/>
      </g>
     </g>
     <g id="text_1">
      <!-- Early -->
      <g transform="translate(87.454156 140.05888) scale(0.085 -0.085)">
       <defs>
        <path id="TimesNewRomanPSMT-28" d="M 1338 4006 
L 1338 2331 
L 2269 2331 
Q 2631 2331 2753 2441 
Q 2916 2584 2934 2947 
L 3050 2947 
L 3050 1472 
L 2934 1472 
Q 2891 1781 2847 1869 
Q 2791 1978 2662 2040 
Q 2534 2103 2269 2103 
L 1338 2103 
L 1338 706 
Q 1338 425 1363 364 
Q 1388 303 1450 267 
Q 1513 231 1688 231 
L 2406 231 
Q 2766 231 2928 281 
Q 3091 331 3241 478 
Q 3434 672 3638 1063 
L 3763 1063 
L 3397 0 
L 131 0 
L 131 116 
L 281 116 
Q 431 116 566 188 
Q 666 238 702 338 
Q 738 438 738 747 
L 738 3500 
Q 738 3903 656 3997 
Q 544 4122 281 4122 
L 131 4122 
L 131 4238 
L 3397 4238 
L 3444 3309 
L 3322 3309 
Q 3256 3644 3176 3769 
Q 3097 3894 2941 3959 
Q 2816 4006 2500 4006 
L 1338 4006 
z
" transform="scale(0.015625)"/>
        <path id="TimesNewRomanPSMT-44" d="M 1822 413 
Q 1381 72 1269 19 
Q 1100 -59 909 -59 
Q 613 -59 420 144 
Q 228 347 228 678 
Q 228 888 322 1041 
Q 450 1253 767 1440 
Q 1084 1628 1822 1897 
L 1822 2009 
Q 1822 2438 1686 2597 
Q 1550 2756 1291 2756 
Q 1094 2756 978 2650 
Q 859 2544 859 2406 
L 866 2225 
Q 866 2081 792 2003 
Q 719 1925 600 1925 
Q 484 1925 411 2006 
Q 338 2088 338 2228 
Q 338 2497 613 2722 
Q 888 2947 1384 2947 
Q 1766 2947 2009 2819 
Q 2194 2722 2281 2516 
Q 2338 2381 2338 1966 
L 2338 994 
Q 2338 584 2353 492 
Q 2369 400 2405 369 
Q 2441 338 2488 338 
Q 2538 338 2575 359 
Q 2641 400 2828 588 
L 2828 413 
Q 2478 -56 2159 -56 
Q 2006 -56 1915 50 
Q 1825 156 1822 413 
z
M 1822 616 
L 1822 1706 
Q 1350 1519 1213 1441 
Q 966 1303 859 1153 
Q 753 1003 753 825 
Q 753 600 887 451 
Q 1022 303 1197 303 
Q 1434 303 1822 616 
z
" transform="scale(0.015625)"/>
        <path id="TimesNewRomanPSMT-55" d="M 1038 2947 
L 1038 2303 
Q 1397 2947 1775 2947 
Q 1947 2947 2059 2842 
Q 2172 2738 2172 2600 
Q 2172 2478 2090 2393 
Q 2009 2309 1897 2309 
Q 1788 2309 1652 2417 
Q 1516 2525 1450 2525 
Q 1394 2525 1328 2463 
Q 1188 2334 1038 2041 
L 1038 669 
Q 1038 431 1097 309 
Q 1138 225 1241 169 
Q 1344 113 1538 113 
L 1538 0 
L 72 0 
L 72 113 
Q 291 113 397 181 
Q 475 231 506 341 
Q 522 394 522 644 
L 522 1753 
Q 522 2253 501 2348 
Q 481 2444 426 2487 
Q 372 2531 291 2531 
Q 194 2531 72 2484 
L 41 2597 
L 906 2947 
L 1038 2947 
z
" transform="scale(0.015625)"/>
        <path id="TimesNewRomanPSMT-4f" d="M 1184 4444 
L 1184 647 
Q 1184 378 1223 290 
Q 1263 203 1344 158 
Q 1425 113 1647 113 
L 1647 0 
L 244 0 
L 244 113 
Q 441 113 512 153 
Q 584 194 625 287 
Q 666 381 666 647 
L 666 3247 
Q 666 3731 644 3842 
Q 622 3953 573 3993 
Q 525 4034 450 4034 
Q 369 4034 244 3984 
L 191 4094 
L 1044 4444 
L 1184 4444 
z
" transform="scale(0.015625)"/>
        <path id="TimesNewRomanPSMT-5c" d="M 38 2863 
L 1372 2863 
L 1372 2747 
L 1306 2747 
Q 1166 2747 1095 2686 
Q 1025 2625 1025 2534 
Q 1025 2413 1128 2197 
L 1825 753 
L 2466 2334 
Q 2519 2463 2519 2588 
Q 2519 2644 2497 2672 
Q 2472 2706 2419 2726 
Q 2366 2747 2231 2747 
L 2231 2863 
L 3163 2863 
L 3163 2747 
Q 3047 2734 2984 2696 
Q 2922 2659 2847 2556 
Q 2819 2513 2741 2316 
L 1575 -541 
Q 1406 -956 1132 -1168 
Q 859 -1381 606 -1381 
Q 422 -1381 303 -1275 
Q 184 -1169 184 -1031 
Q 184 -900 270 -820 
Q 356 -741 506 -741 
Q 609 -741 788 -809 
Q 913 -856 944 -856 
Q 1038 -856 1148 -759 
Q 1259 -663 1372 -384 
L 1575 113 
L 547 2272 
Q 500 2369 397 2513 
Q 319 2622 269 2659 
Q 197 2709 38 2747 
L 38 2863 
z
" transform="scale(0.015625)"/>
       </defs>
       <use xlink:href="#TimesNewRomanPSMT-28"/>
       <use xlink:href="#TimesNewRomanPSMT-44" transform="translate(61.078125 0)"/>
       <use xlink:href="#TimesNewRomanPSMT-55" transform="translate(105.46875 0)"/>
       <use xlink:href="#TimesNewRomanPSMT-4f" transform="translate(138.765625 0)"/>
       <use xlink:href="#TimesNewRomanPSMT-5c" transform="translate(166.546875 0)"/>
      </g>
     </g>
    </g>
    <g id="xtick_2">
     <g id="line2d_2">
      <g>
       <use xlink:href="#m21d6fa843d" x="185.240076" y="129.656693" style="stroke: #000000; stroke-width: 0.65"/>
      </g>
     </g>
     <g id="text_2">
      <!-- Middle -->
      <g transform="translate(172.962888 140.05888) scale(0.085 -0.085)">
       <defs>
        <path id="TimesNewRomanPSMT-30" d="M 2619 0 
L 981 3566 
L 981 734 
Q 981 344 1066 247 
Q 1181 116 1431 116 
L 1581 116 
L 1581 0 
L 106 0 
L 106 116 
L 256 116 
Q 525 116 638 278 
Q 706 378 706 734 
L 706 3503 
Q 706 3784 644 3909 
Q 600 4000 483 4061 
Q 366 4122 106 4122 
L 106 4238 
L 1306 4238 
L 2844 922 
L 4356 4238 
L 5556 4238 
L 5556 4122 
L 5409 4122 
Q 5138 4122 5025 3959 
Q 4956 3859 4956 3503 
L 4956 734 
Q 4956 344 5044 247 
Q 5159 116 5409 116 
L 5556 116 
L 5556 0 
L 3756 0 
L 3756 116 
L 3906 116 
Q 4178 116 4288 278 
Q 4356 378 4356 734 
L 4356 3566 
L 2722 0 
L 2619 0 
z
" transform="scale(0.015625)"/>
        <path id="TimesNewRomanPSMT-4c" d="M 928 4444 
Q 1059 4444 1151 4351 
Q 1244 4259 1244 4128 
Q 1244 3997 1151 3903 
Q 1059 3809 928 3809 
Q 797 3809 703 3903 
Q 609 3997 609 4128 
Q 609 4259 701 4351 
Q 794 4444 928 4444 
z
M 1188 2947 
L 1188 647 
Q 1188 378 1227 289 
Q 1266 200 1342 156 
Q 1419 113 1622 113 
L 1622 0 
L 231 0 
L 231 113 
Q 441 113 512 153 
Q 584 194 626 287 
Q 669 381 669 647 
L 669 1750 
Q 669 2216 641 2353 
Q 619 2453 572 2492 
Q 525 2531 444 2531 
Q 356 2531 231 2484 
L 188 2597 
L 1050 2947 
L 1188 2947 
z
" transform="scale(0.015625)"/>
        <path id="TimesNewRomanPSMT-47" d="M 2222 322 
Q 2013 103 1813 7 
Q 1613 -88 1381 -88 
Q 913 -88 563 304 
Q 213 697 213 1313 
Q 213 1928 600 2439 
Q 988 2950 1597 2950 
Q 1975 2950 2222 2709 
L 2222 3238 
Q 2222 3728 2198 3840 
Q 2175 3953 2125 3993 
Q 2075 4034 2000 4034 
Q 1919 4034 1784 3984 
L 1744 4094 
L 2597 4444 
L 2738 4444 
L 2738 1134 
Q 2738 631 2761 520 
Q 2784 409 2836 365 
Q 2888 322 2956 322 
Q 3041 322 3181 375 
L 3216 266 
L 2366 -88 
L 2222 -88 
L 2222 322 
z
M 2222 541 
L 2222 2016 
Q 2203 2228 2109 2403 
Q 2016 2578 1861 2667 
Q 1706 2756 1559 2756 
Q 1284 2756 1069 2509 
Q 784 2184 784 1559 
Q 784 928 1059 592 
Q 1334 256 1672 256 
Q 1956 256 2222 541 
z
" transform="scale(0.015625)"/>
        <path id="TimesNewRomanPSMT-48" d="M 681 1784 
Q 678 1147 991 784 
Q 1303 422 1725 422 
Q 2006 422 2214 576 
Q 2422 731 2563 1106 
L 2659 1044 
Q 2594 616 2278 264 
Q 1963 -88 1488 -88 
Q 972 -88 605 314 
Q 238 716 238 1394 
Q 238 2128 614 2539 
Q 991 2950 1559 2950 
Q 2041 2950 2350 2633 
Q 2659 2316 2659 1784 
L 681 1784 
z
M 681 1966 
L 2006 1966 
Q 1991 2241 1941 2353 
Q 1863 2528 1708 2628 
Q 1553 2728 1384 2728 
Q 1125 2728 920 2526 
Q 716 2325 681 1966 
z
" transform="scale(0.015625)"/>
       </defs>
       <use xlink:href="#TimesNewRomanPSMT-30"/>
       <use xlink:href="#TimesNewRomanPSMT-4c" transform="translate(88.921875 0)"/>
       <use xlink:href="#TimesNewRomanPSMT-47" transform="translate(116.703125 0)"/>
       <use xlink:href="#TimesNewRomanPSMT-47" transform="translate(166.703125 0)"/>
       <use xlink:href="#TimesNewRomanPSMT-4f" transform="translate(216.703125 0)"/>
       <use xlink:href="#TimesNewRomanPSMT-48" transform="translate(244.484375 0)"/>
      </g>
     </g>
    </g>
    <g id="xtick_3">
     <g id="line2d_3">
      <g>
       <use xlink:href="#m21d6fa843d" x="273.822753" y="129.656693" style="stroke: #000000; stroke-width: 0.65"/>
      </g>
     </g>
     <g id="text_3">
      <!-- Late -->
      <g transform="translate(266.273026 140.050248) scale(0.085 -0.085)">
       <defs>
        <path id="TimesNewRomanPSMT-2f" d="M 3669 1172 
L 3772 1150 
L 3409 0 
L 128 0 
L 128 116 
L 288 116 
Q 556 116 672 291 
Q 738 391 738 753 
L 738 3488 
Q 738 3884 650 3984 
Q 528 4122 288 4122 
L 128 4122 
L 128 4238 
L 2047 4238 
L 2047 4122 
Q 1709 4125 1573 4059 
Q 1438 3994 1388 3894 
Q 1338 3794 1338 3416 
L 1338 753 
Q 1338 494 1388 397 
Q 1425 331 1503 300 
Q 1581 269 1991 269 
L 2300 269 
Q 2788 269 2984 341 
Q 3181 413 3343 595 
Q 3506 778 3669 1172 
z
" transform="scale(0.015625)"/>
        <path id="TimesNewRomanPSMT-57" d="M 1031 3803 
L 1031 2863 
L 1700 2863 
L 1700 2644 
L 1031 2644 
L 1031 788 
Q 1031 509 1111 412 
Q 1191 316 1316 316 
Q 1419 316 1516 380 
Q 1613 444 1666 569 
L 1788 569 
Q 1678 263 1478 108 
Q 1278 -47 1066 -47 
Q 922 -47 784 33 
Q 647 113 581 261 
Q 516 409 516 719 
L 516 2644 
L 63 2644 
L 63 2747 
Q 234 2816 414 2980 
Q 594 3144 734 3369 
Q 806 3488 934 3803 
L 1031 3803 
z
" transform="scale(0.015625)"/>
       </defs>
       <use xlink:href="#TimesNewRomanPSMT-2f"/>
       <use xlink:href="#TimesNewRomanPSMT-44" transform="translate(61.078125 0)"/>
       <use xlink:href="#TimesNewRomanPSMT-57" transform="translate(105.46875 0)"/>
       <use xlink:href="#TimesNewRomanPSMT-48" transform="translate(133.25 0)"/>
      </g>
     </g>
    </g>
   </g>
   <g id="matplotlib.axis_2">
    <g id="ytick_1">
     <g id="line2d_4">
      <defs>
       <path id="mc39f9e94aa" d="M 0 0 
L -3 0 
" style="stroke: #000000; stroke-width: 0.65"/>
      </defs>
      <g>
       <use xlink:href="#mc39f9e94aa" x="52.720391" y="128.539539" style="stroke: #000000; stroke-width: 0.65"/>
      </g>
     </g>
     <g id="text_4">
      <!-- 1 -->
      <g transform="translate(43.970391 131.486316) scale(0.085 -0.085)">
       <defs>
        <path id="TimesNewRomanPSMT-14" d="M 750 3822 
L 1781 4325 
L 1884 4325 
L 1884 747 
Q 1884 391 1914 303 
Q 1944 216 2037 169 
Q 2131 122 2419 116 
L 2419 0 
L 825 0 
L 825 116 
Q 1125 122 1212 167 
Q 1300 213 1334 289 
Q 1369 366 1369 747 
L 1369 3034 
Q 1369 3497 1338 3628 
Q 1316 3728 1258 3775 
Q 1200 3822 1119 3822 
Q 1003 3822 797 3725 
L 750 3822 
z
" transform="scale(0.015625)"/>
       </defs>
       <use xlink:href="#TimesNewRomanPSMT-14"/>
      </g>
     </g>
    </g>
    <g id="ytick_2">
     <g id="line2d_5">
      <g>
       <use xlink:href="#mc39f9e94aa" x="52.720391" y="104.094158" style="stroke: #000000; stroke-width: 0.65"/>
      </g>
     </g>
     <g id="text_5">
      <!-- 2 -->
      <g transform="translate(43.970391 107.040935) scale(0.085 -0.085)">
       <defs>
        <path id="TimesNewRomanPSMT-15" d="M 2934 816 
L 2638 0 
L 138 0 
L 138 116 
Q 1241 1122 1691 1759 
Q 2141 2397 2141 2925 
Q 2141 3328 1894 3587 
Q 1647 3847 1303 3847 
Q 991 3847 742 3664 
Q 494 3481 375 3128 
L 259 3128 
Q 338 3706 661 4015 
Q 984 4325 1469 4325 
Q 1984 4325 2329 3994 
Q 2675 3663 2675 3213 
Q 2675 2891 2525 2569 
Q 2294 2063 1775 1497 
Q 997 647 803 472 
L 1909 472 
Q 2247 472 2383 497 
Q 2519 522 2628 598 
Q 2738 675 2819 816 
L 2934 816 
z
" transform="scale(0.015625)"/>
       </defs>
       <use xlink:href="#TimesNewRomanPSMT-15"/>
      </g>
     </g>
    </g>
    <g id="ytick_3">
     <g id="line2d_6">
      <g>
       <use xlink:href="#mc39f9e94aa" x="52.720391" y="79.648776" style="stroke: #000000; stroke-width: 0.65"/>
      </g>
     </g>
     <g id="text_6">
      <!-- 3 -->
      <g transform="translate(43.970391 82.595554) scale(0.085 -0.085)">
       <defs>
        <path id="TimesNewRomanPSMT-16" d="M 325 3431 
Q 506 3859 782 4092 
Q 1059 4325 1472 4325 
Q 1981 4325 2253 3994 
Q 2459 3747 2459 3466 
Q 2459 3003 1878 2509 
Q 2269 2356 2469 2072 
Q 2669 1788 2669 1403 
Q 2669 853 2319 450 
Q 1863 -75 997 -75 
Q 569 -75 414 31 
Q 259 138 259 259 
Q 259 350 332 419 
Q 406 488 509 488 
Q 588 488 669 463 
Q 722 447 909 348 
Q 1097 250 1169 231 
Q 1284 197 1416 197 
Q 1734 197 1970 444 
Q 2206 691 2206 1028 
Q 2206 1275 2097 1509 
Q 2016 1684 1919 1775 
Q 1784 1900 1550 2001 
Q 1316 2103 1072 2103 
L 972 2103 
L 972 2197 
Q 1219 2228 1467 2375 
Q 1716 2522 1828 2728 
Q 1941 2934 1941 3181 
Q 1941 3503 1739 3701 
Q 1538 3900 1238 3900 
Q 753 3900 428 3381 
L 325 3431 
z
" transform="scale(0.015625)"/>
       </defs>
       <use xlink:href="#TimesNewRomanPSMT-16"/>
      </g>
     </g>
    </g>
    <g id="ytick_4">
     <g id="line2d_7">
      <g>
       <use xlink:href="#mc39f9e94aa" x="52.720391" y="55.203395" style="stroke: #000000; stroke-width: 0.65"/>
      </g>
     </g>
     <g id="text_7">
      <!-- 4 -->
      <g transform="translate(43.970391 58.150173) scale(0.085 -0.085)">
       <defs>
        <path id="TimesNewRomanPSMT-17" d="M 2978 1563 
L 2978 1119 
L 2409 1119 
L 2409 0 
L 1894 0 
L 1894 1119 
L 100 1119 
L 100 1519 
L 2066 4325 
L 2409 4325 
L 2409 1563 
L 2978 1563 
z
M 1894 1563 
L 1894 3666 
L 406 1563 
L 1894 1563 
z
" transform="scale(0.015625)"/>
       </defs>
       <use xlink:href="#TimesNewRomanPSMT-17"/>
      </g>
     </g>
    </g>
    <g id="ytick_5">
     <g id="line2d_8">
      <g>
       <use xlink:href="#mc39f9e94aa" x="52.720391" y="30.758014" style="stroke: #000000; stroke-width: 0.65"/>
      </g>
     </g>
     <g id="text_8">
      <!-- 5 -->
      <g transform="translate(43.970391 33.704791) scale(0.085 -0.085)">
       <defs>
        <path id="TimesNewRomanPSMT-18" d="M 2778 4238 
L 2534 3706 
L 1259 3706 
L 981 3138 
Q 1809 3016 2294 2522 
Q 2709 2097 2709 1522 
Q 2709 1188 2573 903 
Q 2438 619 2231 419 
Q 2025 219 1772 97 
Q 1413 -75 1034 -75 
Q 653 -75 479 54 
Q 306 184 306 341 
Q 306 428 378 495 
Q 450 563 559 563 
Q 641 563 702 538 
Q 763 513 909 409 
Q 1144 247 1384 247 
Q 1750 247 2026 523 
Q 2303 800 2303 1197 
Q 2303 1581 2056 1914 
Q 1809 2247 1375 2428 
Q 1034 2569 447 2591 
L 1259 4238 
L 2778 4238 
z
" transform="scale(0.015625)"/>
       </defs>
       <use xlink:href="#TimesNewRomanPSMT-18"/>
      </g>
     </g>
    </g>
   </g>
   <g id="LineCollection_1">
    <path d="M 80.712517 64.443749 
L 112.60228 64.443749 
" clip-path="url(#p89d3139ee1)" style="fill: none; stroke: #1f77b4; stroke-width: 1.5"/>
    <path d="M 169.295194 39.436124 
L 201.184958 39.436124 
" clip-path="url(#p89d3139ee1)" style="fill: none; stroke: #1f77b4; stroke-width: 1.5"/>
    <path d="M 257.877871 12.766213 
L 289.767635 12.766213 
" clip-path="url(#p89d3139ee1)" style="fill: none; stroke: #1f77b4; stroke-width: 1.5"/>
   </g>
   <g id="LineCollection_2">
    <path d="M 80.712517 124.09048 
L 112.60228 124.09048 
" clip-path="url(#p89d3139ee1)" style="fill: none; stroke: #1f77b4; stroke-width: 1.5"/>
    <path d="M 169.295194 105.805334 
L 201.184958 105.805334 
" clip-path="url(#p89d3139ee1)" style="fill: none; stroke: #1f77b4; stroke-width: 1.5"/>
    <path d="M 257.877871 91.333669 
L 289.767635 91.333669 
" clip-path="url(#p89d3139ee1)" style="fill: none; stroke: #1f77b4; stroke-width: 1.5"/>
   </g>
   <g id="LineCollection_3">
    <path d="M 96.657398 124.09048 
L 96.657398 64.443749 
" clip-path="url(#p89d3139ee1)" style="fill: none; stroke: #1f77b4; stroke-width: 1.5"/>
    <path d="M 185.240076 105.805334 
L 185.240076 39.436124 
" clip-path="url(#p89d3139ee1)" style="fill: none; stroke: #1f77b4; stroke-width: 1.5"/>
    <path d="M 273.822753 91.333669 
L 273.822753 12.766213 
" clip-path="url(#p89d3139ee1)" style="fill: none; stroke: #1f77b4; stroke-width: 1.5"/>
   </g>
   <g id="LineCollection_4">
    <path d="M 80.712517 100.207342 
L 112.60228 100.207342 
" clip-path="url(#p89d3139ee1)" style="fill: none; stroke: #1f77b4; stroke-width: 1.5"/>
    <path d="M 169.295194 79.07431 
L 201.184958 79.07431 
" clip-path="url(#p89d3139ee1)" style="fill: none; stroke: #1f77b4; stroke-width: 1.5"/>
    <path d="M 257.877871 68.795027 
L 289.767635 68.795027 
" clip-path="url(#p89d3139ee1)" style="fill: none; stroke: #1f77b4; stroke-width: 1.5"/>
   </g>
   <g id="patch_3">
    <path d="M 52.720391 129.656693 
L 52.720391 7.2 
" style="fill: none; stroke: #000000; stroke-width: 0.65; stroke-linejoin: miter; stroke-linecap: square"/>
   </g>
   <g id="patch_4">
    <path d="M 52.720391 129.656693 
L 317.759761 129.656693 
" style="fill: none; stroke: #000000; stroke-width: 0.65; stroke-linejoin: miter; stroke-linecap: square"/>
   </g>
   <g id="PathCollection_1">
    <defs>
     <path id="m4dc08cb012" d="M 0 2 
C 0.530406 2 1.03916 1.789267 1.414214 1.414214 
C 1.789267 1.03916 2 0.530406 2 0 
C 2 -0.530406 1.789267 -1.03916 1.414214 -1.414214 
C 1.03916 -1.789267 0.530406 -2 0 -2 
C -0.530406 -2 -1.03916 -1.789267 -1.414214 -1.414214 
C -1.789267 -1.03916 -2 -0.530406 -2 0 
C -2 0.530406 -1.789267 1.03916 -1.414214 1.414214 
C -1.03916 1.789267 -0.530406 2 0 2 
z
" style="stroke: #0072b2; stroke-opacity: 0.8"/>
    </defs>
    <g clip-path="url(#p89d3139ee1)">
     <use xlink:href="#m4dc08cb012" x="89.570784" y="113.163394" style="fill: #0072b2; fill-opacity: 0.8; stroke: #0072b2; stroke-opacity: 0.8"/>
     <use xlink:href="#m4dc08cb012" x="89.885745" y="105.438654" style="fill: #0072b2; fill-opacity: 0.8; stroke: #0072b2; stroke-opacity: 0.8"/>
     <use xlink:href="#m4dc08cb012" x="90.200706" y="110.449957" style="fill: #0072b2; fill-opacity: 0.8; stroke: #0072b2; stroke-opacity: 0.8"/>
     <use xlink:href="#m4dc08cb012" x="90.515666" y="114.532336" style="fill: #0072b2; fill-opacity: 0.8; stroke: #0072b2; stroke-opacity: 0.8"/>
     <use xlink:href="#m4dc08cb012" x="90.830627" y="115.167915" style="fill: #0072b2; fill-opacity: 0.8; stroke: #0072b2; stroke-opacity: 0.8"/>
     <use xlink:href="#m4dc08cb012" x="91.145587" y="114.727899" style="fill: #0072b2; fill-opacity: 0.8; stroke: #0072b2; stroke-opacity: 0.8"/>
     <use xlink:href="#m4dc08cb012" x="91.460548" y="112.307806" style="fill: #0072b2; fill-opacity: 0.8; stroke: #0072b2; stroke-opacity: 0.8"/>
     <use xlink:href="#m4dc08cb012" x="91.775509" y="112.650041" style="fill: #0072b2; fill-opacity: 0.8; stroke: #0072b2; stroke-opacity: 0.8"/>
     <use xlink:href="#m4dc08cb012" x="92.090469" y="114.361218" style="fill: #0072b2; fill-opacity: 0.8; stroke: #0072b2; stroke-opacity: 0.8"/>
     <use xlink:href="#m4dc08cb012" x="92.40543" y="106.636477" style="fill: #0072b2; fill-opacity: 0.8; stroke: #0072b2; stroke-opacity: 0.8"/>
     <use xlink:href="#m4dc08cb012" x="92.720391" y="102.725216" style="fill: #0072b2; fill-opacity: 0.8; stroke: #0072b2; stroke-opacity: 0.8"/>
     <use xlink:href="#m4dc08cb012" x="93.035351" y="114.703453" style="fill: #0072b2; fill-opacity: 0.8; stroke: #0072b2; stroke-opacity: 0.8"/>
     <use xlink:href="#m4dc08cb012" x="93.350312" y="107.809856" style="fill: #0072b2; fill-opacity: 0.8; stroke: #0072b2; stroke-opacity: 0.8"/>
     <use xlink:href="#m4dc08cb012" x="93.665273" y="99.131745" style="fill: #0072b2; fill-opacity: 0.8; stroke: #0072b2; stroke-opacity: 0.8"/>
     <use xlink:href="#m4dc08cb012" x="93.980233" y="109.301024" style="fill: #0072b2; fill-opacity: 0.8; stroke: #0072b2; stroke-opacity: 0.8"/>
     <use xlink:href="#m4dc08cb012" x="94.295194" y="101.796292" style="fill: #0072b2; fill-opacity: 0.8; stroke: #0072b2; stroke-opacity: 0.8"/>
     <use xlink:href="#m4dc08cb012" x="94.610154" y="111.158873" style="fill: #0072b2; fill-opacity: 0.8; stroke: #0072b2; stroke-opacity: 0.8"/>
     <use xlink:href="#m4dc08cb012" x="94.925115" y="103.067452" style="fill: #0072b2; fill-opacity: 0.8; stroke: #0072b2; stroke-opacity: 0.8"/>
     <use xlink:href="#m4dc08cb012" x="95.240076" y="114.630117" style="fill: #0072b2; fill-opacity: 0.8; stroke: #0072b2; stroke-opacity: 0.8"/>
     <use xlink:href="#m4dc08cb012" x="95.555036" y="113.334512" style="fill: #0072b2; fill-opacity: 0.8; stroke: #0072b2; stroke-opacity: 0.8"/>
     <use xlink:href="#m4dc08cb012" x="95.869997" y="124.09048" style="fill: #0072b2; fill-opacity: 0.8; stroke: #0072b2; stroke-opacity: 0.8"/>
     <use xlink:href="#m4dc08cb012" x="96.184958" y="99.082855" style="fill: #0072b2; fill-opacity: 0.8; stroke: #0072b2; stroke-opacity: 0.8"/>
     <use xlink:href="#m4dc08cb012" x="96.499918" y="102.480763" style="fill: #0072b2; fill-opacity: 0.8; stroke: #0072b2; stroke-opacity: 0.8"/>
     <use xlink:href="#m4dc08cb012" x="96.814879" y="120.350336" style="fill: #0072b2; fill-opacity: 0.8; stroke: #0072b2; stroke-opacity: 0.8"/>
     <use xlink:href="#m4dc08cb012" x="97.129839" y="101.282939" style="fill: #0072b2; fill-opacity: 0.8; stroke: #0072b2; stroke-opacity: 0.8"/>
     <use xlink:href="#m4dc08cb012" x="97.4448" y="84.904533" style="fill: #0072b2; fill-opacity: 0.8; stroke: #0072b2; stroke-opacity: 0.8"/>
     <use xlink:href="#m4dc08cb012" x="97.759761" y="83.413365" style="fill: #0072b2; fill-opacity: 0.8; stroke: #0072b2; stroke-opacity: 0.8"/>
     <use xlink:href="#m4dc08cb012" x="98.074721" y="74.7597" style="fill: #0072b2; fill-opacity: 0.8; stroke: #0072b2; stroke-opacity: 0.8"/>
     <use xlink:href="#m4dc08cb012" x="98.389682" y="82.142205" style="fill: #0072b2; fill-opacity: 0.8; stroke: #0072b2; stroke-opacity: 0.8"/>
     <use xlink:href="#m4dc08cb012" x="98.704643" y="74.001893" style="fill: #0072b2; fill-opacity: 0.8; stroke: #0072b2; stroke-opacity: 0.8"/>
     <use xlink:href="#m4dc08cb012" x="99.019603" y="78.817633" style="fill: #0072b2; fill-opacity: 0.8; stroke: #0072b2; stroke-opacity: 0.8"/>
     <use xlink:href="#m4dc08cb012" x="99.334564" y="82.973348" style="fill: #0072b2; fill-opacity: 0.8; stroke: #0072b2; stroke-opacity: 0.8"/>
     <use xlink:href="#m4dc08cb012" x="99.649524" y="76.373095" style="fill: #0072b2; fill-opacity: 0.8; stroke: #0072b2; stroke-opacity: 0.8"/>
     <use xlink:href="#m4dc08cb012" x="99.964485" y="81.262172" style="fill: #0072b2; fill-opacity: 0.8; stroke: #0072b2; stroke-opacity: 0.8"/>
     <use xlink:href="#m4dc08cb012" x="100.279446" y="64.443749" style="fill: #0072b2; fill-opacity: 0.8; stroke: #0072b2; stroke-opacity: 0.8"/>
     <use xlink:href="#m4dc08cb012" x="100.594406" y="65.421565" style="fill: #0072b2; fill-opacity: 0.8; stroke: #0072b2; stroke-opacity: 0.8"/>
     <use xlink:href="#m4dc08cb012" x="100.909367" y="78.768743" style="fill: #0072b2; fill-opacity: 0.8; stroke: #0072b2; stroke-opacity: 0.8"/>
     <use xlink:href="#m4dc08cb012" x="101.224328" y="71.337347" style="fill: #0072b2; fill-opacity: 0.8; stroke: #0072b2; stroke-opacity: 0.8"/>
     <use xlink:href="#m4dc08cb012" x="101.539288" y="72.779624" style="fill: #0072b2; fill-opacity: 0.8; stroke: #0072b2; stroke-opacity: 0.8"/>
     <use xlink:href="#m4dc08cb012" x="101.854249" y="69.528389" style="fill: #0072b2; fill-opacity: 0.8; stroke: #0072b2; stroke-opacity: 0.8"/>
     <use xlink:href="#m4dc08cb012" x="102.16921" y="79.917676" style="fill: #0072b2; fill-opacity: 0.8; stroke: #0072b2; stroke-opacity: 0.8"/>
     <use xlink:href="#m4dc08cb012" x="102.48417" y="65.005993" style="fill: #0072b2; fill-opacity: 0.8; stroke: #0072b2; stroke-opacity: 0.8"/>
     <use xlink:href="#m4dc08cb012" x="102.799131" y="79.20876" style="fill: #0072b2; fill-opacity: 0.8; stroke: #0072b2; stroke-opacity: 0.8"/>
     <use xlink:href="#m4dc08cb012" x="103.114091" y="70.628431" style="fill: #0072b2; fill-opacity: 0.8; stroke: #0072b2; stroke-opacity: 0.8"/>
     <use xlink:href="#m4dc08cb012" x="103.429052" y="85.784567" style="fill: #0072b2; fill-opacity: 0.8; stroke: #0072b2; stroke-opacity: 0.8"/>
     <use xlink:href="#m4dc08cb012" x="103.744013" y="82.142205" style="fill: #0072b2; fill-opacity: 0.8; stroke: #0072b2; stroke-opacity: 0.8"/>
    </g>
   </g>
   <g id="PathCollection_2">
    <g clip-path="url(#p89d3139ee1)">
     <use xlink:href="#m4dc08cb012" x="178.153461" y="91.235887" style="fill: #0072b2; fill-opacity: 0.8; stroke: #0072b2; stroke-opacity: 0.8"/>
     <use xlink:href="#m4dc08cb012" x="178.468422" y="82.264432" style="fill: #0072b2; fill-opacity: 0.8; stroke: #0072b2; stroke-opacity: 0.8"/>
     <use xlink:href="#m4dc08cb012" x="178.783383" y="83.877827" style="fill: #0072b2; fill-opacity: 0.8; stroke: #0072b2; stroke-opacity: 0.8"/>
     <use xlink:href="#m4dc08cb012" x="179.098343" y="84.440071" style="fill: #0072b2; fill-opacity: 0.8; stroke: #0072b2; stroke-opacity: 0.8"/>
     <use xlink:href="#m4dc08cb012" x="179.413304" y="88.571341" style="fill: #0072b2; fill-opacity: 0.8; stroke: #0072b2; stroke-opacity: 0.8"/>
     <use xlink:href="#m4dc08cb012" x="179.728265" y="95.171594" style="fill: #0072b2; fill-opacity: 0.8; stroke: #0072b2; stroke-opacity: 0.8"/>
     <use xlink:href="#m4dc08cb012" x="180.043225" y="82.728894" style="fill: #0072b2; fill-opacity: 0.8; stroke: #0072b2; stroke-opacity: 0.8"/>
     <use xlink:href="#m4dc08cb012" x="180.358186" y="94.511568" style="fill: #0072b2; fill-opacity: 0.8; stroke: #0072b2; stroke-opacity: 0.8"/>
     <use xlink:href="#m4dc08cb012" x="180.673147" y="96.369417" style="fill: #0072b2; fill-opacity: 0.8; stroke: #0072b2; stroke-opacity: 0.8"/>
     <use xlink:href="#m4dc08cb012" x="180.988107" y="83.413365" style="fill: #0072b2; fill-opacity: 0.8; stroke: #0072b2; stroke-opacity: 0.8"/>
     <use xlink:href="#m4dc08cb012" x="181.303068" y="81.79997" style="fill: #0072b2; fill-opacity: 0.8; stroke: #0072b2; stroke-opacity: 0.8"/>
     <use xlink:href="#m4dc08cb012" x="181.618028" y="90.79587" style="fill: #0072b2; fill-opacity: 0.8; stroke: #0072b2; stroke-opacity: 0.8"/>
     <use xlink:href="#m4dc08cb012" x="181.932989" y="77.644255" style="fill: #0072b2; fill-opacity: 0.8; stroke: #0072b2; stroke-opacity: 0.8"/>
     <use xlink:href="#m4dc08cb012" x="182.24795" y="90.062509" style="fill: #0072b2; fill-opacity: 0.8; stroke: #0072b2; stroke-opacity: 0.8"/>
     <use xlink:href="#m4dc08cb012" x="182.56291" y="95.904955" style="fill: #0072b2; fill-opacity: 0.8; stroke: #0072b2; stroke-opacity: 0.8"/>
     <use xlink:href="#m4dc08cb012" x="182.877871" y="82.924458" style="fill: #0072b2; fill-opacity: 0.8; stroke: #0072b2; stroke-opacity: 0.8"/>
     <use xlink:href="#m4dc08cb012" x="183.192832" y="77.668701" style="fill: #0072b2; fill-opacity: 0.8; stroke: #0072b2; stroke-opacity: 0.8"/>
     <use xlink:href="#m4dc08cb012" x="183.507792" y="80.479919" style="fill: #0072b2; fill-opacity: 0.8; stroke: #0072b2; stroke-opacity: 0.8"/>
     <use xlink:href="#m4dc08cb012" x="183.822753" y="88.449114" style="fill: #0072b2; fill-opacity: 0.8; stroke: #0072b2; stroke-opacity: 0.8"/>
     <use xlink:href="#m4dc08cb012" x="184.137713" y="105.805334" style="fill: #0072b2; fill-opacity: 0.8; stroke: #0072b2; stroke-opacity: 0.8"/>
     <use xlink:href="#m4dc08cb012" x="184.452674" y="84.293399" style="fill: #0072b2; fill-opacity: 0.8; stroke: #0072b2; stroke-opacity: 0.8"/>
     <use xlink:href="#m4dc08cb012" x="184.767635" y="102.798553" style="fill: #0072b2; fill-opacity: 0.8; stroke: #0072b2; stroke-opacity: 0.8"/>
     <use xlink:href="#m4dc08cb012" x="185.082595" y="92.800392" style="fill: #0072b2; fill-opacity: 0.8; stroke: #0072b2; stroke-opacity: 0.8"/>
     <use xlink:href="#m4dc08cb012" x="185.397556" y="94.584904" style="fill: #0072b2; fill-opacity: 0.8; stroke: #0072b2; stroke-opacity: 0.8"/>
     <use xlink:href="#m4dc08cb012" x="185.712517" y="103.580805" style="fill: #0072b2; fill-opacity: 0.8; stroke: #0072b2; stroke-opacity: 0.8"/>
     <use xlink:href="#m4dc08cb012" x="186.027477" y="60.263589" style="fill: #0072b2; fill-opacity: 0.8; stroke: #0072b2; stroke-opacity: 0.8"/>
     <use xlink:href="#m4dc08cb012" x="186.342438" y="58.943539" style="fill: #0072b2; fill-opacity: 0.8; stroke: #0072b2; stroke-opacity: 0.8"/>
     <use xlink:href="#m4dc08cb012" x="186.657398" y="45.131898" style="fill: #0072b2; fill-opacity: 0.8; stroke: #0072b2; stroke-opacity: 0.8"/>
     <use xlink:href="#m4dc08cb012" x="186.972359" y="44.398537" style="fill: #0072b2; fill-opacity: 0.8; stroke: #0072b2; stroke-opacity: 0.8"/>
     <use xlink:href="#m4dc08cb012" x="187.28732" y="39.436124" style="fill: #0072b2; fill-opacity: 0.8; stroke: #0072b2; stroke-opacity: 0.8"/>
     <use xlink:href="#m4dc08cb012" x="187.60228" y="47.209756" style="fill: #0072b2; fill-opacity: 0.8; stroke: #0072b2; stroke-opacity: 0.8"/>
     <use xlink:href="#m4dc08cb012" x="187.917241" y="65.910472" style="fill: #0072b2; fill-opacity: 0.8; stroke: #0072b2; stroke-opacity: 0.8"/>
     <use xlink:href="#m4dc08cb012" x="188.232202" y="60.483598" style="fill: #0072b2; fill-opacity: 0.8; stroke: #0072b2; stroke-opacity: 0.8"/>
     <use xlink:href="#m4dc08cb012" x="188.547162" y="71.337347" style="fill: #0072b2; fill-opacity: 0.8; stroke: #0072b2; stroke-opacity: 0.8"/>
     <use xlink:href="#m4dc08cb012" x="188.862123" y="60.605824" style="fill: #0072b2; fill-opacity: 0.8; stroke: #0072b2; stroke-opacity: 0.8"/>
     <use xlink:href="#m4dc08cb012" x="189.177084" y="54.910051" style="fill: #0072b2; fill-opacity: 0.8; stroke: #0072b2; stroke-opacity: 0.8"/>
     <use xlink:href="#m4dc08cb012" x="189.492044" y="43.982965" style="fill: #0072b2; fill-opacity: 0.8; stroke: #0072b2; stroke-opacity: 0.8"/>
     <use xlink:href="#m4dc08cb012" x="189.807005" y="63.392598" style="fill: #0072b2; fill-opacity: 0.8; stroke: #0072b2; stroke-opacity: 0.8"/>
     <use xlink:href="#m4dc08cb012" x="190.121965" y="52.31884" style="fill: #0072b2; fill-opacity: 0.8; stroke: #0072b2; stroke-opacity: 0.8"/>
     <use xlink:href="#m4dc08cb012" x="190.436926" y="54.494479" style="fill: #0072b2; fill-opacity: 0.8; stroke: #0072b2; stroke-opacity: 0.8"/>
     <use xlink:href="#m4dc08cb012" x="190.751887" y="44.496318" style="fill: #0072b2; fill-opacity: 0.8; stroke: #0072b2; stroke-opacity: 0.8"/>
     <use xlink:href="#m4dc08cb012" x="191.066847" y="50.36321" style="fill: #0072b2; fill-opacity: 0.8; stroke: #0072b2; stroke-opacity: 0.8"/>
     <use xlink:href="#m4dc08cb012" x="191.381808" y="61.95032" style="fill: #0072b2; fill-opacity: 0.8; stroke: #0072b2; stroke-opacity: 0.8"/>
     <use xlink:href="#m4dc08cb012" x="191.696769" y="56.230101" style="fill: #0072b2; fill-opacity: 0.8; stroke: #0072b2; stroke-opacity: 0.8"/>
     <use xlink:href="#m4dc08cb012" x="192.011729" y="71.435128" style="fill: #0072b2; fill-opacity: 0.8; stroke: #0072b2; stroke-opacity: 0.8"/>
     <use xlink:href="#m4dc08cb012" x="192.32669" y="46.060823" style="fill: #0072b2; fill-opacity: 0.8; stroke: #0072b2; stroke-opacity: 0.8"/>
    </g>
   </g>
   <g id="PathCollection_3">
    <g clip-path="url(#p89d3139ee1)">
     <use xlink:href="#m4dc08cb012" x="266.736139" y="80.8466" style="fill: #0072b2; fill-opacity: 0.8; stroke: #0072b2; stroke-opacity: 0.8"/>
     <use xlink:href="#m4dc08cb012" x="267.051099" y="87.373517" style="fill: #0072b2; fill-opacity: 0.8; stroke: #0072b2; stroke-opacity: 0.8"/>
     <use xlink:href="#m4dc08cb012" x="267.36606" y="74.07523" style="fill: #0072b2; fill-opacity: 0.8; stroke: #0072b2; stroke-opacity: 0.8"/>
     <use xlink:href="#m4dc08cb012" x="267.681021" y="83.38892" style="fill: #0072b2; fill-opacity: 0.8; stroke: #0072b2; stroke-opacity: 0.8"/>
     <use xlink:href="#m4dc08cb012" x="267.995981" y="79.697667" style="fill: #0072b2; fill-opacity: 0.8; stroke: #0072b2; stroke-opacity: 0.8"/>
     <use xlink:href="#m4dc08cb012" x="268.310942" y="76.177532" style="fill: #0072b2; fill-opacity: 0.8; stroke: #0072b2; stroke-opacity: 0.8"/>
     <use xlink:href="#m4dc08cb012" x="268.625902" y="77.693146" style="fill: #0072b2; fill-opacity: 0.8; stroke: #0072b2; stroke-opacity: 0.8"/>
     <use xlink:href="#m4dc08cb012" x="268.940863" y="77.033121" style="fill: #0072b2; fill-opacity: 0.8; stroke: #0072b2; stroke-opacity: 0.8"/>
     <use xlink:href="#m4dc08cb012" x="269.255824" y="74.710809" style="fill: #0072b2; fill-opacity: 0.8; stroke: #0072b2; stroke-opacity: 0.8"/>
     <use xlink:href="#m4dc08cb012" x="269.570784" y="72.388498" style="fill: #0072b2; fill-opacity: 0.8; stroke: #0072b2; stroke-opacity: 0.8"/>
     <use xlink:href="#m4dc08cb012" x="269.885745" y="75.175272" style="fill: #0072b2; fill-opacity: 0.8; stroke: #0072b2; stroke-opacity: 0.8"/>
     <use xlink:href="#m4dc08cb012" x="270.200706" y="73.586322" style="fill: #0072b2; fill-opacity: 0.8; stroke: #0072b2; stroke-opacity: 0.8"/>
     <use xlink:href="#m4dc08cb012" x="270.515666" y="76.079751" style="fill: #0072b2; fill-opacity: 0.8; stroke: #0072b2; stroke-opacity: 0.8"/>
     <use xlink:href="#m4dc08cb012" x="270.830627" y="77.497583" style="fill: #0072b2; fill-opacity: 0.8; stroke: #0072b2; stroke-opacity: 0.8"/>
     <use xlink:href="#m4dc08cb012" x="271.145587" y="83.877827" style="fill: #0072b2; fill-opacity: 0.8; stroke: #0072b2; stroke-opacity: 0.8"/>
     <use xlink:href="#m4dc08cb012" x="271.460548" y="78.157608" style="fill: #0072b2; fill-opacity: 0.8; stroke: #0072b2; stroke-opacity: 0.8"/>
     <use xlink:href="#m4dc08cb012" x="271.775509" y="77.204238" style="fill: #0072b2; fill-opacity: 0.8; stroke: #0072b2; stroke-opacity: 0.8"/>
     <use xlink:href="#m4dc08cb012" x="272.090469" y="72.48628" style="fill: #0072b2; fill-opacity: 0.8; stroke: #0072b2; stroke-opacity: 0.8"/>
     <use xlink:href="#m4dc08cb012" x="272.40543" y="72.584061" style="fill: #0072b2; fill-opacity: 0.8; stroke: #0072b2; stroke-opacity: 0.8"/>
     <use xlink:href="#m4dc08cb012" x="272.720391" y="75.297499" style="fill: #0072b2; fill-opacity: 0.8; stroke: #0072b2; stroke-opacity: 0.8"/>
     <use xlink:href="#m4dc08cb012" x="273.035351" y="64.614867" style="fill: #0072b2; fill-opacity: 0.8; stroke: #0072b2; stroke-opacity: 0.8"/>
     <use xlink:href="#m4dc08cb012" x="273.350312" y="80.431029" style="fill: #0072b2; fill-opacity: 0.8; stroke: #0072b2; stroke-opacity: 0.8"/>
     <use xlink:href="#m4dc08cb012" x="273.665273" y="65.201556" style="fill: #0072b2; fill-opacity: 0.8; stroke: #0072b2; stroke-opacity: 0.8"/>
     <use xlink:href="#m4dc08cb012" x="273.980233" y="77.644255" style="fill: #0072b2; fill-opacity: 0.8; stroke: #0072b2; stroke-opacity: 0.8"/>
     <use xlink:href="#m4dc08cb012" x="274.295194" y="91.333669" style="fill: #0072b2; fill-opacity: 0.8; stroke: #0072b2; stroke-opacity: 0.8"/>
     <use xlink:href="#m4dc08cb012" x="274.610154" y="28.044577" style="fill: #0072b2; fill-opacity: 0.8; stroke: #0072b2; stroke-opacity: 0.8"/>
     <use xlink:href="#m4dc08cb012" x="274.925115" y="16.335239" style="fill: #0072b2; fill-opacity: 0.8; stroke: #0072b2; stroke-opacity: 0.8"/>
     <use xlink:href="#m4dc08cb012" x="275.240076" y="20.124273" style="fill: #0072b2; fill-opacity: 0.8; stroke: #0072b2; stroke-opacity: 0.8"/>
     <use xlink:href="#m4dc08cb012" x="275.555036" y="21.859895" style="fill: #0072b2; fill-opacity: 0.8; stroke: #0072b2; stroke-opacity: 0.8"/>
     <use xlink:href="#m4dc08cb012" x="275.869997" y="28.851274" style="fill: #0072b2; fill-opacity: 0.8; stroke: #0072b2; stroke-opacity: 0.8"/>
     <use xlink:href="#m4dc08cb012" x="276.184958" y="27.042316" style="fill: #0072b2; fill-opacity: 0.8; stroke: #0072b2; stroke-opacity: 0.8"/>
     <use xlink:href="#m4dc08cb012" x="276.499918" y="12.766213" style="fill: #0072b2; fill-opacity: 0.8; stroke: #0072b2; stroke-opacity: 0.8"/>
     <use xlink:href="#m4dc08cb012" x="276.814879" y="35.304855" style="fill: #0072b2; fill-opacity: 0.8; stroke: #0072b2; stroke-opacity: 0.8"/>
     <use xlink:href="#m4dc08cb012" x="277.129839" y="22.397694" style="fill: #0072b2; fill-opacity: 0.8; stroke: #0072b2; stroke-opacity: 0.8"/>
     <use xlink:href="#m4dc08cb012" x="277.4448" y="26.724526" style="fill: #0072b2; fill-opacity: 0.8; stroke: #0072b2; stroke-opacity: 0.8"/>
     <use xlink:href="#m4dc08cb012" x="277.759761" y="26.944534" style="fill: #0072b2; fill-opacity: 0.8; stroke: #0072b2; stroke-opacity: 0.8"/>
     <use xlink:href="#m4dc08cb012" x="278.074721" y="22.78882" style="fill: #0072b2; fill-opacity: 0.8; stroke: #0072b2; stroke-opacity: 0.8"/>
     <use xlink:href="#m4dc08cb012" x="278.389682" y="22.617702" style="fill: #0072b2; fill-opacity: 0.8; stroke: #0072b2; stroke-opacity: 0.8"/>
     <use xlink:href="#m4dc08cb012" x="278.704643" y="19.024231" style="fill: #0072b2; fill-opacity: 0.8; stroke: #0072b2; stroke-opacity: 0.8"/>
     <use xlink:href="#m4dc08cb012" x="279.019603" y="25.453366" style="fill: #0072b2; fill-opacity: 0.8; stroke: #0072b2; stroke-opacity: 0.8"/>
     <use xlink:href="#m4dc08cb012" x="279.334564" y="30.562451" style="fill: #0072b2; fill-opacity: 0.8; stroke: #0072b2; stroke-opacity: 0.8"/>
     <use xlink:href="#m4dc08cb012" x="279.649524" y="25.600038" style="fill: #0072b2; fill-opacity: 0.8; stroke: #0072b2; stroke-opacity: 0.8"/>
     <use xlink:href="#m4dc08cb012" x="279.964485" y="19.073122" style="fill: #0072b2; fill-opacity: 0.8; stroke: #0072b2; stroke-opacity: 0.8"/>
     <use xlink:href="#m4dc08cb012" x="280.279446" y="23.986643" style="fill: #0072b2; fill-opacity: 0.8; stroke: #0072b2; stroke-opacity: 0.8"/>
     <use xlink:href="#m4dc08cb012" x="280.594406" y="38.384973" style="fill: #0072b2; fill-opacity: 0.8; stroke: #0072b2; stroke-opacity: 0.8"/>
     <use xlink:href="#m4dc08cb012" x="280.909367" y="36.356006" style="fill: #0072b2; fill-opacity: 0.8; stroke: #0072b2; stroke-opacity: 0.8"/>
    </g>
   </g>
   <g id="patch_5">
    <path d="M 179.549724 160.056693 
L 179.549724 162.002396 
L 179.39699 162.002396 
Q 179.322615 161.441927 179.128708 161.109896 
Q 178.93613 160.777865 178.578865 160.583959 
Q 178.221599 160.388724 177.840427 160.388724 
Q 177.408787 160.388724 177.125896 160.651693 
Q 176.844333 160.914662 176.844333 161.252005 
Q 176.844333 161.508334 177.022302 161.720834 
Q 177.279958 162.031615 178.246833 162.550912 
Q 179.03574 162.973255 179.323943 163.200365 
Q 179.612146 163.426146 179.767537 163.734271 
Q 179.924255 164.041068 179.924255 164.377084 
Q 179.924255 165.015912 179.427537 165.479427 
Q 178.932146 165.941615 178.151208 165.941615 
Q 177.906833 165.941615 177.690349 165.904427 
Q 177.562849 165.883177 177.157771 165.753021 
Q 176.752693 165.621537 176.645115 165.621537 
Q 176.541521 165.621537 176.480427 165.683959 
Q 176.420662 165.74638 176.391443 165.941615 
L 176.238708 165.941615 
L 176.238708 164.011849 
L 176.391443 164.011849 
Q 176.500349 164.617474 176.682302 164.918959 
Q 176.865583 165.219115 177.240115 165.418334 
Q 177.615974 165.617552 178.06488 165.617552 
Q 178.582849 165.617552 178.883005 165.343959 
Q 179.18449 165.070365 179.18449 164.695834 
Q 179.18449 164.488646 179.070271 164.277474 
Q 178.95738 164.064974 178.715662 163.883021 
Q 178.55363 163.758177 177.83113 163.354427 
Q 177.109958 162.949349 176.80449 162.708959 
Q 176.500349 162.46724 176.342302 162.177709 
Q 176.184255 161.886849 176.184255 161.537552 
Q 176.184255 160.931927 176.649099 160.494974 
Q 177.113943 160.056693 177.832458 160.056693 
Q 178.280037 160.056693 178.782068 160.275834 
Q 179.01449 160.379427 179.110115 160.379427 
Q 179.217693 160.379427 179.286755 160.315677 
Q 179.355818 160.250599 179.39699 160.056693 
L 179.549724 160.056693 
z
M 181.749099 160.761927 
L 181.749099 162.010365 
L 182.637615 162.010365 
L 182.637615 162.301224 
L 181.749099 162.301224 
L 181.749099 164.766224 
Q 181.749099 165.136771 181.855349 165.265599 
Q 181.961599 165.393099 182.127615 165.393099 
Q 182.264412 165.393099 182.39324 165.308099 
Q 182.522068 165.223099 182.592458 165.057084 
L 182.75449 165.057084 
Q 182.608396 165.46349 182.342771 165.669349 
Q 182.077146 165.875209 181.795583 165.875209 
Q 181.604333 165.875209 181.421052 165.768959 
Q 181.239099 165.662709 181.151443 165.466146 
Q 181.065115 165.269584 181.065115 164.857865 
L 181.065115 162.301224 
L 180.463474 162.301224 
L 180.463474 162.164427 
Q 180.690583 162.072787 180.929646 161.854974 
Q 181.168708 161.637162 181.354646 161.338334 
Q 181.450271 161.180287 181.620271 160.761927 
L 181.749099 160.761927 
z
M 185.161052 165.264271 
Q 184.575349 165.717162 184.426599 165.787552 
Q 184.202146 165.891146 183.948474 165.891146 
Q 183.555349 165.891146 183.299021 165.621537 
Q 183.044021 165.351927 183.044021 164.912318 
Q 183.044021 164.633412 183.168865 164.430209 
Q 183.338865 164.148646 183.75988 163.900287 
Q 184.180896 163.650599 185.161052 163.293334 
L 185.161052 163.144584 
Q 185.161052 162.574818 184.980427 162.363646 
Q 184.799802 162.152474 184.455818 162.152474 
Q 184.194177 162.152474 184.040115 162.293255 
Q 183.882068 162.434037 183.882068 162.617318 
L 183.891365 162.857709 
Q 183.891365 163.048959 183.793083 163.152552 
Q 183.69613 163.256146 183.538083 163.256146 
Q 183.384021 163.256146 183.287068 163.148568 
Q 183.190115 163.039662 183.190115 162.853724 
Q 183.190115 162.496459 183.555349 162.19763 
Q 183.920583 161.898802 184.579333 161.898802 
Q 185.086677 161.898802 185.409412 162.068802 
Q 185.655115 162.19763 185.770662 162.471224 
Q 185.846365 162.650521 185.846365 163.201693 
L 185.846365 164.49263 
Q 185.846365 165.037162 185.866287 165.159349 
Q 185.887537 165.281537 185.935349 165.322709 
Q 185.983162 165.36388 186.045583 165.36388 
Q 186.11199 165.36388 186.16113 165.33599 
Q 186.248787 165.281537 186.497146 165.031849 
L 186.497146 165.264271 
Q 186.032302 165.887162 185.60863 165.887162 
Q 185.405427 165.887162 185.284568 165.74638 
Q 185.165037 165.605599 185.161052 165.264271 
z
M 185.161052 164.994662 
L 185.161052 163.547005 
Q 184.534177 163.795365 184.352224 163.898959 
Q 184.024177 164.08224 183.882068 164.281459 
Q 183.741287 164.480677 183.741287 164.717084 
Q 183.741287 165.015912 183.919255 165.213802 
Q 184.098552 165.410365 184.330974 165.410365 
Q 184.64574 165.410365 185.161052 164.994662 
z
M 187.79738 164.426224 
Q 187.448083 164.256224 187.260818 163.952084 
Q 187.07488 163.646615 187.07488 163.277396 
Q 187.07488 162.712943 187.49988 162.306537 
Q 187.926208 161.898802 188.590271 161.898802 
Q 189.133474 161.898802 189.531912 162.164427 
L 190.336755 162.164427 
Q 190.516052 162.164427 190.543943 162.175052 
Q 190.573162 162.185677 190.586443 162.209584 
Q 190.610349 162.248099 190.610349 162.342396 
Q 190.610349 162.451302 190.590427 162.492474 
Q 190.577146 162.513724 190.546599 162.525677 
Q 190.516052 162.53763 190.336755 162.53763 
L 189.842693 162.53763 
Q 190.075115 162.836459 190.075115 163.301302 
Q 190.075115 163.832552 189.668708 164.211068 
Q 189.262302 164.588255 188.57699 164.588255 
Q 188.295427 164.588255 188.000583 164.505912 
Q 187.817302 164.66263 187.752224 164.780834 
Q 187.688474 164.899037 187.688474 164.982709 
Q 187.688474 165.053099 187.757537 165.119505 
Q 187.826599 165.185912 188.025818 165.21513 
Q 188.141365 165.231068 188.606208 165.244349 
Q 189.461521 165.264271 189.713865 165.302787 
Q 190.100349 165.355912 190.330115 165.588334 
Q 190.561208 165.820755 190.561208 166.162084 
Q 190.561208 166.630912 190.121599 167.041302 
Q 189.473474 167.646927 188.432224 167.646927 
Q 187.631365 167.646927 187.078865 167.285677 
Q 186.768083 167.07849 186.768083 166.854037 
Q 186.768083 166.754427 186.81324 166.654818 
Q 186.88363 166.502084 187.104099 166.22849 
Q 187.133318 166.189974 187.527771 165.779584 
Q 187.311287 165.650755 187.222302 165.549818 
Q 187.133318 165.447552 187.133318 165.318724 
Q 187.133318 165.173959 187.251521 164.978724 
Q 187.369724 164.78349 187.79738 164.426224 
z
M 188.518552 162.098021 
Q 188.211755 162.098021 188.004568 162.343724 
Q 187.79738 162.588099 187.79738 163.094115 
Q 187.79738 163.750209 188.078943 164.111459 
Q 188.295427 164.385052 188.627458 164.385052 
Q 188.942224 164.385052 189.145427 164.148646 
Q 189.34863 163.91224 189.34863 163.404896 
Q 189.34863 162.746146 189.063083 162.371615 
Q 188.850583 162.098021 188.518552 162.098021 
z
M 187.75488 165.812787 
Q 187.560974 166.023959 187.461365 166.205912 
Q 187.361755 166.389193 187.361755 166.543255 
Q 187.361755 166.742474 187.602146 166.892552 
Q 188.016521 167.14888 188.801443 167.14888 
Q 189.547849 167.14888 189.902458 166.884584 
Q 190.258396 166.621615 190.258396 166.322787 
Q 190.258396 166.10763 190.045896 166.01599 
Q 189.83074 165.924349 189.191912 165.908412 
Q 188.25824 165.883177 187.75488 165.812787 
z
M 191.668865 163.443412 
Q 191.66488 164.289427 192.080583 164.771537 
Q 192.494958 165.252318 193.055427 165.252318 
Q 193.42863 165.252318 193.70488 165.047787 
Q 193.98113 164.841927 194.168396 164.34388 
L 194.295896 164.426224 
Q 194.209568 164.994662 193.78988 165.462162 
Q 193.371521 165.929662 192.740662 165.929662 
Q 192.055349 165.929662 191.567927 165.395755 
Q 191.080505 164.861849 191.080505 163.96138 
Q 191.080505 162.986537 191.57988 162.440677 
Q 192.080583 161.894818 192.834958 161.894818 
Q 193.475115 161.894818 193.885505 162.315834 
Q 194.295896 162.736849 194.295896 163.443412 
L 191.668865 163.443412 
z
M 191.668865 163.201693 
L 193.42863 163.201693 
Q 193.408708 162.836459 193.342302 162.687709 
Q 193.238708 162.455287 193.032849 162.322474 
Q 192.82699 162.189662 192.602537 162.189662 
Q 192.258552 162.189662 191.986287 162.457943 
Q 191.715349 162.724896 191.668865 163.201693 
z
"/>
   </g>
   <g id="patch_6">
    <path d="M 16.502188 96.139675 
L 16.502188 97.641784 
L 13.871172 99.547643 
Q 13.879141 99.758815 13.879141 99.891628 
Q 13.879141 99.946081 13.877813 100.008503 
Q 13.875156 100.069596 13.871172 100.136003 
L 15.506094 100.136003 
Q 16.037344 100.136003 16.166172 100.020456 
Q 16.348125 99.862409 16.348125 99.547643 
L 16.348125 99.327175 
L 16.502188 99.327175 
L 16.502188 101.73905 
L 16.348125 101.73905 
L 16.348125 101.52655 
Q 16.348125 101.169284 16.115703 101.01655 
Q 15.986875 100.928893 15.506094 100.928893 
L 11.869688 100.928893 
Q 11.338438 100.928893 11.210938 101.045768 
Q 11.027656 101.2078 11.027656 101.52655 
L 11.027656 101.73905 
L 10.873594 101.73905 
L 10.873594 99.688425 
Q 10.873594 98.79194 11.005078 98.36694 
Q 11.135234 97.940612 11.485859 97.64444 
Q 11.836484 97.34694 12.322578 97.34694 
Q 12.841875 97.34694 13.224375 97.685612 
Q 13.605547 98.024284 13.762266 98.733503 
L 15.377266 97.571393 
Q 15.93375 97.172956 16.117031 96.887409 
Q 16.298984 96.600534 16.348125 96.139675 
L 16.502188 96.139675 
z
M 13.609531 100.136003 
Q 13.609531 100.057643 13.612188 99.999206 
Q 13.613516 99.940768 13.613516 99.903581 
Q 13.613516 99.098737 13.265547 98.689675 
Q 12.91625 98.280612 12.377031 98.280612 
Q 11.849766 98.280612 11.520391 98.611315 
Q 11.189688 98.94069 11.189688 99.485221 
Q 11.189688 99.725612 11.268047 100.136003 
L 13.609531 100.136003 
z
M 14.132813 95.309596 
Q 14.978828 95.313581 15.460938 94.897878 
Q 15.941719 94.483503 15.941719 93.923034 
Q 15.941719 93.549831 15.737188 93.273581 
Q 15.531328 92.997331 15.033281 92.810065 
L 15.115625 92.682565 
Q 15.684063 92.768893 16.151563 93.188581 
Q 16.619063 93.60694 16.619063 94.2378 
Q 16.619063 94.923112 16.085156 95.410534 
Q 15.55125 95.897956 14.650781 95.897956 
Q 13.675938 95.897956 13.130078 95.398581 
Q 12.584219 94.897878 12.584219 94.143503 
Q 12.584219 93.503346 13.005234 93.092956 
Q 13.42625 92.682565 14.132813 92.682565 
L 14.132813 95.309596 
z
M 13.891094 95.309596 
L 13.891094 93.549831 
Q 13.525859 93.569753 13.377109 93.636159 
Q 13.144688 93.739753 13.011875 93.945612 
Q 12.879063 94.151471 12.879063 94.375925 
Q 12.879063 94.719909 13.147344 94.992175 
Q 13.414297 95.263112 13.891094 95.309596 
z
M 10.6 90.868346 
L 15.642891 90.868346 
Q 16.000156 90.868346 16.117031 90.81655 
Q 16.232578 90.763425 16.292344 90.655846 
Q 16.352109 90.548268 16.352109 90.253425 
L 16.502188 90.253425 
L 16.502188 92.116784 
L 16.352109 92.116784 
Q 16.352109 91.855143 16.298984 91.760846 
Q 16.244531 91.665221 16.121016 91.610768 
Q 15.996172 91.556315 15.642891 91.556315 
L 12.189766 91.556315 
Q 11.546953 91.556315 11.399531 91.585534 
Q 11.252109 91.614753 11.198984 91.679831 
Q 11.144531 91.743581 11.144531 91.84319 
Q 11.144531 91.950768 11.210938 92.116784 
L 11.064844 92.187175 
L 10.6 91.054284 
L 10.6 90.868346 
z
M 15.953672 87.659596 
Q 16.406563 88.2453 16.476953 88.39405 
Q 16.580547 88.618503 16.580547 88.872175 
Q 16.580547 89.2653 16.310938 89.521628 
Q 16.041328 89.776628 15.601719 89.776628 
Q 15.322813 89.776628 15.119609 89.651784 
Q 14.838047 89.481784 14.589688 89.060768 
Q 14.34 88.639753 13.982734 87.659596 
L 13.833984 87.659596 
Q 13.264219 87.659596 13.053047 87.840221 
Q 12.841875 88.020846 12.841875 88.364831 
Q 12.841875 88.626471 12.982656 88.780534 
Q 13.123438 88.938581 13.306719 88.938581 
L 13.547109 88.929284 
Q 13.738359 88.929284 13.841953 89.027565 
Q 13.945547 89.124518 13.945547 89.282565 
Q 13.945547 89.436628 13.837969 89.533581 
Q 13.729063 89.630534 13.543125 89.630534 
Q 13.185859 89.630534 12.887031 89.2653 
Q 12.588203 88.900065 12.588203 88.241315 
Q 12.588203 87.733971 12.758203 87.411237 
Q 12.887031 87.165534 13.160625 87.049987 
Q 13.339922 86.974284 13.891094 86.974284 
L 15.182031 86.974284 
Q 15.726563 86.974284 15.84875 86.954362 
Q 15.970938 86.933112 16.012109 86.8853 
Q 16.053281 86.837487 16.053281 86.775065 
Q 16.053281 86.708659 16.025391 86.659518 
Q 15.970938 86.571862 15.72125 86.323503 
L 15.953672 86.323503 
Q 16.576563 86.788346 16.576563 87.212018 
Q 16.576563 87.415221 16.435781 87.536081 
Q 16.295 87.655612 15.953672 87.659596 
z
M 15.684063 87.659596 
L 14.236406 87.659596 
Q 14.484766 88.286471 14.588359 88.468425 
Q 14.771641 88.796471 14.970859 88.938581 
Q 15.170078 89.079362 15.406484 89.079362 
Q 15.705313 89.079362 15.903203 88.901393 
Q 16.099766 88.722096 16.099766 88.489675 
Q 16.099766 88.174909 15.684063 87.659596 
z
M 11.451328 84.93694 
L 12.699766 84.93694 
L 12.699766 84.048425 
L 12.990625 84.048425 
L 12.990625 84.93694 
L 15.455625 84.93694 
Q 15.826172 84.93694 15.955 84.83069 
Q 16.0825 84.72444 16.0825 84.558425 
Q 16.0825 84.421628 15.9975 84.2928 
Q 15.9125 84.163971 15.746484 84.093581 
L 15.746484 83.93155 
Q 16.152891 84.077643 16.35875 84.343268 
Q 16.564609 84.608893 16.564609 84.890456 
Q 16.564609 85.081706 16.458359 85.264987 
Q 16.352109 85.44694 16.155547 85.534596 
Q 15.958984 85.620925 15.547266 85.620925 
L 12.990625 85.620925 
L 12.990625 86.222565 
L 12.853828 86.222565 
Q 12.762188 85.995456 12.544375 85.756393 
Q 12.326563 85.517331 12.027734 85.331393 
Q 11.869688 85.235768 11.451328 85.065768 
L 11.451328 84.93694 
z
M 10.6 82.712331 
Q 10.6 82.538346 10.723516 82.416159 
Q 10.845703 82.292643 11.019688 82.292643 
Q 11.193672 82.292643 11.318516 82.416159 
Q 11.443359 82.538346 11.443359 82.712331 
Q 11.443359 82.886315 11.318516 83.011159 
Q 11.193672 83.136003 11.019688 83.136003 
Q 10.845703 83.136003 10.723516 83.013815 
Q 10.6 82.8903 10.6 82.712331 
z
M 12.588203 82.367018 
L 15.642891 82.367018 
Q 16.000156 82.367018 16.118359 82.315221 
Q 16.236563 82.263425 16.295 82.162487 
Q 16.352109 82.060221 16.352109 81.790612 
L 16.502188 81.790612 
L 16.502188 83.638034 
L 16.352109 83.638034 
Q 16.352109 83.359128 16.298984 83.264831 
Q 16.244531 83.169206 16.121016 83.113425 
Q 15.996172 83.056315 15.642891 83.056315 
L 14.177969 83.056315 
Q 13.559063 83.056315 13.377109 83.093503 
Q 13.244297 83.122721 13.1925 83.185143 
Q 13.140703 83.247565 13.140703 83.355143 
Q 13.140703 83.472018 13.203125 83.638034 
L 13.053047 83.695143 
L 12.588203 82.5503 
L 12.588203 82.367018 
z
M 12.699766 81.513034 
L 12.699766 79.72405 
L 12.853828 79.72405 
L 12.853828 79.839596 
Q 12.853828 80.001628 12.933516 80.086628 
Q 13.011875 80.171628 13.144688 80.171628 
Q 13.289453 80.171628 13.488672 80.0853 
L 15.588438 79.200768 
L 13.410313 78.312253 
Q 13.177891 78.217956 13.057031 78.217956 
Q 12.998594 78.217956 12.961406 78.251159 
Q 12.898984 78.296315 12.876406 78.366706 
Q 12.853828 78.437096 12.853828 78.653581 
L 12.699766 78.653581 
L 12.699766 77.411784 
L 12.853828 77.411784 
Q 12.871094 77.628268 12.941484 77.710612 
Q 13.065 77.856706 13.355859 77.972253 
L 16.619063 79.321628 
L 16.619063 79.491628 
L 13.410313 80.848971 
Q 13.185859 80.940612 13.088906 81.024284 
Q 12.990625 81.106628 12.924219 81.234128 
Q 12.887031 81.305846 12.853828 81.513034 
L 12.699766 81.513034 
z
M 14.132813 76.428971 
Q 14.978828 76.432956 15.460938 76.017253 
Q 15.941719 75.602878 15.941719 75.042409 
Q 15.941719 74.669206 15.737188 74.392956 
Q 15.531328 74.116706 15.033281 73.92944 
L 15.115625 73.80194 
Q 15.684063 73.888268 16.151563 74.307956 
Q 16.619063 74.726315 16.619063 75.357175 
Q 16.619063 76.042487 16.085156 76.529909 
Q 15.55125 77.017331 14.650781 77.017331 
Q 13.675938 77.017331 13.130078 76.517956 
Q 12.584219 76.017253 12.584219 75.262878 
Q 12.584219 74.622721 13.005234 74.212331 
Q 13.42625 73.80194 14.132813 73.80194 
L 14.132813 76.428971 
z
M 13.891094 76.428971 
L 13.891094 74.669206 
Q 13.525859 74.689128 13.377109 74.755534 
Q 13.144688 74.859128 13.011875 75.064987 
Q 12.879063 75.270846 12.879063 75.4953 
Q 12.879063 75.839284 13.147344 76.11155 
Q 13.414297 76.382487 13.891094 76.428971 
z
M 14.132813 70.530768 
Q 14.978828 70.534753 15.460938 70.11905 
Q 15.941719 69.704675 15.941719 69.144206 
Q 15.941719 68.771003 15.737188 68.494753 
Q 15.531328 68.218503 15.033281 68.031237 
L 15.115625 67.903737 
Q 15.684063 67.990065 16.151563 68.409753 
Q 16.619063 68.828112 16.619063 69.458971 
Q 16.619063 70.144284 16.085156 70.631706 
Q 15.55125 71.119128 14.650781 71.119128 
Q 13.675938 71.119128 13.130078 70.619753 
Q 12.584219 70.11905 12.584219 69.364675 
Q 12.584219 68.724518 13.005234 68.314128 
Q 13.42625 67.903737 14.132813 67.903737 
L 14.132813 70.530768 
z
M 13.891094 70.530768 
L 13.891094 68.771003 
Q 13.525859 68.790925 13.377109 68.857331 
Q 13.144688 68.960925 13.011875 69.166784 
Q 12.879063 69.372643 12.879063 69.597096 
Q 12.879063 69.941081 13.147344 70.213346 
Q 13.414297 70.484284 13.891094 70.530768 
z
M 12.699766 67.550456 
L 12.699766 65.761471 
L 12.853828 65.761471 
Q 12.853828 65.931471 12.912266 66.000534 
Q 12.970703 66.068268 13.065 66.068268 
Q 13.164609 66.068268 13.373125 65.923503 
Q 13.439531 65.877018 13.580313 65.785378 
L 14.011953 65.515768 
L 13.580313 65.204987 
Q 13.169922 64.906159 13.061016 64.906159 
Q 12.974688 64.906159 12.914922 64.97655 
Q 12.853828 65.04694 12.853828 65.204987 
L 12.699766 65.204987 
L 12.699766 63.918034 
L 12.853828 63.918034 
Q 12.865781 64.121237 12.965391 64.271315 
Q 13.1075 64.474518 13.580313 64.8278 
L 14.273594 65.345768 
L 15.634922 64.400143 
Q 16.136953 64.050846 16.239219 63.902096 
Q 16.340156 63.752018 16.352109 63.515612 
L 16.502188 63.515612 
L 16.502188 65.308581 
L 16.352109 65.308581 
Q 16.352109 65.121315 16.269766 65.017721 
Q 16.211328 64.939362 16.115703 64.939362 
Q 16.020078 64.939362 15.634922 65.204987 
L 14.820781 65.761471 
L 15.634922 66.371081 
Q 16.012109 66.653971 16.0825 66.653971 
Q 16.182109 66.653971 16.263125 66.561003 
Q 16.344141 66.466706 16.352109 66.27944 
L 16.502188 66.27944 
L 16.502188 67.521237 
L 16.352109 67.521237 
Q 16.332188 67.371159 16.248516 67.259596 
Q 16.128984 67.10155 15.634922 66.728346 
L 14.576406 65.931471 
L 13.529844 66.653971 
Q 13.082266 66.960768 12.968047 67.12944 
Q 12.853828 67.296784 12.853828 67.550456 
L 12.699766 67.550456 
z
M 13.078281 63.419987 
L 12.605469 62.249909 
L 12.605469 62.091862 
L 13.492656 62.091862 
Q 12.990625 61.797018 12.790078 61.500846 
Q 12.588203 61.203346 12.588203 60.876628 
Q 12.588203 60.302878 13.037109 59.921706 
Q 13.584297 59.452878 14.464844 59.452878 
Q 15.447656 59.452878 16.091797 60.017331 
Q 16.619063 60.482175 16.619063 61.187409 
Q 16.619063 61.494206 16.531406 61.718659 
Q 16.468984 61.884675 16.281719 62.091862 
L 17.439844 62.091862 
Q 17.830313 62.091862 17.935234 62.04405 
Q 18.041484 61.996237 18.103906 61.878034 
Q 18.166328 61.759831 18.166328 61.44905 
L 18.320391 61.44905 
L 18.320391 63.441237 
L 18.166328 63.441237 
L 18.166328 63.337643 
Q 18.170313 63.109206 18.08 62.947175 
Q 18.033516 62.868815 17.93125 62.824987 
Q 17.830313 62.781159 17.415938 62.781159 
L 13.820703 62.781159 
Q 13.451484 62.781159 13.351875 62.814362 
Q 13.252266 62.847565 13.203125 62.920612 
Q 13.152656 62.992331 13.152656 63.117175 
Q 13.152656 63.216784 13.211094 63.370846 
L 13.078281 63.419987 
z
M 13.738359 62.091862 
L 15.156797 62.091862 
Q 15.617656 62.091862 15.76375 62.054675 
Q 16.004141 61.996237 16.187422 61.770456 
Q 16.369375 61.544675 16.369375 61.199362 
Q 16.369375 60.784987 16.045313 60.527331 
Q 15.621641 60.191315 14.853984 60.191315 
Q 13.982734 60.191315 13.513906 60.572487 
Q 13.189844 60.838112 13.189844 61.203346 
Q 13.189844 61.402565 13.289453 61.5978 
Q 13.363828 61.747878 13.738359 62.091862 
z
M 12.588203 57.783425 
L 13.443516 57.783425 
Q 12.588203 57.306628 12.588203 56.804596 
Q 12.588203 56.576159 12.727656 56.427409 
Q 12.865781 56.277331 13.049063 56.277331 
Q 13.211094 56.277331 13.323984 56.386237 
Q 13.435547 56.493815 13.435547 56.642565 
Q 13.435547 56.787331 13.292109 56.967956 
Q 13.148672 57.148581 13.148672 57.236237 
Q 13.148672 57.310612 13.231016 57.398268 
Q 13.402344 57.584206 13.791484 57.783425 
L 15.613672 57.783425 
Q 15.929766 57.783425 16.091797 57.705065 
Q 16.203359 57.650612 16.277734 57.513815 
Q 16.352109 57.377018 16.352109 57.119362 
L 16.502188 57.119362 
L 16.502188 59.066393 
L 16.352109 59.066393 
Q 16.352109 58.775534 16.261797 58.634753 
Q 16.195391 58.531159 16.049297 58.489987 
Q 15.978906 58.468737 15.646875 58.468737 
L 14.173984 58.468737 
Q 13.509922 58.468737 13.38375 58.496628 
Q 13.25625 58.52319 13.199141 58.596237 
Q 13.140703 58.667956 13.140703 58.775534 
Q 13.140703 58.904362 13.203125 59.066393 
L 13.053047 59.107565 
L 12.588203 57.958737 
L 12.588203 57.783425 
z
M 14.132813 55.427331 
Q 14.978828 55.431315 15.460938 55.015612 
Q 15.941719 54.601237 15.941719 54.040768 
Q 15.941719 53.667565 15.737188 53.391315 
Q 15.531328 53.115065 15.033281 52.9278 
L 15.115625 52.8003 
Q 15.684063 52.886628 16.151563 53.306315 
Q 16.619063 53.724675 16.619063 54.355534 
Q 16.619063 55.040846 16.085156 55.528268 
Q 15.55125 56.01569 14.650781 56.01569 
Q 13.675938 56.01569 13.130078 55.516315 
Q 12.584219 55.015612 12.584219 54.261237 
Q 12.584219 53.621081 13.005234 53.21069 
Q 13.42625 52.8003 14.132813 52.8003 
L 14.132813 55.427331 
z
M 13.891094 55.427331 
L 13.891094 53.667565 
Q 13.525859 53.687487 13.377109 53.753893 
Q 13.144688 53.857487 13.011875 54.063346 
Q 12.879063 54.269206 12.879063 54.493659 
Q 12.879063 54.837643 13.147344 55.109909 
Q 13.414297 55.380846 13.891094 55.427331 
z
M 12.588203 49.835925 
L 13.883125 49.835925 
L 13.883125 49.972721 
Q 13.273516 50.130768 13.053047 50.3778 
Q 12.832578 50.624831 12.832578 51.006003 
Q 12.832578 51.296862 12.986641 51.476159 
Q 13.140703 51.654128 13.326641 51.654128 
Q 13.559063 51.654128 13.725078 51.521315 
Q 13.895078 51.392487 14.086328 50.998034 
L 14.381172 50.392409 
Q 14.791563 49.54905 15.464922 49.54905 
Q 15.982891 49.54905 16.301641 49.942175 
Q 16.619063 50.333971 16.619063 50.820065 
Q 16.619063 51.168034 16.494219 51.61694 
Q 16.451719 51.753737 16.451719 51.840065 
Q 16.451719 51.93569 16.560625 51.990143 
L 16.560625 52.12694 
L 15.203281 52.12694 
L 15.203281 51.990143 
Q 15.783672 51.873268 16.078516 51.54655 
Q 16.373359 51.218503 16.373359 50.810768 
Q 16.373359 50.525221 16.206016 50.344596 
Q 16.037344 50.163971 15.800938 50.163971 
Q 15.514063 50.163971 15.318828 50.365846 
Q 15.123594 50.566393 14.824766 51.168034 
Q 14.525938 51.769675 14.285547 51.95694 
Q 14.049141 52.142878 13.687891 52.142878 
Q 13.219063 52.142878 12.904297 51.821471 
Q 12.588203 51.500065 12.588203 50.990065 
Q 12.588203 50.765612 12.683828 50.445534 
Q 12.74625 50.234362 12.74625 50.163971 
Q 12.74625 50.097565 12.717031 50.060378 
Q 12.687813 50.02319 12.588203 49.972721 
L 12.588203 49.835925 
z
M 12.588203 46.527565 
L 13.883125 46.527565 
L 13.883125 46.664362 
Q 13.273516 46.822409 13.053047 47.06944 
Q 12.832578 47.316471 12.832578 47.697643 
Q 12.832578 47.988503 12.986641 48.1678 
Q 13.140703 48.345768 13.326641 48.345768 
Q 13.559063 48.345768 13.725078 48.212956 
Q 13.895078 48.084128 14.086328 47.689675 
L 14.381172 47.08405 
Q 14.791563 46.24069 15.464922 46.24069 
Q 15.982891 46.24069 16.301641 46.633815 
Q 16.619063 47.025612 16.619063 47.511706 
Q 16.619063 47.859675 16.494219 48.308581 
Q 16.451719 48.445378 16.451719 48.531706 
Q 16.451719 48.627331 16.560625 48.681784 
L 16.560625 48.818581 
L 15.203281 48.818581 
L 15.203281 48.681784 
Q 15.783672 48.564909 16.078516 48.23819 
Q 16.373359 47.910143 16.373359 47.502409 
Q 16.373359 47.216862 16.206016 47.036237 
Q 16.037344 46.855612 15.800938 46.855612 
Q 15.514063 46.855612 15.318828 47.057487 
Q 15.123594 47.258034 14.824766 47.859675 
Q 14.525938 48.461315 14.285547 48.648581 
Q 14.049141 48.834518 13.687891 48.834518 
Q 13.219063 48.834518 12.904297 48.513112 
Q 12.588203 48.191706 12.588203 47.681706 
Q 12.588203 47.457253 12.683828 47.137175 
Q 12.74625 46.926003 12.74625 46.855612 
Q 12.74625 46.789206 12.717031 46.752018 
Q 12.687813 46.714831 12.588203 46.664362 
L 12.588203 46.527565 
z
M 10.6 44.709362 
Q 10.6 44.535378 10.723516 44.41319 
Q 10.845703 44.289675 11.019688 44.289675 
Q 11.193672 44.289675 11.318516 44.41319 
Q 11.443359 44.535378 11.443359 44.709362 
Q 11.443359 44.883346 11.318516 45.00819 
Q 11.193672 45.133034 11.019688 45.133034 
Q 10.845703 45.133034 10.723516 45.010846 
Q 10.6 44.887331 10.6 44.709362 
z
M 12.588203 44.36405 
L 15.642891 44.36405 
Q 16.000156 44.36405 16.118359 44.312253 
Q 16.236563 44.260456 16.295 44.159518 
Q 16.352109 44.057253 16.352109 43.787643 
L 16.502188 43.787643 
L 16.502188 45.635065 
L 16.352109 45.635065 
Q 16.352109 45.356159 16.298984 45.261862 
Q 16.244531 45.166237 16.121016 45.110456 
Q 15.996172 45.053346 15.642891 45.053346 
L 14.177969 45.053346 
Q 13.559063 45.053346 13.377109 45.090534 
Q 13.244297 45.119753 13.1925 45.182175 
Q 13.140703 45.244596 13.140703 45.352175 
Q 13.140703 45.46905 13.203125 45.635065 
L 13.053047 45.692175 
L 12.588203 44.547331 
L 12.588203 44.36405 
z
M 12.588203 41.455456 
Q 12.588203 40.592175 13.244297 40.068893 
Q 13.804766 39.6253 14.53125 39.6253 
Q 15.04125 39.6253 15.564531 39.871003 
Q 16.086484 40.115378 16.353438 40.544362 
Q 16.619063 40.973346 16.619063 41.500612 
Q 16.619063 42.359909 15.93375 42.865925 
Q 15.356016 43.293581 14.638828 43.293581 
Q 14.115547 43.293581 13.598906 43.034596 
Q 13.082266 42.775612 12.835234 42.35194 
Q 12.588203 41.928268 12.588203 41.455456 
z
M 12.857813 41.584284 
Q 12.857813 41.803425 12.989297 42.02655 
Q 13.119453 42.248346 13.4475 42.385143 
Q 13.775547 42.52194 14.289531 42.52194 
Q 15.119609 42.52194 15.722578 42.192565 
Q 16.324219 41.861862 16.324219 41.322643 
Q 16.324219 40.920221 15.992188 40.658581 
Q 15.660156 40.39694 14.85 40.39694 
Q 13.837969 40.39694 13.25625 40.832565 
Q 12.857813 41.127409 12.857813 41.584284 
z
M 13.393047 37.957175 
Q 12.588203 37.2878 12.588203 36.682175 
Q 12.588203 36.371393 12.743594 36.14694 
Q 12.898984 35.922487 13.25625 35.789675 
Q 13.505938 35.699362 14.019922 35.699362 
L 15.642891 35.699362 
Q 16.004141 35.699362 16.132969 35.640925 
Q 16.236563 35.59444 16.295 35.493503 
Q 16.352109 35.391237 16.352109 35.117643 
L 16.502188 35.117643 
L 16.502188 36.998268 
L 16.352109 36.998268 
L 16.352109 36.918581 
Q 16.352109 36.652956 16.272422 36.548034 
Q 16.191406 36.441784 16.033359 36.400612 
Q 15.970938 36.383346 15.642891 36.383346 
L 14.086328 36.383346 
Q 13.568359 36.383346 13.333281 36.518815 
Q 13.098203 36.652956 13.098203 36.973034 
Q 13.098203 37.467096 13.63875 37.957175 
L 15.642891 37.957175 
Q 16.029375 37.957175 16.119688 37.91069 
Q 16.240547 37.852253 16.296328 37.751315 
Q 16.352109 37.64905 16.352109 37.338268 
L 16.502188 37.338268 
L 16.502188 39.218893 
L 16.352109 39.218893 
L 16.352109 39.135221 
Q 16.352109 38.844362 16.206016 38.743425 
Q 16.058594 38.641159 15.642891 38.641159 
L 14.232422 38.641159 
Q 13.547109 38.641159 13.398359 38.673034 
Q 13.248281 38.703581 13.195156 38.768659 
Q 13.140703 38.832409 13.140703 38.939987 
Q 13.140703 39.056862 13.203125 39.218893 
L 13.053047 39.279987 
L 12.588203 38.135143 
L 12.588203 37.957175 
L 13.393047 37.957175 
z
"/>
   </g>
  </g>
 </g>
 <defs>
  <clipPath id="p89d3139ee1">
   <rect x="52.720391" y="7.2" width="265.03937" height="122.456693"/>
  </clipPath>
 </defs>
</svg>
