<?xml version="1.0" encoding="utf-8" standalone="no"?>
<!DOCTYPE svg PUBLIC "-//W3C//DTD SVG 1.1//EN"
  "http://www.w3.org/Graphics/SVG/1.1/DTD/svg11.dtd">
<svg xmlns:xlink="http://www.w3.org/1999/xlink" width="272.37423pt" height="172.120889pt" viewBox="0 0 272.37423 172.120889" xmlns="http://www.w3.org/2000/svg" version="1.1">
 <metadata>
  <rdf:RDF xmlns:dc="http://purl.org/dc/elements/1.1/" xmlns:cc="http://creativecommons.org/ns#" xmlns:rdf="http://www.w3.org/1999/02/22-rdf-syntax-ns#">
   <cc:Work>
    <dc:type rdf:resource="http://purl.org/dc/dcmitype/StillImage"/>
    <dc:date>2026-07-13T01:24:04.033896</dc:date>
    <dc:format>image/svg+xml</dc:format>
    <dc:creator>
     <cc:Agent>
      <dc:title>Matplotlib v3.11.0, https://matplotlib.org/</dc:title>
     </cc:Agent>
    </dc:creator>
   </cc:Work>
  </rdf:RDF>
 </metadata>
 <defs>
  <style type="text/css">*{stroke-linejoin: round; stroke-linecap: butt}</style>
 </defs>
 <g id="figure_1">
  <g id="patch_1">
   <path d="M 0 172.120889 
L 272.37423 172.120889 
L 272.37423 0 
L 0 0 
L 0 172.120889 
z
" style="fill: none"/>
  </g>
  <g id="axes_1">
   <g id="patch_2">
    <path d="M 53.142734 123.258389 
L 265.17423 123.258389 
L 265.17423 7.604845 
L 53.142734 7.604845 
L 53.142734 123.258389 
z
" style="fill: none"/>
   </g>
   <g id="matplotlib.axis_1">
    <g id="xtick_1">
     <g id="line2d_1">
      <defs>
       <path id="m2cb19665e8" d="M 0 0 
L 0 3 
" style="stroke: #000000; stroke-width: 0.65"/>
      </defs>
      <g>
       <use xlink:href="#m2cb19665e8" x="70.248932" y="123.258389" style="stroke: #000000; stroke-width: 0.65"/>
      </g>
     </g>
     <g id="text_1">
      <!-- 东北 -->
      <g transform="translate(61.748932 135.068389) scale(0.085 -0.085)">
       <defs>
        <path id="STSongti-SC-Black-667" d="M 2022 4019 
L 806 4019 
Q 678 4019 576 3949 
L 410 4250 
Q 563 4230 730 4230 
L 2157 4230 
Q 2509 4794 2701 5389 
Q 2970 5325 3331 5190 
Q 3693 5056 3693 4998 
Q 3693 4941 3577 4912 
Q 3462 4883 3373 4742 
L 3053 4230 
L 4973 4230 
Q 5203 4595 5289 4713 
Q 5376 4832 5421 4832 
Q 5498 4832 5789 4582 
Q 6080 4333 6185 4230 
Q 6291 4128 6291 4073 
Q 6291 4019 6170 4019 
L 2912 4019 
Q 2675 3661 1747 2413 
L 3091 2413 
L 3091 2976 
Q 3091 3238 3072 3610 
Q 3322 3590 3629 3536 
Q 3936 3482 4019 3453 
Q 4102 3424 4102 3376 
Q 4102 3328 3910 3264 
L 3910 2413 
L 4717 2413 
Q 4998 2867 5046 2924 
Q 5094 2982 5139 2982 
Q 5184 2982 5299 2889 
Q 5414 2797 5616 2617 
Q 5818 2438 5894 2361 
Q 5971 2285 5971 2246 
Q 5971 2208 5875 2208 
L 3910 2208 
L 3910 141 
Q 3910 -333 3683 -461 
Q 3456 -589 2938 -589 
Q 2854 -589 2822 -573 
Q 2790 -557 2784 -474 
Q 2771 -237 2636 -115 
Q 2502 6 2208 70 
Q 2131 83 2131 112 
Q 2131 141 2240 134 
Q 2349 128 2553 128 
Q 2758 128 2886 157 
Q 3014 186 3052 234 
Q 3091 282 3091 371 
L 3091 2208 
L 1696 2208 
L 1542 2054 
Q 1498 2003 1434 2003 
Q 1382 2003 1306 2067 
L 1094 2266 
Q 960 2387 896 2457 
Q 832 2528 832 2557 
Q 832 2586 890 2624 
Q 1043 2714 1136 2800 
Q 1229 2886 1545 3331 
Q 1862 3776 2022 4019 
z
M 1830 1830 
Q 2144 1715 2435 1600 
Q 2726 1485 2755 1462 
Q 2784 1440 2784 1408 
Q 2784 1344 2685 1341 
Q 2586 1338 2480 1254 
Q 2374 1171 1958 764 
Q 1542 358 966 38 
Q 390 -282 320 -282 
Q 314 -282 314 -275 
Q 314 -250 442 -141 
Q 986 320 1274 758 
Q 1562 1197 1830 1830 
z
M 4115 1786 
Q 4237 1786 4809 1578 
Q 5382 1370 5692 1066 
Q 6003 762 6003 461 
Q 6003 269 5856 112 
Q 5709 -45 5498 -45 
Q 5370 -45 5267 44 
Q 5165 134 5152 275 
Q 5126 634 4844 1050 
Q 4563 1466 4166 1702 
Q 4083 1747 4083 1766 
Q 4083 1786 4115 1786 
z
" transform="scale(0.015625)"/>
        <path id="STSongti-SC-Black-740" d="M 4166 2707 
Q 4640 3155 5139 4173 
Q 6022 3616 6022 3475 
Q 6022 3405 5856 3373 
Q 5690 3341 5328 3168 
Q 4966 2995 4166 2573 
L 4166 710 
Q 4166 512 4281 419 
Q 4397 326 4710 326 
Q 5024 326 5177 400 
Q 5331 474 5401 691 
Q 5472 909 5562 1491 
Q 5568 1555 5609 1555 
Q 5651 1555 5645 1491 
Q 5619 1242 5619 1037 
Q 5619 832 5692 720 
Q 5766 608 5952 505 
Q 6138 403 6138 249 
Q 6138 96 5952 -86 
Q 5766 -269 5491 -307 
Q 5216 -346 4637 -346 
Q 4058 -346 3821 -256 
Q 3584 -166 3491 32 
Q 3398 230 3398 634 
L 3398 4493 
Q 3398 4928 3379 5210 
Q 4064 5146 4192 5101 
Q 4320 5056 4320 4966 
Q 4320 4877 4166 4806 
L 4166 2707 
z
M 2016 3046 
L 845 3046 
Q 717 3046 614 2976 
L 448 3277 
Q 602 3258 768 3258 
L 2016 3258 
L 2016 4589 
Q 2016 4909 2003 5158 
Q 2586 5101 2755 5043 
Q 2925 4986 2925 4918 
Q 2925 4851 2797 4774 
L 2797 -243 
Q 2797 -294 2784 -316 
Q 2771 -339 2630 -393 
Q 2490 -448 2275 -486 
Q 2061 -525 2025 -525 
Q 1990 -525 1990 -474 
L 2003 -173 
Q 2016 141 2016 397 
L 2016 1120 
Q 1632 800 1414 589 
Q 1197 378 896 32 
Q 851 -19 822 -19 
Q 794 -19 765 19 
Q 736 58 582 326 
Q 429 595 320 877 
Q 1152 1056 2016 1357 
L 2016 3046 
z
" transform="scale(0.015625)"/>
       </defs>
       <use xlink:href="#STSongti-SC-Black-667"/>
       <use xlink:href="#STSongti-SC-Black-740" transform="translate(100 0)"/>
      </g>
     </g>
    </g>
    <g id="xtick_2">
     <g id="line2d_2">
      <g>
       <use xlink:href="#m2cb19665e8" x="129.521966" y="123.258389" style="stroke: #000000; stroke-width: 0.65"/>
      </g>
     </g>
     <g id="text_2">
      <!-- 华北 -->
      <g transform="translate(121.021966 135.068389) scale(0.085 -0.085)">
       <defs>
        <path id="STSongti-SC-Black-73e" d="M 1395 3411 
Q 1062 3168 700 2960 
Q 339 2752 300 2736 
Q 262 2720 236 2720 
Q 211 2720 211 2742 
Q 211 2765 282 2822 
Q 838 3302 1251 3929 
Q 1664 4557 1856 5229 
Q 2208 5101 2502 4957 
Q 2797 4813 2832 4781 
Q 2867 4749 2867 4717 
Q 2867 4640 2742 4637 
Q 2618 4634 2419 4384 
Q 2221 4134 2010 3930 
Q 2285 3859 2285 3801 
Q 2285 3744 2170 3706 
L 2170 2861 
Q 2701 3053 3328 3366 
L 3328 4467 
Q 3328 4902 3309 5184 
Q 3936 5120 4105 5065 
Q 4275 5011 4275 4947 
Q 4275 4883 4077 4813 
L 4077 3821 
Q 4819 4326 5299 4896 
Q 5664 4640 5872 4451 
Q 6080 4262 6080 4201 
Q 6080 4141 5907 4122 
Q 5843 4115 5555 3974 
Q 4448 3456 4077 3315 
L 4077 2682 
Q 4077 2534 4179 2476 
Q 4282 2419 4627 2419 
Q 5146 2419 5325 2556 
Q 5504 2694 5670 3328 
Q 5690 3398 5725 3398 
Q 5760 3398 5760 3328 
Q 5760 3008 5830 2816 
Q 5901 2624 6067 2547 
Q 6234 2470 6234 2316 
Q 6234 2163 6042 2000 
Q 5850 1837 5184 1814 
Q 4518 1792 4442 1792 
Q 3923 1792 3712 1846 
Q 3501 1901 3414 2057 
Q 3328 2214 3328 2541 
L 3328 3046 
Q 2752 2874 2170 2790 
L 2170 1773 
Q 2170 1696 2115 1654 
Q 2061 1613 1888 1577 
Q 1715 1542 1542 1542 
Q 1370 1542 1370 1626 
L 1382 1958 
Q 1395 2349 1395 2675 
L 1395 3411 
z
M 2822 870 
L 678 870 
Q 550 870 448 800 
L 282 1101 
Q 435 1082 602 1082 
L 2822 1082 
Q 2822 1728 2810 1824 
Q 3795 1786 3795 1645 
Q 3795 1574 3622 1498 
L 3622 1082 
L 5107 1082 
Q 5286 1402 5376 1530 
Q 5466 1658 5504 1658 
Q 5568 1658 5910 1376 
Q 6253 1094 6253 982 
Q 6253 870 6099 870 
L 3622 870 
L 3622 83 
L 3635 -480 
Q 3635 -538 3584 -579 
Q 3533 -621 3360 -665 
Q 3187 -710 3024 -710 
Q 2861 -710 2832 -697 
Q 2803 -685 2803 -627 
L 2810 -397 
Q 2822 -147 2822 83 
L 2822 870 
z
" transform="scale(0.015625)"/>
       </defs>
       <use xlink:href="#STSongti-SC-Black-73e"/>
       <use xlink:href="#STSongti-SC-Black-740" transform="translate(100 0)"/>
      </g>
     </g>
    </g>
    <g id="xtick_3">
     <g id="line2d_3">
      <g>
       <use xlink:href="#m2cb19665e8" x="188.794999" y="123.258389" style="stroke: #000000; stroke-width: 0.65"/>
      </g>
     </g>
     <g id="text_3">
      <!-- 华东 -->
      <g transform="translate(180.294999 135.068389) scale(0.085 -0.085)">
       <use xlink:href="#STSongti-SC-Black-73e"/>
       <use xlink:href="#STSongti-SC-Black-667" transform="translate(100 0)"/>
      </g>
     </g>
    </g>
    <g id="xtick_4">
     <g id="line2d_4">
      <g>
       <use xlink:href="#m2cb19665e8" x="248.068033" y="123.258389" style="stroke: #000000; stroke-width: 0.65"/>
      </g>
     </g>
     <g id="text_4">
      <!-- 西南 -->
      <g transform="translate(239.568033 135.068389) scale(0.085 -0.085)">
       <defs>
        <path id="STSongti-SC-Black-653" d="M 2086 4461 
L 576 4461 
Q 448 4461 346 4390 
L 179 4691 
Q 333 4672 499 4672 
L 4998 4672 
Q 5293 5210 5379 5210 
Q 5466 5210 5843 4909 
Q 6221 4608 6221 4518 
Q 6221 4461 6080 4461 
L 4179 4461 
Q 4173 4314 4064 4282 
L 4064 3277 
L 4518 3277 
Q 4698 3642 4787 3642 
Q 4826 3642 4992 3549 
Q 5158 3456 5363 3315 
Q 5568 3174 5629 3110 
Q 5690 3046 5690 2995 
Q 5690 2880 5446 2810 
L 5446 531 
Q 5446 134 5453 -58 
L 5466 -358 
Q 5466 -410 5376 -467 
Q 5286 -525 5116 -573 
Q 4947 -621 4749 -621 
Q 4653 -621 4653 -512 
L 4653 -45 
L 1510 -45 
L 1510 -371 
Q 1510 -429 1475 -461 
Q 1440 -493 1261 -566 
Q 1082 -640 832 -640 
Q 762 -640 768 -550 
Q 781 -403 781 301 
L 781 3027 
Q 781 3296 762 3571 
Q 1139 3469 1549 3277 
L 2080 3277 
Q 2099 3725 2086 4461 
z
M 3264 4461 
L 2982 4461 
Q 2906 4384 2899 4230 
Q 2880 3693 2842 3277 
L 3264 3277 
L 3264 4461 
z
M 1510 1050 
Q 2010 1715 2067 3066 
L 1664 3066 
Q 1613 2989 1510 2950 
L 1510 1050 
z
M 4064 3066 
L 4064 1997 
Q 4064 1888 4125 1827 
Q 4186 1766 4282 1766 
Q 4378 1766 4454 1830 
Q 4480 1850 4521 1850 
Q 4563 1850 4653 1766 
L 4653 3066 
L 4064 3066 
z
M 4653 1120 
Q 4365 1043 3971 1043 
Q 3578 1043 3421 1174 
Q 3264 1306 3264 1651 
L 3264 3066 
L 2822 3066 
Q 2739 2291 2480 1811 
Q 2221 1331 1510 806 
L 1510 166 
L 4653 166 
L 4653 1120 
z
" transform="scale(0.015625)"/>
        <path id="STSongti-SC-Black-724" d="M 2790 4045 
L 653 4045 
Q 525 4045 422 3974 
L 256 4275 
Q 410 4256 576 4256 
L 2797 4256 
L 2816 4678 
Q 2816 4998 2803 5248 
Q 3123 5222 3398 5171 
Q 3674 5120 3731 5094 
Q 3789 5069 3789 5021 
Q 3789 4973 3597 4864 
L 3571 4256 
L 5024 4256 
Q 5062 4333 5196 4553 
Q 5331 4774 5366 4809 
Q 5402 4845 5450 4845 
Q 5498 4845 5664 4717 
Q 5830 4589 6012 4441 
Q 6195 4294 6256 4227 
Q 6317 4160 6317 4115 
Q 6317 4045 6182 4045 
L 3565 4045 
L 3533 3245 
L 4634 3245 
Q 4864 3635 4947 3635 
Q 5011 3635 5420 3388 
Q 5830 3142 5830 3049 
Q 5830 2957 5606 2899 
L 5606 96 
Q 5606 -115 5558 -246 
Q 5510 -378 5385 -464 
Q 5261 -550 5024 -601 
Q 4787 -653 4672 -653 
Q 4557 -653 4528 -633 
Q 4499 -614 4486 -544 
Q 4442 -288 4317 -189 
Q 4192 -90 4006 -32 
Q 3821 26 3821 48 
Q 3821 70 3904 70 
L 4192 64 
Q 4512 64 4662 137 
Q 4813 211 4813 442 
L 4813 851 
L 3539 851 
L 3539 448 
Q 3539 237 3546 0 
L 3558 -218 
Q 3558 -262 3539 -284 
Q 3520 -307 3392 -355 
Q 3264 -403 3097 -438 
Q 2931 -474 2854 -474 
Q 2810 -474 2810 -378 
L 2822 -128 
Q 2829 128 2829 448 
L 2829 851 
L 2074 851 
Q 1907 851 1798 819 
L 1690 1094 
Q 1824 1062 2010 1062 
L 2829 1062 
L 2829 1651 
L 2246 1651 
Q 2080 1651 1971 1619 
L 1862 1894 
Q 1997 1862 2182 1862 
L 3213 1862 
Q 3475 2470 3571 3034 
L 1709 3034 
Q 1683 3002 1613 2970 
L 1613 -339 
Q 1613 -390 1606 -416 
Q 1600 -442 1469 -506 
Q 1338 -570 1149 -608 
Q 960 -646 921 -646 
Q 883 -646 883 -595 
L 896 -307 
Q 909 -122 909 90 
L 909 3053 
Q 909 3354 890 3507 
Q 1312 3405 1702 3245 
L 2758 3245 
L 2790 4045 
z
M 3853 3034 
Q 4435 2842 4435 2733 
Q 4435 2669 4314 2650 
Q 4077 2605 3405 1862 
L 3757 1862 
Q 3968 2246 4035 2246 
Q 4102 2246 4377 2025 
Q 4653 1805 4653 1728 
Q 4653 1651 4486 1651 
L 3622 1651 
Q 3603 1632 3539 1606 
L 3539 1062 
L 3866 1062 
Q 4045 1344 4102 1427 
Q 4160 1510 4192 1510 
Q 4282 1510 4813 973 
L 4813 3034 
L 3853 3034 
z
M 2003 2976 
Q 2157 2976 2441 2902 
Q 2726 2829 2870 2691 
Q 3014 2554 3014 2381 
Q 3014 2208 2867 2096 
Q 2720 1984 2585 1984 
Q 2451 1984 2377 2051 
Q 2304 2118 2304 2234 
Q 2304 2554 2246 2659 
Q 2189 2765 2070 2851 
Q 1952 2938 1952 2957 
Q 1952 2976 2003 2976 
z
" transform="scale(0.015625)"/>
       </defs>
       <use xlink:href="#STSongti-SC-Black-653"/>
       <use xlink:href="#STSongti-SC-Black-724" transform="translate(100 0)"/>
      </g>
     </g>
    </g>
   </g>
   <g id="matplotlib.axis_2">
    <g id="ytick_1">
     <g id="line2d_5">
      <defs>
       <path id="m1ddd978f2b" d="M 0 0 
L -3 0 
" style="stroke: #000000; stroke-width: 0.65"/>
      </defs>
      <g>
       <use xlink:href="#m1ddd978f2b" x="53.142734" y="109.781541" style="stroke: #000000; stroke-width: 0.65"/>
      </g>
     </g>
     <g id="text_5">
      <!-- 50 -->
      <g transform="translate(40.142734 112.728319) scale(0.085 -0.085)">
       <defs>
        <path id="TimesNewRomanPSMT-18" d="M 2778 4238 
L 2534 3706 
L 1259 3706 
L 981 3138 
Q 1809 3016 2294 2522 
Q 2709 2097 2709 1522 
Q 2709 1188 2573 903 
Q 2438 619 2231 419 
Q 2025 219 1772 97 
Q 1413 -75 1034 -75 
Q 653 -75 479 54 
Q 306 184 306 341 
Q 306 428 378 495 
Q 450 563 559 563 
Q 641 563 702 538 
Q 763 513 909 409 
Q 1144 247 1384 247 
Q 1750 247 2026 523 
Q 2303 800 2303 1197 
Q 2303 1581 2056 1914 
Q 1809 2247 1375 2428 
Q 1034 2569 447 2591 
L 1259 4238 
L 2778 4238 
z
" transform="scale(0.015625)"/>
        <path id="TimesNewRomanPSMT-13" d="M 231 2094 
Q 231 2819 450 3342 
Q 669 3866 1031 4122 
Q 1313 4325 1613 4325 
Q 2100 4325 2488 3828 
Q 2972 3213 2972 2159 
Q 2972 1422 2759 906 
Q 2547 391 2217 158 
Q 1888 -75 1581 -75 
Q 975 -75 572 641 
Q 231 1244 231 2094 
z
M 844 2016 
Q 844 1141 1059 588 
Q 1238 122 1591 122 
Q 1759 122 1940 273 
Q 2122 425 2216 781 
Q 2359 1319 2359 2297 
Q 2359 3022 2209 3506 
Q 2097 3866 1919 4016 
Q 1791 4119 1609 4119 
Q 1397 4119 1231 3928 
Q 1006 3669 925 3112 
Q 844 2556 844 2016 
z
" transform="scale(0.015625)"/>
       </defs>
       <use xlink:href="#TimesNewRomanPSMT-18"/>
       <use xlink:href="#TimesNewRomanPSMT-13" transform="translate(50 0)"/>
      </g>
     </g>
    </g>
    <g id="ytick_2">
     <g id="line2d_6">
      <g>
       <use xlink:href="#m1ddd978f2b" x="53.142734" y="84.87285" style="stroke: #000000; stroke-width: 0.65"/>
      </g>
     </g>
     <g id="text_6">
      <!-- 60 -->
      <g transform="translate(40.142734 87.819628) scale(0.085 -0.085)">
       <defs>
        <path id="TimesNewRomanPSMT-19" d="M 2869 4325 
L 2869 4209 
Q 2456 4169 2195 4045 
Q 1934 3922 1679 3669 
Q 1425 3416 1258 3105 
Q 1091 2794 978 2366 
Q 1428 2675 1881 2675 
Q 2316 2675 2634 2325 
Q 2953 1975 2953 1425 
Q 2953 894 2631 456 
Q 2244 -75 1606 -75 
Q 1172 -75 869 213 
Q 275 772 275 1663 
Q 275 2231 503 2743 
Q 731 3256 1154 3653 
Q 1578 4050 1965 4187 
Q 2353 4325 2688 4325 
L 2869 4325 
z
M 925 2138 
Q 869 1716 869 1456 
Q 869 1156 980 804 
Q 1091 453 1309 247 
Q 1469 100 1697 100 
Q 1969 100 2183 356 
Q 2397 613 2397 1088 
Q 2397 1622 2184 2012 
Q 1972 2403 1581 2403 
Q 1463 2403 1327 2353 
Q 1191 2303 925 2138 
z
" transform="scale(0.015625)"/>
       </defs>
       <use xlink:href="#TimesNewRomanPSMT-19"/>
       <use xlink:href="#TimesNewRomanPSMT-13" transform="translate(50 0)"/>
      </g>
     </g>
    </g>
    <g id="ytick_3">
     <g id="line2d_7">
      <g>
       <use xlink:href="#m1ddd978f2b" x="53.142734" y="59.964159" style="stroke: #000000; stroke-width: 0.65"/>
      </g>
     </g>
     <g id="text_7">
      <!-- 70 -->
      <g transform="translate(40.142734 62.910937) scale(0.085 -0.085)">
       <defs>
        <path id="TimesNewRomanPSMT-1a" d="M 644 4238 
L 2916 4238 
L 2916 4119 
L 1503 -88 
L 1153 -88 
L 2419 3728 
L 1253 3728 
Q 900 3728 750 3644 
Q 488 3500 328 3200 
L 238 3234 
L 644 4238 
z
" transform="scale(0.015625)"/>
       </defs>
       <use xlink:href="#TimesNewRomanPSMT-1a"/>
       <use xlink:href="#TimesNewRomanPSMT-13" transform="translate(50 0)"/>
      </g>
     </g>
    </g>
    <g id="ytick_4">
     <g id="line2d_8">
      <g>
       <use xlink:href="#m1ddd978f2b" x="53.142734" y="35.055468" style="stroke: #000000; stroke-width: 0.65"/>
      </g>
     </g>
     <g id="text_8">
      <!-- 80 -->
      <g transform="translate(40.142734 38.002246) scale(0.085 -0.085)">
       <defs>
        <path id="TimesNewRomanPSMT-1b" d="M 1228 2134 
Q 725 2547 579 2797 
Q 434 3047 434 3316 
Q 434 3728 753 4026 
Q 1072 4325 1600 4325 
Q 2113 4325 2425 4047 
Q 2738 3769 2738 3413 
Q 2738 3175 2569 2928 
Q 2400 2681 1866 2347 
Q 2416 1922 2594 1678 
Q 2831 1359 2831 1006 
Q 2831 559 2490 242 
Q 2150 -75 1597 -75 
Q 994 -75 656 303 
Q 388 606 388 966 
Q 388 1247 577 1523 
Q 766 1800 1228 2134 
z
M 1719 2469 
Q 2094 2806 2194 3001 
Q 2294 3197 2294 3444 
Q 2294 3772 2109 3958 
Q 1925 4144 1606 4144 
Q 1288 4144 1088 3959 
Q 888 3775 888 3528 
Q 888 3366 970 3203 
Q 1053 3041 1206 2894 
L 1719 2469 
z
M 1375 2016 
Q 1116 1797 991 1539 
Q 866 1281 866 981 
Q 866 578 1086 336 
Q 1306 94 1647 94 
Q 1984 94 2187 284 
Q 2391 475 2391 747 
Q 2391 972 2272 1150 
Q 2050 1481 1375 2016 
z
" transform="scale(0.015625)"/>
       </defs>
       <use xlink:href="#TimesNewRomanPSMT-1b"/>
       <use xlink:href="#TimesNewRomanPSMT-13" transform="translate(50 0)"/>
      </g>
     </g>
    </g>
    <g id="ytick_5">
     <g id="line2d_9">
      <g>
       <use xlink:href="#m1ddd978f2b" x="53.142734" y="10.146777" style="stroke: #000000; stroke-width: 0.65"/>
      </g>
     </g>
     <g id="text_9">
      <!-- 90 -->
      <g transform="translate(40.142734 13.093555) scale(0.085 -0.085)">
       <defs>
        <path id="TimesNewRomanPSMT-1c" d="M 338 -88 
L 338 28 
Q 744 34 1094 217 
Q 1444 400 1770 856 
Q 2097 1313 2225 1859 
Q 1734 1544 1338 1544 
Q 891 1544 572 1889 
Q 253 2234 253 2806 
Q 253 3363 572 3797 
Q 956 4325 1575 4325 
Q 2097 4325 2469 3894 
Q 2925 3359 2925 2575 
Q 2925 1869 2578 1258 
Q 2231 647 1613 244 
Q 1109 -88 516 -88 
L 338 -88 
z
M 2275 2091 
Q 2331 2497 2331 2741 
Q 2331 3044 2228 3395 
Q 2125 3747 1936 3934 
Q 1747 4122 1506 4122 
Q 1228 4122 1018 3872 
Q 809 3622 809 3128 
Q 809 2469 1088 2097 
Q 1291 1828 1588 1828 
Q 1731 1828 1928 1897 
Q 2125 1966 2275 2091 
z
" transform="scale(0.015625)"/>
       </defs>
       <use xlink:href="#TimesNewRomanPSMT-1c"/>
       <use xlink:href="#TimesNewRomanPSMT-13" transform="translate(50 0)"/>
      </g>
     </g>
    </g>
   </g>
   <g id="patch_3">
    <path d="M 53.142734 123.258389 
L 53.142734 7.604845 
" style="fill: none; stroke: #000000; stroke-width: 0.65; stroke-linejoin: miter; stroke-linecap: square"/>
   </g>
   <g id="patch_4">
    <path d="M 53.142734 123.258389 
L 265.17423 123.258389 
" style="fill: none; stroke: #000000; stroke-width: 0.65; stroke-linejoin: miter; stroke-linecap: square"/>
   </g>
   <g id="PathCollection_1">
    <defs>
     <path id="m155ccda6a7" d="M 0 2.12132 
C 0.562581 2.12132 1.102195 1.897805 1.5 1.5 
C 1.897805 1.102195 2.12132 0.562581 2.12132 0 
C 2.12132 -0.562581 1.897805 -1.102195 1.5 -1.5 
C 1.102195 -1.897805 0.562581 -2.12132 0 -2.12132 
C -0.562581 -2.12132 -1.102195 -1.897805 -1.5 -1.5 
C -1.897805 -1.102195 -2.12132 -0.562581 -2.12132 0 
C -2.12132 0.562581 -1.897805 1.102195 -1.5 1.5 
C -1.102195 1.897805 -0.562581 2.12132 0 2.12132 
z
" style="stroke: #0072b2; stroke-width: 0.65"/>
    </defs>
    <g clip-path="url(#pca929a0fc1)">
     <use xlink:href="#m155ccda6a7" x="62.78053" y="42.328806" style="fill: #ffffff; stroke: #0072b2; stroke-width: 0.65"/>
     <use xlink:href="#m155ccda6a7" x="63.659165" y="30.223182" style="fill: #ffffff; stroke: #0072b2; stroke-width: 0.65"/>
     <use xlink:href="#m155ccda6a7" x="64.537801" y="53.811713" style="fill: #ffffff; stroke: #0072b2; stroke-width: 0.65"/>
     <use xlink:href="#m155ccda6a7" x="65.416436" y="34.930925" style="fill: #ffffff; stroke: #0072b2; stroke-width: 0.65"/>
     <use xlink:href="#m155ccda6a7" x="66.295072" y="107.763937" style="fill: #ffffff; stroke: #0072b2; stroke-width: 0.65"/>
     <use xlink:href="#m155ccda6a7" x="67.173707" y="66.191332" style="fill: #ffffff; stroke: #0072b2; stroke-width: 0.65"/>
     <use xlink:href="#m155ccda6a7" x="68.052343" y="55.654956" style="fill: #ffffff; stroke: #0072b2; stroke-width: 0.65"/>
     <use xlink:href="#m155ccda6a7" x="68.930979" y="43.549332" style="fill: #ffffff; stroke: #0072b2; stroke-width: 0.65"/>
     <use xlink:href="#m155ccda6a7" x="69.809614" y="49.925957" style="fill: #ffffff; stroke: #0072b2; stroke-width: 0.65"/>
     <use xlink:href="#m155ccda6a7" x="70.68825" y="58.295277" style="fill: #ffffff; stroke: #0072b2; stroke-width: 0.65"/>
     <use xlink:href="#m155ccda6a7" x="71.566885" y="70.79944" style="fill: #ffffff; stroke: #0072b2; stroke-width: 0.65"/>
     <use xlink:href="#m155ccda6a7" x="72.445521" y="62.031581" style="fill: #ffffff; stroke: #0072b2; stroke-width: 0.65"/>
     <use xlink:href="#m155ccda6a7" x="73.324156" y="46.936914" style="fill: #ffffff; stroke: #0072b2; stroke-width: 0.65"/>
     <use xlink:href="#m155ccda6a7" x="74.202792" y="29.376287" style="fill: #ffffff; stroke: #0072b2; stroke-width: 0.65"/>
     <use xlink:href="#m155ccda6a7" x="75.081427" y="37.421794" style="fill: #ffffff; stroke: #0072b2; stroke-width: 0.65"/>
     <use xlink:href="#m155ccda6a7" x="75.960063" y="51.046848" style="fill: #ffffff; stroke: #0072b2; stroke-width: 0.65"/>
     <use xlink:href="#m155ccda6a7" x="76.838699" y="48.456344" style="fill: #ffffff; stroke: #0072b2; stroke-width: 0.65"/>
     <use xlink:href="#m155ccda6a7" x="77.717334" y="63.127563" style="fill: #ffffff; stroke: #0072b2; stroke-width: 0.65"/>
    </g>
   </g>
   <g id="PathCollection_2">
    <g clip-path="url(#pca929a0fc1)">
     <use xlink:href="#m155ccda6a7" x="122.053563" y="83.477964" style="fill: #ffffff; stroke: #0072b2; stroke-width: 0.65"/>
     <use xlink:href="#m155ccda6a7" x="122.987114" y="87.463354" style="fill: #ffffff; stroke: #0072b2; stroke-width: 0.65"/>
     <use xlink:href="#m155ccda6a7" x="123.920664" y="94.487605" style="fill: #ffffff; stroke: #0072b2; stroke-width: 0.65"/>
     <use xlink:href="#m155ccda6a7" x="124.854214" y="68.383297" style="fill: #ffffff; stroke: #0072b2; stroke-width: 0.65"/>
     <use xlink:href="#m155ccda6a7" x="125.787764" y="49.801413" style="fill: #ffffff; stroke: #0072b2; stroke-width: 0.65"/>
     <use xlink:href="#m155ccda6a7" x="126.721315" y="90.153493" style="fill: #ffffff; stroke: #0072b2; stroke-width: 0.65"/>
     <use xlink:href="#m155ccda6a7" x="127.654865" y="44.321501" style="fill: #ffffff; stroke: #0072b2; stroke-width: 0.65"/>
     <use xlink:href="#m155ccda6a7" x="128.588415" y="54.135526" style="fill: #ffffff; stroke: #0072b2; stroke-width: 0.65"/>
     <use xlink:href="#m155ccda6a7" x="129.521966" y="69.180375" style="fill: #ffffff; stroke: #0072b2; stroke-width: 0.65"/>
     <use xlink:href="#m155ccda6a7" x="130.455516" y="50.997031" style="fill: #ffffff; stroke: #0072b2; stroke-width: 0.65"/>
     <use xlink:href="#m155ccda6a7" x="131.389066" y="71.322523" style="fill: #ffffff; stroke: #0072b2; stroke-width: 0.65"/>
     <use xlink:href="#m155ccda6a7" x="132.322616" y="28.778478" style="fill: #ffffff; stroke: #0072b2; stroke-width: 0.65"/>
     <use xlink:href="#m155ccda6a7" x="133.256167" y="20.633336" style="fill: #ffffff; stroke: #0072b2; stroke-width: 0.65"/>
     <use xlink:href="#m155ccda6a7" x="134.189717" y="71.820696" style="fill: #ffffff; stroke: #0072b2; stroke-width: 0.65"/>
     <use xlink:href="#m155ccda6a7" x="135.123267" y="62.479937" style="fill: #ffffff; stroke: #0072b2; stroke-width: 0.65"/>
     <use xlink:href="#m155ccda6a7" x="136.056818" y="61.458681" style="fill: #ffffff; stroke: #0072b2; stroke-width: 0.65"/>
     <use xlink:href="#m155ccda6a7" x="136.990368" y="36.92362" style="fill: #ffffff; stroke: #0072b2; stroke-width: 0.65"/>
    </g>
   </g>
   <g id="PathCollection_3">
    <g clip-path="url(#pca929a0fc1)">
     <use xlink:href="#m155ccda6a7" x="181.326597" y="16.299224" style="fill: #ffffff; stroke: #0072b2; stroke-width: 0.65"/>
     <use xlink:href="#m155ccda6a7" x="182.205233" y="20.907332" style="fill: #ffffff; stroke: #0072b2; stroke-width: 0.65"/>
     <use xlink:href="#m155ccda6a7" x="183.083868" y="47.509814" style="fill: #ffffff; stroke: #0072b2; stroke-width: 0.65"/>
     <use xlink:href="#m155ccda6a7" x="183.962504" y="27.259048" style="fill: #ffffff; stroke: #0072b2; stroke-width: 0.65"/>
     <use xlink:href="#m155ccda6a7" x="184.841139" y="30.098639" style="fill: #ffffff; stroke: #0072b2; stroke-width: 0.65"/>
     <use xlink:href="#m155ccda6a7" x="185.719775" y="35.254738" style="fill: #ffffff; stroke: #0072b2; stroke-width: 0.65"/>
     <use xlink:href="#m155ccda6a7" x="186.59841" y="18.46628" style="fill: #ffffff; stroke: #0072b2; stroke-width: 0.65"/>
     <use xlink:href="#m155ccda6a7" x="187.477046" y="45.467301" style="fill: #ffffff; stroke: #0072b2; stroke-width: 0.65"/>
     <use xlink:href="#m155ccda6a7" x="188.355681" y="12.861825" style="fill: #ffffff; stroke: #0072b2; stroke-width: 0.65"/>
     <use xlink:href="#m155ccda6a7" x="189.234317" y="73.888118" style="fill: #ffffff; stroke: #0072b2; stroke-width: 0.65"/>
     <use xlink:href="#m155ccda6a7" x="190.112953" y="56.52676" style="fill: #ffffff; stroke: #0072b2; stroke-width: 0.65"/>
     <use xlink:href="#m155ccda6a7" x="190.991588" y="58.967812" style="fill: #ffffff; stroke: #0072b2; stroke-width: 0.65"/>
     <use xlink:href="#m155ccda6a7" x="191.870224" y="31.144804" style="fill: #ffffff; stroke: #0072b2; stroke-width: 0.65"/>
     <use xlink:href="#m155ccda6a7" x="192.748859" y="39.190311" style="fill: #ffffff; stroke: #0072b2; stroke-width: 0.65"/>
     <use xlink:href="#m155ccda6a7" x="193.627495" y="56.402217" style="fill: #ffffff; stroke: #0072b2; stroke-width: 0.65"/>
     <use xlink:href="#m155ccda6a7" x="194.50613" y="20.832606" style="fill: #ffffff; stroke: #0072b2; stroke-width: 0.65"/>
     <use xlink:href="#m155ccda6a7" x="195.384766" y="62.305576" style="fill: #ffffff; stroke: #0072b2; stroke-width: 0.65"/>
     <use xlink:href="#m155ccda6a7" x="196.263401" y="50.523765" style="fill: #ffffff; stroke: #0072b2; stroke-width: 0.65"/>
    </g>
   </g>
   <g id="PathCollection_4">
    <g clip-path="url(#pca929a0fc1)">
     <use xlink:href="#m155ccda6a7" x="240.599631" y="91.623106" style="fill: #ffffff; stroke: #0072b2; stroke-width: 0.65"/>
     <use xlink:href="#m155ccda6a7" x="241.478266" y="93.192353" style="fill: #ffffff; stroke: #0072b2; stroke-width: 0.65"/>
     <use xlink:href="#m155ccda6a7" x="242.356902" y="116.706158" style="fill: #ffffff; stroke: #0072b2; stroke-width: 0.65"/>
     <use xlink:href="#m155ccda6a7" x="243.235537" y="58.768542" style="fill: #ffffff; stroke: #0072b2; stroke-width: 0.65"/>
     <use xlink:href="#m155ccda6a7" x="244.114173" y="79.517482" style="fill: #ffffff; stroke: #0072b2; stroke-width: 0.65"/>
     <use xlink:href="#m155ccda6a7" x="244.992808" y="67.386949" style="fill: #ffffff; stroke: #0072b2; stroke-width: 0.65"/>
     <use xlink:href="#m155ccda6a7" x="245.871444" y="106.692864" style="fill: #ffffff; stroke: #0072b2; stroke-width: 0.65"/>
     <use xlink:href="#m155ccda6a7" x="246.75008" y="78.471317" style="fill: #ffffff; stroke: #0072b2; stroke-width: 0.65"/>
     <use xlink:href="#m155ccda6a7" x="247.628715" y="71.621427" style="fill: #ffffff; stroke: #0072b2; stroke-width: 0.65"/>
     <use xlink:href="#m155ccda6a7" x="248.507351" y="85.246481" style="fill: #ffffff; stroke: #0072b2; stroke-width: 0.65"/>
     <use xlink:href="#m155ccda6a7" x="249.385986" y="79.517482" style="fill: #ffffff; stroke: #0072b2; stroke-width: 0.65"/>
     <use xlink:href="#m155ccda6a7" x="250.264622" y="47.086366" style="fill: #ffffff; stroke: #0072b2; stroke-width: 0.65"/>
     <use xlink:href="#m155ccda6a7" x="251.143257" y="118.001409" style="fill: #ffffff; stroke: #0072b2; stroke-width: 0.65"/>
     <use xlink:href="#m155ccda6a7" x="252.021893" y="96.804113" style="fill: #ffffff; stroke: #0072b2; stroke-width: 0.65"/>
     <use xlink:href="#m155ccda6a7" x="252.900528" y="61.159777" style="fill: #ffffff; stroke: #0072b2; stroke-width: 0.65"/>
     <use xlink:href="#m155ccda6a7" x="253.779164" y="65.344437" style="fill: #ffffff; stroke: #0072b2; stroke-width: 0.65"/>
     <use xlink:href="#m155ccda6a7" x="254.6578" y="102.807108" style="fill: #ffffff; stroke: #0072b2; stroke-width: 0.65"/>
     <use xlink:href="#m155ccda6a7" x="255.536435" y="66.664597" style="fill: #ffffff; stroke: #0072b2; stroke-width: 0.65"/>
    </g>
   </g>
   <g id="LineCollection_1">
    <path d="M 70.248932 61.707664 
L 70.248932 45.346667 
" clip-path="url(#pca929a0fc1)" style="fill: none; stroke: #0072b2"/>
   </g>
   <g id="line2d_10">
    <defs>
     <path id="m4ef91b9105" d="M 2.2 0 
L -2.2 -0 
" style="stroke: #0072b2"/>
    </defs>
    <g clip-path="url(#pca929a0fc1)">
     <use xlink:href="#m4ef91b9105" x="70.248932" y="61.707664" style="fill: #0072b2; stroke: #0072b2"/>
    </g>
   </g>
   <g id="line2d_11">
    <g clip-path="url(#pca929a0fc1)">
     <use xlink:href="#m4ef91b9105" x="70.248932" y="45.346667" style="fill: #0072b2; stroke: #0072b2"/>
    </g>
   </g>
   <g id="LineCollection_2">
    <path d="M 129.521966 71.296588 
L 129.521966 51.425423 
" clip-path="url(#pca929a0fc1)" style="fill: none; stroke: #0072b2"/>
   </g>
   <g id="line2d_12">
    <g clip-path="url(#pca929a0fc1)">
     <use xlink:href="#m4ef91b9105" x="129.521966" y="71.296588" style="fill: #0072b2; stroke: #0072b2"/>
    </g>
   </g>
   <g id="line2d_13">
    <g clip-path="url(#pca929a0fc1)">
     <use xlink:href="#m4ef91b9105" x="129.521966" y="51.425423" style="fill: #0072b2; stroke: #0072b2"/>
    </g>
   </g>
   <g id="LineCollection_3">
    <path d="M 188.794999 47.175588 
L 188.794999 30.957712 
" clip-path="url(#pca929a0fc1)" style="fill: none; stroke: #0072b2"/>
   </g>
   <g id="line2d_14">
    <g clip-path="url(#pca929a0fc1)">
     <use xlink:href="#m4ef91b9105" x="188.794999" y="47.175588" style="fill: #0072b2; stroke: #0072b2"/>
    </g>
   </g>
   <g id="line2d_15">
    <g clip-path="url(#pca929a0fc1)">
     <use xlink:href="#m4ef91b9105" x="188.794999" y="30.957712" style="fill: #0072b2; stroke: #0072b2"/>
    </g>
   </g>
   <g id="LineCollection_4">
    <path d="M 248.068033 91.320811 
L 248.068033 73.897666 
" clip-path="url(#pca929a0fc1)" style="fill: none; stroke: #0072b2"/>
   </g>
   <g id="line2d_16">
    <g clip-path="url(#pca929a0fc1)">
     <use xlink:href="#m4ef91b9105" x="248.068033" y="91.320811" style="fill: #0072b2; stroke: #0072b2"/>
    </g>
   </g>
   <g id="line2d_17">
    <g clip-path="url(#pca929a0fc1)">
     <use xlink:href="#m4ef91b9105" x="248.068033" y="73.897666" style="fill: #0072b2; stroke: #0072b2"/>
    </g>
   </g>
   <g id="line2d_18">
    <path d="M 70.248932 52.881788 
" clip-path="url(#pca929a0fc1)" style="fill: none; stroke: #0072b2; stroke-linecap: square"/>
    <defs>
     <path id="m7570c04dc3" d="M 0 2 
C 0.530406 2 1.03916 1.789267 1.414214 1.414214 
C 1.789267 1.03916 2 0.530406 2 0 
C 2 -0.530406 1.789267 -1.03916 1.414214 -1.414214 
C 1.03916 -1.789267 0.530406 -2 0 -2 
C -0.530406 -2 -1.03916 -1.789267 -1.414214 -1.414214 
C -1.789267 -1.03916 -2 -0.530406 -2 0 
C -2 0.530406 -1.789267 1.03916 -1.414214 1.414214 
C -1.03916 1.789267 -0.530406 2 0 2 
z
" style="stroke: #0072b2"/>
    </defs>
    <g clip-path="url(#pca929a0fc1)">
     <use xlink:href="#m7570c04dc3" x="70.248932" y="52.881788" style="fill: #0072b2; stroke: #0072b2"/>
    </g>
   </g>
   <g id="line2d_19">
    <path d="M 129.521966 61.518755 
" clip-path="url(#pca929a0fc1)" style="fill: none; stroke: #0072b2; stroke-linecap: square"/>
    <g clip-path="url(#pca929a0fc1)">
     <use xlink:href="#m7570c04dc3" x="129.521966" y="61.518755" style="fill: #0072b2; stroke: #0072b2"/>
    </g>
   </g>
   <g id="line2d_20">
    <path d="M 188.794999 39.105898 
" clip-path="url(#pca929a0fc1)" style="fill: none; stroke: #0072b2; stroke-linecap: square"/>
    <g clip-path="url(#pca929a0fc1)">
     <use xlink:href="#m7570c04dc3" x="188.794999" y="39.105898" style="fill: #0072b2; stroke: #0072b2"/>
    </g>
   </g>
   <g id="line2d_21">
    <path d="M 248.068033 82.589554 
" clip-path="url(#pca929a0fc1)" style="fill: none; stroke: #0072b2; stroke-linecap: square"/>
    <g clip-path="url(#pca929a0fc1)">
     <use xlink:href="#m7570c04dc3" x="248.068033" y="82.589554" style="fill: #0072b2; stroke: #0072b2"/>
    </g>
   </g>
   <g id="patch_5">
    <path d="M 152.610162 154.492451 
L 156.4511 154.492451 
Q 156.638365 154.152451 156.744615 153.978467 
Q 156.850865 153.803154 156.889381 153.773936 
Q 156.927896 153.743389 156.978365 153.743389 
Q 157.105865 153.743389 157.679615 154.164404 
Q 158.253365 154.58542 158.253365 154.679717 
Q 158.253365 154.772686 158.1086 154.772686 
L 152.643365 154.772686 
Q 152.610162 154.865654 152.473365 154.908154 
L 152.473365 160.19542 
Q 152.507896 160.135654 152.592896 160.06792 
Q 153.8161 159.09042 154.828131 157.535186 
Q 153.740396 156.362451 152.830631 155.73292 
Q 152.7111 155.655889 152.7111 155.613389 
Q 152.7111 155.570889 152.762896 155.570889 
Q 152.890396 155.570889 153.684615 155.958701 
Q 154.480162 156.345186 155.227896 156.845889 
Q 155.8136 155.73292 155.933131 154.848389 
Q 156.485631 155.05292 156.868131 155.226904 
Q 157.250631 155.400889 157.289146 155.452686 
Q 157.327662 155.503154 157.327662 155.545654 
Q 157.327662 155.655889 157.157662 155.69042 
Q 157.080631 155.707686 157.02485 155.767451 
Q 156.970396 155.825889 156.850865 156.047686 
Q 156.383365 156.863154 155.992896 157.398389 
Q 156.595865 157.875186 157.038131 158.381201 
Q 157.480396 158.885889 157.480396 159.294951 
Q 157.480396 159.702686 157.23735 159.915186 
Q 156.995631 160.127686 156.757896 160.127686 
Q 156.400631 160.127686 156.263834 159.609717 
Q 156.128365 159.09042 155.372662 158.163389 
Q 154.683365 158.937686 153.611568 159.630967 
Q 152.5411 160.32292 152.473365 160.255186 
L 152.473365 160.807686 
L 156.757896 160.807686 
Q 156.910631 160.543389 157.080631 160.297686 
Q 157.250631 160.050654 157.283834 160.021436 
Q 157.318365 159.990889 157.370162 159.990889 
Q 157.5136 159.990889 158.052818 160.446436 
Q 158.593365 160.900654 158.593365 160.993623 
Q 158.593365 161.08792 158.432662 161.08792 
L 152.473365 161.08792 
L 152.2861 161.350889 
Q 152.218365 161.453154 152.141334 161.453154 
Q 152.065631 161.453154 151.772115 161.248623 
Q 151.4786 161.04542 151.316568 160.951123 
Q 151.155865 160.858154 151.155865 160.79042 
Q 151.155865 160.739951 151.2661 160.658936 
Q 151.377662 160.57792 151.420162 160.467686 
Q 151.462662 160.357451 151.462662 160.042686 
L 151.462662 154.738154 
Q 151.462662 154.380889 151.4361 154.015654 
Q 152.185162 154.220186 152.610162 154.492451 
z
M 166.3111 154.67042 
Q 166.847662 155.060889 166.983131 155.205654 
Q 167.1186 155.35042 167.1186 155.43542 
Q 167.1186 155.56292 166.890162 155.56292 
L 165.113131 155.56292 
Q 165.130396 157.47542 165.257896 158.24042 
Q 165.5036 157.68792 165.733365 156.11542 
Q 166.065396 156.217686 166.405396 156.362451 
Q 166.745396 156.505889 166.898131 156.590889 
Q 167.050865 156.675889 167.050865 156.748936 
Q 167.050865 156.820654 166.923365 156.841904 
Q 166.795865 156.863154 166.728131 156.92292 
Q 166.660396 156.982686 166.600631 157.169951 
Q 166.167662 158.435654 165.538131 159.26042 
Q 165.682896 159.60042 165.90735 159.89792 
Q 166.133131 160.19542 166.256646 160.19542 
Q 166.380162 160.19542 166.528912 159.974951 
Q 166.677662 159.753154 166.9486 159.209951 
Q 167.000396 159.107686 167.0336 159.107686 
Q 167.068131 159.107686 167.068131 159.150186 
Q 167.068131 159.192686 167.050865 159.243154 
Q 166.923365 159.787686 166.923365 160.247217 
Q 166.923365 160.70542 167.093365 161.010889 
Q 167.1611 161.13042 167.1611 161.244639 
Q 167.1611 161.360186 167.050865 161.439873 
Q 166.940631 161.520889 166.753365 161.520889 
Q 166.320396 161.520889 165.783834 161.188857 
Q 165.2486 160.858154 164.840865 160.059951 
Q 164.203365 160.670889 163.318834 161.032139 
Q 162.435631 161.393389 162.290865 161.393389 
Q 162.240396 161.393389 162.240396 161.358857 
Q 162.240396 161.325654 162.342662 161.283154 
Q 163.727896 160.637686 164.577896 159.413154 
L 164.510162 159.192686 
Q 162.810162 160.11042 161.7211 160.824951 
Q 161.645396 160.867451 161.61485 160.867451 
Q 161.585631 160.867451 161.560396 160.836904 
Q 161.535162 160.807686 161.369146 160.476982 
Q 161.203131 160.144951 161.067662 159.81292 
Q 162.265631 159.660186 164.475631 159.065186 
Q 164.297662 158.333389 164.220631 156.735654 
Q 164.1861 156.820654 163.982896 156.872451 
L 163.982896 157.917686 
Q 163.982896 158.317451 163.990865 158.470186 
L 164.000162 158.75042 
Q 164.000162 158.843389 163.944381 158.87792 
Q 163.8886 158.912451 163.722584 158.980186 
Q 163.557896 159.04792 163.374615 159.04792 
Q 163.192662 159.04792 163.136881 159.014717 
Q 163.0811 158.980186 163.0811 158.869951 
L 163.0811 158.673389 
L 162.665396 158.673389 
L 162.665396 158.92042 
Q 162.665396 158.997451 162.638834 159.02667 
Q 162.6136 159.055889 162.430318 159.119639 
Q 162.248365 159.183389 161.993365 159.183389 
Q 161.798131 159.183389 161.780865 159.115654 
Q 160.590865 159.830186 159.732896 160.500889 
Q 159.655865 160.552686 159.625318 160.552686 
Q 159.5961 160.552686 159.570865 160.523467 
Q 159.545631 160.49292 159.422115 160.183467 
Q 159.2986 159.872686 159.1286 159.405186 
Q 159.435396 159.370654 159.953365 159.294951 
L 159.953365 156.888389 
L 159.5111 156.888389 
Q 159.3411 156.888389 159.205631 156.982686 
L 158.985162 156.58292 
Q 159.188365 156.608154 159.410162 156.608154 
L 159.953365 156.608154 
L 159.953365 154.772686 
Q 159.953365 154.347686 159.9361 154.015654 
Q 161.1686 154.152451 161.1686 154.347686 
Q 161.1686 154.449951 160.905631 154.58542 
L 160.905631 156.608154 
Q 160.940162 156.54042 161.100865 156.319951 
Q 161.262896 156.098154 161.284146 156.086201 
Q 161.305396 156.07292 161.330631 156.07292 
Q 161.432896 156.07292 161.790162 156.463389 
Q 161.790162 156.208389 161.780865 156.132686 
Q 162.130162 156.250889 162.605631 156.463389 
L 162.962896 156.463389 
Q 163.225865 155.98792 163.306881 155.98792 
Q 163.387896 155.98792 163.778365 156.260186 
Q 164.170162 156.532451 164.212662 156.62542 
L 164.170162 155.56292 
L 161.8486 155.56292 
Q 161.6786 155.56292 161.543131 155.655889 
L 161.322662 155.257451 
Q 161.525865 155.282686 161.747662 155.282686 
L 164.160865 155.282686 
Q 164.127662 154.28792 164.075865 153.658389 
Q 164.858131 153.73542 165.130396 153.795186 
Q 165.402662 153.854951 165.368131 153.955889 
Q 165.860865 153.982451 166.106568 154.177686 
Q 166.3536 154.37292 166.3111 154.67042 
z
M 165.113131 155.282686 
L 165.8436 155.282686 
Q 165.945865 155.103389 165.988365 155.018389 
Q 165.920631 155.035654 165.860865 155.035654 
Q 165.580631 155.035654 165.555396 154.73417 
Q 165.530162 154.432686 165.48235 154.318467 
Q 165.435865 154.20292 165.283131 154.067451 
Q 165.190162 154.143154 165.1211 154.177686 
Q 165.113131 154.550889 165.113131 155.282686 
z
M 163.0811 158.393154 
L 163.0811 156.744951 
L 162.767662 156.744951 
Q 162.725162 156.803389 162.665396 156.820654 
L 162.665396 158.393154 
L 163.0811 158.393154 
z
M 161.7636 158.980186 
Q 161.798131 158.588389 161.798131 158.045186 
L 161.798131 156.888389 
L 160.905631 156.888389 
L 160.905631 159.150186 
Q 161.492662 159.04792 161.7636 158.980186 
z
"/>
   </g>
   <g id="patch_6">
    <path d="M 13.047734 88.369 
L 13.047734 87.204234 
L 11.527031 87.204234 
Q 11.102031 87.204234 10.777969 87.2215 
Q 10.804531 86.464469 10.864297 86.166969 
Q 10.922734 85.869469 11.025 85.869469 
Q 11.127266 85.869469 11.220234 86.107203 
L 13.047734 86.107203 
L 13.047734 84.943766 
Q 12.487266 84.619703 12.394297 84.547984 
Q 12.3 84.476266 12.3 84.425797 
Q 12.3 84.374 12.440781 84.18275 
Q 12.580234 83.9915 12.784766 83.745797 
Q 12.987969 83.498766 13.090234 83.405797 
Q 13.1925 83.3115 13.260234 83.3115 
Q 13.327969 83.3115 13.327969 83.506734 
L 13.327969 86.107203 
L 15.309531 86.107203 
L 15.309531 85.198766 
L 14.7225 84.824234 
Q 14.612266 84.7565 14.612266 84.663531 
Q 14.612266 84.569234 14.824766 84.285016 
Q 15.037266 83.999469 15.21125 83.782984 
Q 15.385234 83.5665 15.4875 83.5665 
Q 15.589766 83.5665 15.589766 83.812203 
L 15.589766 86.107203 
L 17.8675 86.107203 
L 17.8675 84.476266 
Q 17.212734 84.059234 17.137031 83.995484 
Q 17.06 83.931734 17.06 83.846734 
Q 17.06 83.761734 17.297734 83.498766 
L 17.74 83.004703 
Q 17.9525 82.776266 18.049453 82.776266 
Q 18.147734 82.776266 18.147734 83.021969 
L 18.147734 90.051734 
Q 18.147734 90.221734 18.242031 90.357203 
L 17.842266 90.579 
Q 17.8675 90.374469 17.8675 90.154 
L 17.8675 87.204234 
L 15.589766 87.204234 
L 15.589766 88.853766 
Q 15.589766 89.023766 15.682734 89.159234 
L 15.282969 89.379703 
Q 15.309531 89.1765 15.309531 88.954703 
L 15.309531 87.204234 
L 13.327969 87.204234 
L 13.327969 88.513766 
Q 14.247031 89.023766 14.965547 89.79275 
Q 15.682734 90.561734 15.682734 90.671969 
Q 15.682734 90.689234 15.665469 90.689234 
Q 15.622969 90.689234 15.504766 90.604234 
Q 14.662734 90.017203 13.791484 89.715719 
Q 12.920234 89.414234 11.4075 89.1765 
Q 11.467266 88.7515 11.586797 88.293297 
Q 11.705 87.833766 11.751484 87.762047 
Q 11.797969 87.689 11.857734 87.689 
Q 11.942734 87.689 11.98125 87.799234 
Q 12.019766 87.909469 12.104766 87.969234 
Q 12.189766 88.029 13.047734 88.369 
z
M 12.444766 79.026969 
L 12.444766 81.262203 
Q 12.444766 81.432203 12.537734 81.569 
L 12.137969 81.789469 
Q 12.164531 81.586266 12.164531 81.364469 
L 12.164531 78.951266 
Q 11.4925 78.789234 10.617266 78.764 
Q 10.650469 78.3815 10.752734 77.875484 
Q 10.855 77.369469 10.906797 77.293766 
Q 10.957266 77.216734 11.007734 77.216734 
Q 11.11 77.216734 11.160469 77.404 
Q 11.169766 77.454469 11.276016 77.523531 
Q 11.382266 77.591266 11.59875 77.633766 
Q 11.815234 77.676266 12.164531 77.7865 
L 12.164531 75.941734 
Q 11.967969 75.8315 11.734219 75.68275 
Q 11.500469 75.534 11.446016 75.487516 
Q 11.390234 75.439703 11.390234 75.397203 
Q 11.390234 75.354703 11.509766 75.190016 
Q 11.627969 75.024 11.888281 74.739781 
Q 12.147266 74.454234 12.232266 74.382516 
Q 12.317266 74.309469 12.359766 74.309469 
Q 12.444766 74.309469 12.444766 74.496734 
L 12.444766 77.336266 
Q 13.15 77.0215 13.63875 76.180797 
Q 14.1275 75.338766 14.305469 74.156734 
Q 14.332031 73.994703 14.3825 73.994703 
Q 14.432969 73.994703 14.492734 74.139469 
Q 14.730469 74.743766 15.394531 74.9815 
Q 15.512734 75.024 15.512734 75.168766 
Q 15.512734 75.312203 15.105 75.955016 
Q 14.697266 76.5965 14.051797 77.025484 
Q 13.405 77.454469 12.444766 77.633766 
L 12.444766 77.879469 
Q 12.972031 78.074703 13.575 78.491734 
Q 13.642734 77.939234 13.855234 77.672281 
Q 14.067734 77.404 14.328047 77.404 
Q 14.587031 77.404 14.795547 77.574 
Q 15.002734 77.744 15.002734 78.0415 
Q 15.002734 78.389469 14.608281 78.437281 
Q 14.2125 78.483766 14.077031 78.534234 
Q 13.940234 78.584703 13.837969 78.712203 
Q 14.357266 79.179703 14.735781 79.817203 
Q 15.112969 80.454703 15.377266 81.198453 
Q 15.640234 81.942203 15.640234 82.096266 
Q 15.640234 82.129469 15.622969 82.129469 
Q 15.580469 82.129469 15.470234 81.899703 
Q 14.884531 80.684469 14.158047 80.000484 
Q 13.430234 79.3165 12.444766 79.026969 
z
M 15.012031 78.814469 
Q 15.012031 78.704234 15.164766 78.203531 
Q 15.3175 77.7015 15.560547 77.459781 
Q 15.802266 77.216734 16.0825 77.216734 
Q 16.362734 77.216734 16.57125 77.404 
Q 16.779766 77.591266 16.779766 77.803766 
Q 16.779766 78.329703 16.27375 78.346969 
Q 15.767734 78.364234 15.59375 78.449234 
Q 15.419766 78.534234 15.19 78.771969 
Q 15.087734 78.874234 15.050547 78.874234 
Q 15.012031 78.874234 15.012031 78.814469 
z
M 15.792969 78.993766 
L 17.067969 78.993766 
Q 17.289766 78.993766 17.3575 78.852984 
Q 17.425234 78.712203 17.425234 78.138453 
Q 17.425234 77.564703 17.349531 77.369469 
Q 17.2725 77.174234 17.013516 77.04275 
Q 16.754531 76.911266 16.257813 76.805016 
Q 15.759766 76.698766 15.759766 76.646969 
Q 15.759766 76.629703 15.87 76.629703 
Q 15.980234 76.629703 16.138281 76.646969 
Q 16.295 76.664234 16.430469 76.664234 
Q 17.137031 76.664234 17.3575 76.136969 
Q 17.450469 75.924469 17.672266 75.924469 
Q 17.987031 75.924469 18.224766 76.32025 
Q 18.4625 76.714703 18.4625 78.304469 
Q 18.4625 79.104 18.360234 79.42275 
Q 18.257969 79.7415 18.006953 79.894234 
Q 17.757266 80.046969 17.365469 80.046969 
L 16.04 80.046969 
Q 15.717266 80.046969 15.292266 80.072203 
Q 15.352031 79.4015 15.411797 79.092047 
Q 15.470234 78.781266 15.5725 78.781266 
Q 15.674766 78.781266 15.792969 78.993766 
z
M 16.949766 80.4215 
Q 17.365469 80.4215 17.658984 80.664547 
Q 17.9525 80.906266 17.9525 81.190484 
Q 17.9525 81.474703 17.773203 81.644703 
Q 17.595234 81.814703 17.4 81.814703 
Q 17.137031 81.814703 16.916563 81.517203 
Q 16.694766 81.219703 16.520781 81.118766 
Q 16.345469 81.0165 16.159531 81.0165 
Q 15.972266 81.0165 15.84875 81.033766 
Q 15.725234 81.049703 15.6575 81.049703 
Q 15.589766 81.049703 15.589766 81.007203 
Q 15.589766 80.922203 16.049297 80.672516 
Q 16.5075 80.4215 16.949766 80.4215 
z
M 15.597734 76.358766 
Q 15.597734 76.247203 15.767734 75.814234 
Q 15.937734 75.381266 16.163516 75.054547 
Q 16.387969 74.7265 16.669531 74.531266 
Q 16.949766 74.334703 17.277813 74.334703 
Q 17.604531 74.334703 17.825 74.53525 
Q 18.045469 74.734469 18.045469 75.010719 
Q 18.045469 75.286969 17.883438 75.435719 
Q 17.722734 75.584469 17.4425 75.593766 
Q 16.737266 75.609703 16.418516 75.76775 
Q 16.099766 75.924469 15.785 76.306969 
Q 15.692031 76.4265 15.645547 76.4265 
Q 15.597734 76.4265 15.597734 76.358766 
z
M 11.7475 71.7515 
Q 11.517734 69.489703 10.659766 67.773766 
Q 10.889531 67.484234 11.212266 67.144234 
Q 11.535 66.804234 11.590781 66.761734 
Q 11.645234 66.719234 11.705 66.719234 
Q 11.764766 66.719234 11.764766 66.829469 
Q 11.764766 66.881266 11.7475 66.931734 
Q 11.687734 67.1615 11.687734 67.466969 
L 11.764766 68.589234 
Q 11.815234 68.512203 11.875 68.512203 
Q 11.985234 68.512203 12.070234 68.784469 
L 12.902969 68.784469 
L 12.902969 67.492203 
Q 12.4275 67.221266 12.309297 67.132281 
Q 12.189766 67.041969 12.189766 66.9915 
Q 12.189766 66.939703 12.309297 66.769703 
Q 12.4275 66.599703 12.665234 66.315484 
Q 12.902969 66.031266 12.98 65.963531 
Q 13.057031 65.894469 13.099531 65.894469 
Q 13.184531 65.894469 13.184531 66.064469 
L 13.184531 68.784469 
L 14.204531 68.784469 
L 14.204531 68.061969 
Q 13.9575 67.884 13.860547 67.795016 
Q 13.762266 67.704703 13.762266 67.646266 
Q 13.762266 67.544 14.077031 67.09775 
Q 14.390469 66.6515 14.502031 66.6515 
Q 14.612266 66.6515 14.7225 66.949 
L 16.047969 66.949 
Q 16.447734 66.949 16.600469 66.939703 
L 16.89 66.931734 
Q 17.094531 66.931734 17.212734 67.577203 
Q 17.562031 66.404469 18.190234 66.404469 
Q 18.335 66.404469 18.48375 66.473531 
Q 18.6325 66.541266 18.686953 66.71525 
Q 18.742734 66.889234 18.742734 67.016734 
Q 18.742734 67.348766 18.360234 67.52275 
Q 17.977734 67.696734 17.63375 68.0965 
Q 17.289766 68.496266 17.085234 69.022203 
Q 17.577969 69.294469 17.947188 70.016969 
Q 18.317734 70.739469 18.48375 71.461969 
Q 18.649766 72.184469 18.649766 72.3465 
Q 18.649766 72.406266 18.623203 72.406266 
Q 18.597969 72.406266 18.564766 72.294703 
Q 18.352266 71.614703 18.105234 71.13525 
Q 17.859531 70.654469 17.575313 70.356969 
Q 17.289766 70.059469 17.030781 69.953219 
Q 16.770469 69.846969 16.239219 69.7965 
Q 15.707969 69.744703 14.645469 69.754 
Q 14.662734 69.439234 14.718516 69.048766 
Q 14.772969 68.656969 14.82875 68.534781 
Q 14.884531 68.411266 14.944297 68.411266 
Q 15.002734 68.411266 15.0625 68.546734 
Q 15.112969 68.666266 15.342734 68.682203 
Q 16.609766 68.793766 17.000234 68.979703 
Q 17.025469 68.479 17.110469 67.994234 
L 14.484766 67.994234 
L 14.484766 70.424703 
Q 14.5525 70.451266 14.602969 70.552203 
L 17.1025 70.552203 
Q 17.179531 70.552203 17.214063 70.58275 
Q 17.247266 70.611969 17.299063 70.766031 
Q 17.349531 70.918766 17.4 71.208297 
Q 17.450469 71.4965 17.450469 71.552281 
Q 17.450469 71.606734 17.382734 71.606734 
L 16.982969 71.589469 
Q 16.567266 71.572203 16.227266 71.572203 
L 14.705234 71.572203 
Q 14.187266 71.572203 13.822031 71.589469 
Q 13.974766 70.9015 14.204531 70.467203 
L 14.204531 69.761969 
L 13.184531 69.761969 
L 13.184531 71.844469 
Q 14.152734 71.879 14.948281 71.9215 
Q 15.7425 71.964 16.283047 72.126031 
Q 16.822266 72.286734 17.320313 72.562984 
Q 17.817031 72.839234 18.178281 73.171266 
Q 18.539531 73.501969 18.615234 73.6215 
Q 18.692266 73.739703 18.692266 73.760953 
Q 18.692266 73.782203 18.671016 73.782203 
Q 18.649766 73.782203 18.572734 73.723766 
Q 17.969766 73.2815 17.477031 73.115484 
Q 16.982969 72.949469 16.132969 72.87775 
Q 15.282969 72.804703 13.897734 72.804703 
Q 12.5125 72.804703 11.347734 72.839234 
Q 11.535 72.209703 11.7475 71.7515 
z
M 11.840469 69.761969 
Q 11.9175 71.011734 11.9175 71.716969 
Q 11.985234 71.801969 12.207031 71.811266 
L 12.902969 71.8365 
L 12.902969 69.761969 
L 11.840469 69.761969 
z
M 11.059531 62.936734 
L 11.059531 59.809 
Q 10.829766 59.664234 10.715547 59.567281 
Q 10.6 59.469 10.6 59.401266 
Q 10.6 59.289703 10.914766 58.839469 
Q 11.229531 58.389234 11.339766 58.389234 
Q 11.45 58.389234 11.585469 58.704 
L 12.164531 58.704 
L 12.945469 58.686734 
Q 13.072969 58.686734 13.15 58.759781 
Q 13.227031 58.8315 13.29875 59.047984 
Q 13.370469 59.264469 13.370469 59.561969 
Q 13.370469 59.724 13.184531 59.731969 
L 13.184531 62.954 
Q 13.252266 62.954 13.346563 63.179781 
Q 13.439531 63.404234 13.439531 63.804 
Q 13.439531 63.922203 13.345234 63.922203 
L 12.962734 63.906266 
Q 12.707734 63.889 12.495234 63.889 
L 11.475234 63.889 
Q 11.102031 63.889 10.735469 63.914234 
Q 10.889531 63.344469 11.059531 62.936734 
z
M 11.942734 59.731969 
L 11.339766 59.731969 
L 11.339766 62.784 
Q 11.432734 62.817203 11.4925 62.944703 
L 11.942734 62.944703 
L 11.942734 59.731969 
z
M 12.902969 59.731969 
L 12.222969 59.731969 
L 12.222969 62.944703 
L 12.902969 62.944703 
L 12.902969 59.731969 
z
M 13.837969 59.281734 
L 13.837969 64.729703 
Q 13.837969 64.899703 13.932266 65.0365 
L 13.5325 65.256969 
Q 13.557734 65.053766 13.557734 64.831969 
L 13.557734 58.796969 
Q 13.337266 58.678766 13.142031 58.55525 
Q 12.945469 58.431734 12.895 58.389234 
Q 12.844531 58.346734 12.844531 58.279 
Q 12.844531 58.211266 13.065 57.946969 
L 13.455469 57.462203 
Q 13.634766 57.259 13.737031 57.259 
Q 13.837969 57.259 13.837969 57.504703 
L 13.837969 58.959 
Q 14.332031 58.184703 14.4675 58.184703 
Q 14.602969 58.184703 14.697266 58.456969 
L 15.547266 58.456969 
Q 15.792969 58.456969 15.980234 58.445016 
Q 16.1675 58.431734 16.21 58.431734 
Q 16.2525 58.431734 16.298984 58.474234 
Q 16.345469 58.516734 16.457031 58.789 
Q 17.034766 58.0665 17.195469 58.0665 
Q 17.280469 58.0665 17.280469 58.253766 
L 17.280469 60.854234 
L 17.944531 60.854234 
L 17.944531 58.806266 
Q 17.587266 58.593766 17.473047 58.4915 
Q 17.3575 58.389234 17.3575 58.329469 
Q 17.3575 58.269703 17.544766 57.989469 
Q 17.732031 57.709234 17.88875 57.521969 
Q 18.045469 57.334703 18.134453 57.334703 
Q 18.224766 57.334703 18.224766 57.539234 
L 18.224766 64.432203 
Q 18.224766 64.602203 18.317734 64.739 
L 17.917969 64.959469 
Q 17.944531 64.756266 17.944531 64.534469 
L 17.944531 61.8065 
L 17.280469 61.8065 
L 17.280469 63.794703 
Q 17.280469 63.964703 17.374766 64.1015 
L 16.975 64.321969 
Q 17.000234 64.118766 17.000234 63.896969 
L 17.000234 61.8065 
L 16.4225 61.8065 
L 16.4225 63.191734 
Q 16.524766 63.191734 16.576563 63.238219 
Q 16.627031 63.284703 16.682813 63.5065 
Q 16.737266 63.726969 16.737266 64.024469 
Q 16.737266 64.151969 16.57125 64.140016 
Q 16.405234 64.126734 15.887266 64.126734 
L 14.654766 64.126734 
Q 14.2975 64.126734 13.932266 64.151969 
Q 14.0425 63.684469 14.204531 63.2515 
L 14.204531 59.502203 
Q 13.974766 59.384 13.837969 59.281734 
z
M 14.484766 61.8065 
L 14.484766 62.9965 
Q 14.629531 63.039 14.687969 63.191734 
L 15.182031 63.191734 
L 15.182031 61.8065 
L 14.484766 61.8065 
z
M 15.182031 59.469 
L 14.484766 59.469 
L 14.484766 60.692203 
Q 14.602969 60.734703 14.662734 60.854234 
L 15.182031 60.854234 
L 15.182031 59.469 
z
M 15.462266 61.8065 
L 15.462266 63.191734 
L 16.142266 63.191734 
L 16.142266 61.8065 
L 15.462266 61.8065 
z
M 16.142266 59.469 
L 15.462266 59.469 
L 15.462266 60.854234 
L 16.142266 60.854234 
L 16.142266 59.469 
z
M 16.515469 59.026734 
Q 16.532734 59.204703 16.532734 59.328219 
Q 16.532734 59.451734 16.4225 59.469 
L 16.4225 60.854234 
L 17.000234 60.854234 
L 17.000234 59.324234 
Q 16.787734 59.214 16.515469 59.026734 
z
M 13.167266 55.464703 
L 13.167266 56.306734 
Q 13.167266 56.511266 13.217734 56.671969 
L 12.8525 56.816734 
Q 12.887031 56.6215 12.887031 56.391734 
L 12.887031 55.464703 
L 11.697031 55.464703 
Q 11.177734 55.464703 10.777969 55.499234 
Q 10.8125 54.776734 10.864297 54.509781 
Q 10.914766 54.2415 11.021016 54.2415 
Q 11.127266 54.2415 11.229531 54.539 
L 12.887031 54.539 
L 12.887031 54.351734 
Q 12.274766 54.046266 12.274766 53.934703 
Q 12.274766 53.9015 12.377031 53.777984 
Q 12.477969 53.654469 12.920234 53.196266 
L 11.712969 53.196266 
Q 11.135234 53.196266 10.762031 53.2215 
Q 10.787266 52.421969 10.847031 52.205484 
Q 10.905469 51.989 10.995781 51.989 
Q 11.084766 51.989 11.160469 52.226734 
L 12.495234 52.226734 
Q 12.155234 51.538766 11.849766 51.11775 
Q 11.542969 50.696734 11.050234 50.204 
Q 11.8325 49.2265 11.96 49.2265 
Q 12.027734 49.2265 12.027734 49.448297 
Q 12.027734 49.668766 12.222969 50.4165 
L 12.665234 52.226734 
L 13.132734 52.226734 
Q 13.412969 52.226734 13.472734 52.074 
Q 13.5325 51.921266 13.5325 51.428531 
Q 13.5325 50.934469 13.499297 50.60775 
Q 13.464766 50.279703 13.418281 50.18275 
Q 13.370469 50.084469 13.248281 49.9915 
Q 13.124766 49.897203 12.91625 49.808219 
Q 12.707734 49.719234 12.466016 49.634234 
Q 12.222969 49.549234 12.222969 49.531969 
Q 12.222969 49.514703 12.562969 49.510719 
Q 12.902969 49.506734 13.099531 49.446969 
Q 13.294766 49.387203 13.414297 49.145484 
Q 13.5325 48.903766 13.652031 48.903766 
Q 13.7875 48.903766 14 49.124234 
Q 14.2125 49.344703 14.285547 49.786969 
Q 14.357266 50.229234 14.357266 51.24525 
Q 14.357266 52.261266 14.310781 52.566734 
Q 14.262969 52.872203 14.0425 53.034234 
Q 13.822031 53.196266 13.354531 53.196266 
L 13.167266 53.196266 
L 13.167266 54.539 
L 14.442266 54.539 
Q 14.152734 53.399469 14.152734 53.3065 
Q 14.152734 53.281266 14.162031 53.281266 
Q 14.187266 53.281266 14.2975 53.493766 
Q 14.407734 53.706266 14.900469 54.539 
L 17.477031 54.539 
Q 17.9525 54.539 18.168984 54.654547 
Q 18.385469 54.768766 18.478438 55.074234 
Q 18.572734 55.379703 18.572734 55.609469 
Q 18.572734 55.839234 18.394766 55.839234 
Q 18.114531 55.847203 17.948516 56.009234 
Q 17.7825 56.171266 17.701484 56.412984 
Q 17.620469 56.654703 17.604531 56.654703 
Q 17.587266 56.654703 17.587266 56.596266 
L 17.6125 56.119469 
Q 17.6125 55.779469 17.536797 55.62275 
Q 17.459766 55.464703 17.162266 55.464703 
L 15.452969 55.464703 
Q 15.852734 56.1115 15.947031 56.235016 
Q 16.04 56.357203 16.04 56.395719 
Q 16.04 56.434234 15.9975 56.4515 
L 15.674766 56.561734 
Q 15.4025 56.654703 14.927031 56.782203 
Q 14.832734 56.272203 14.654766 55.464703 
L 13.167266 55.464703 
z
M 15.054531 52.311734 
L 15.054531 50.824234 
Q 14.577734 50.636969 14.577734 50.530719 
Q 14.577734 50.424469 14.8075 50.026031 
Q 15.037266 49.626266 15.12625 49.498766 
Q 15.215234 49.371266 15.321484 49.371266 
Q 15.427734 49.371266 15.522031 49.659469 
L 17.4425 49.659469 
L 18.224766 49.642203 
Q 18.300469 49.642203 18.338984 49.67275 
Q 18.3775 49.701969 18.445234 49.850719 
Q 18.512969 49.999469 18.559453 50.238531 
Q 18.607266 50.476266 18.607266 50.582516 
Q 18.607266 50.688766 18.564766 50.706031 
Q 18.522266 50.721969 18.412031 50.721969 
L 17.995 50.721969 
L 17.995 52.362203 
L 18.317734 52.362203 
Q 18.394766 52.362203 18.449219 52.443219 
Q 18.505 52.524234 18.56875 52.852281 
Q 18.6325 53.179 18.6325 53.356969 
Q 18.6325 53.424703 18.564766 53.424703 
L 18.190234 53.408766 
Q 17.935234 53.3915 17.722734 53.3915 
L 15.4875 53.3915 
Q 15.112969 53.3915 14.747734 53.416734 
Q 14.935 52.558766 15.054531 52.311734 
z
M 16.362734 52.362203 
L 16.362734 50.721969 
L 15.334766 50.721969 
L 15.334766 52.209469 
Q 15.437031 52.234703 15.479531 52.362203 
L 16.362734 52.362203 
z
M 16.642969 50.721969 
L 16.642969 52.362203 
L 17.714766 52.362203 
L 17.714766 50.721969 
L 16.642969 50.721969 
z
M 12.317266 45.477203 
Q 11.882969 45.163766 11.092734 44.839703 
Q 11.220234 44.509 11.416797 44.186266 
Q 11.612031 43.862203 11.701016 43.862203 
Q 11.79 43.862203 11.807266 44.037516 
Q 11.824531 44.2115 11.93875 44.427984 
Q 12.052969 44.644469 12.614766 45.477203 
L 12.732969 45.477203 
L 12.732969 44.874234 
Q 12.197734 44.568766 12.197734 44.4665 
Q 12.197734 44.389469 12.49125 44.076031 
Q 12.784766 43.761266 12.900313 43.761266 
Q 13.014531 43.761266 13.014531 43.981734 
L 13.014531 45.477203 
L 13.217734 45.477203 
Q 13.327969 44.866266 13.55375 44.543531 
Q 13.779531 44.219469 14.017266 44.219469 
Q 14.255 44.219469 14.421016 44.368219 
Q 14.587031 44.516969 14.587031 44.682984 
Q 14.587031 44.849 14.502031 44.937984 
Q 14.417031 45.026969 14.195234 45.078766 
Q 13.727734 45.171734 13.412969 45.477203 
L 13.642734 45.477203 
Q 13.922969 45.477203 14.237734 45.461266 
L 14.527266 45.451969 
Q 14.595 45.451969 14.625547 45.490484 
Q 14.654766 45.529 14.765 45.758766 
Q 14.867266 45.536969 14.905781 45.511734 
Q 14.942969 45.4865 14.969531 45.4865 
Q 15.054531 45.4865 15.079766 45.614 
Q 15.105 45.716266 15.4025 45.902203 
L 15.4025 45.409469 
Q 15.122266 45.256734 15.037266 45.192984 
Q 14.952266 45.129234 14.952266 45.069469 
Q 14.952266 45.009703 15.249766 44.499703 
Q 13.6175 43.479703 10.710234 43.394703 
Q 10.777969 42.868766 10.868281 42.503531 
Q 10.957266 42.136969 10.999766 42.06525 
Q 11.042266 41.992203 11.102031 41.992203 
Q 11.177734 41.992203 11.225547 42.090484 
Q 11.272031 42.188766 11.399531 42.248531 
Q 11.527031 42.306969 11.9175 42.439781 
Q 12.307969 42.571266 12.8525 42.799703 
L 12.8525 41.686734 
Q 12.13 41.312203 12.13 41.197984 
Q 12.13 41.083766 12.373047 40.794234 
Q 12.614766 40.504703 12.755547 40.361266 
Q 12.895 40.2165 12.997266 40.2165 
Q 13.132734 40.2165 13.132734 40.377203 
L 13.132734 41.312203 
Q 13.227031 40.854 13.3625 40.854 
Q 13.439531 40.854 13.486016 40.952281 
Q 13.5325 41.049234 13.68125 41.105016 
Q 13.83 41.159469 14.322734 41.265719 
Q 14.815469 41.371969 15.474219 41.622984 
Q 16.132969 41.874 16.515469 42.129 
Q 17.094531 41.499469 17.510234 40.276266 
Q 17.544766 40.174 17.587266 40.174 
Q 17.629766 40.174 17.655 40.318766 
Q 17.680234 40.462203 17.935234 40.772984 
Q 18.190234 41.083766 18.427969 41.244469 
Q 18.505 41.296266 18.505 41.356031 
Q 18.505 41.414469 18.470469 41.47025 
Q 18.437266 41.524703 18.176953 41.814234 
Q 17.917969 42.103766 17.672266 42.329547 
Q 17.425234 42.554 17.1875 42.724 
Q 17.884766 43.437203 18.283203 44.279234 
Q 18.682969 45.121266 18.682969 45.264703 
Q 18.682969 45.307203 18.648438 45.307203 
Q 18.615234 45.307203 18.555469 45.206266 
Q 17.6975 43.666969 16.685469 43.038766 
Q 15.777031 43.514234 14.289531 43.556734 
Q 14.824766 43.896734 15.342734 44.364234 
Q 15.504766 44.058766 15.615 44.058766 
Q 15.725234 44.058766 15.773047 44.19025 
Q 15.819531 44.321734 15.866016 44.368219 
Q 15.9125 44.414703 16.206016 44.555484 
Q 16.499531 44.696266 16.822266 44.924703 
Q 16.872734 44.781266 17.000234 44.568766 
Q 17.127734 44.356266 17.29375 44.288531 
Q 17.459766 44.219469 17.617813 44.219469 
Q 17.774531 44.219469 17.923281 44.377516 
Q 18.072031 44.534234 18.072031 44.717516 
Q 18.072031 44.899469 17.842266 45.129234 
Q 17.6125 45.359 17.467734 45.536969 
Q 17.9525 46.141266 18.253984 47.076266 
Q 18.555469 48.011266 18.555469 48.164 
Q 18.555469 48.223766 18.52625 48.223766 
Q 18.497031 48.223766 18.4625 48.129469 
Q 17.960469 46.837203 17.1025 46.098766 
Q 16.855469 46.582203 16.635 47.5265 
Q 16.125 47.229 15.682734 47.007203 
L 15.682734 47.569 
Q 15.682734 47.739 15.777031 47.874469 
L 15.377266 48.104234 
Q 15.4025 47.899703 15.4025 47.679234 
L 15.4025 46.871734 
Q 15.1475 46.744234 14.517969 46.481266 
L 14.544531 46.386969 
L 13.685234 46.386969 
Q 14.305469 46.811969 14.757031 47.445484 
Q 15.207266 48.079 15.207266 48.189234 
Q 15.207266 48.2065 15.19 48.2065 
Q 15.155469 48.2065 15.045234 48.096266 
Q 14.2975 47.296734 13.014531 46.8465 
L 13.014531 47.569 
Q 13.014531 47.789469 13.057031 47.934234 
L 12.690469 48.079 
Q 12.732969 47.899703 12.732969 47.654 
L 12.732969 46.386969 
L 11.457969 46.386969 
Q 11.032969 46.386969 10.702266 46.404234 
Q 10.744766 45.944703 10.796563 45.67775 
Q 10.847031 45.409469 10.885547 45.359 
Q 10.922734 45.307203 10.986484 45.307203 
Q 11.050234 45.307203 11.117969 45.477203 
L 12.317266 45.477203 
z
M 13.132734 42.129 
L 13.132734 42.927203 
Q 13.472734 43.071969 13.922969 43.336266 
Q 15.105 43.182203 15.895234 42.656266 
Q 14.8075 42.214 13.132734 42.129 
z
M 15.682734 46.064234 
L 16.465 46.514469 
Q 16.499531 46.114703 16.584531 45.724234 
Q 16.150234 45.477203 15.682734 45.366969 
L 15.682734 46.064234 
z
M 11.314531 47.824 
Q 11.314531 47.314 11.527031 46.927516 
Q 11.739531 46.539703 11.994531 46.539703 
Q 12.249531 46.539703 12.40625 46.663219 
Q 12.562969 46.786734 12.562969 46.974 
Q 12.562969 47.161266 12.483281 47.246266 
Q 12.402266 47.331266 12.207031 47.347203 
Q 11.697031 47.399 11.399531 47.831969 
Q 11.357031 47.891734 11.335781 47.891734 
Q 11.314531 47.891734 11.314531 47.824 
z
"/>
   </g>
  </g>
  <g id="text_10">
   <!-- 字 -->
   <g style="opacity: 0.001" transform="translate(20.714388 161.80957) scale(0.01 -0.01)">
    <defs>
     <path id="STSongti-SC-Black-73c" d="M 3622 1485 
L 3622 -32 
Q 3622 -314 3507 -461 
Q 3392 -608 3104 -685 
Q 2816 -762 2733 -762 
Q 2650 -762 2608 -723 
Q 2566 -685 2560 -627 
Q 2541 -358 2374 -243 
Q 2208 -128 1843 -38 
Q 1741 -13 1741 12 
Q 1741 38 1830 38 
L 2278 26 
Q 2624 26 2720 86 
Q 2816 147 2816 333 
L 2816 1485 
L 691 1485 
Q 563 1485 461 1414 
L 294 1715 
Q 448 1696 614 1696 
L 2816 1696 
L 2816 1914 
Q 2816 2138 2803 2483 
Q 3130 2426 3456 2336 
Q 3526 2477 3638 2659 
Q 3750 2842 3827 2995 
L 1882 2995 
Q 1754 2995 1651 2925 
L 1485 3226 
Q 1638 3206 1805 3206 
L 3827 3206 
Q 3955 3424 3990 3491 
Q 4026 3558 4070 3558 
Q 4141 3558 4666 3258 
Q 4819 3629 4909 3949 
L 1472 3949 
Q 1510 3584 1315 3360 
Q 1120 3136 851 3136 
Q 678 3136 553 3235 
Q 429 3334 429 3468 
Q 429 3603 489 3708 
Q 550 3814 646 3878 
Q 915 4045 995 4150 
Q 1075 4256 1075 4422 
L 1056 4666 
Q 1056 4710 1075 4710 
Q 1107 4710 1232 4540 
Q 1357 4371 1427 4160 
L 2963 4160 
Q 2912 4192 2870 4243 
Q 2829 4294 2809 4352 
Q 2790 4410 2790 4461 
L 2790 4557 
Q 2790 4941 2426 5133 
Q 2310 5197 2310 5216 
Q 2310 5235 2464 5235 
Q 3059 5235 3404 5078 
Q 3750 4922 3750 4614 
Q 3750 4474 3664 4352 
Q 3578 4230 3424 4160 
L 4806 4160 
Q 5024 4506 5059 4541 
Q 5094 4576 5133 4576 
Q 5210 4576 5629 4233 
Q 6048 3891 6048 3747 
Q 6048 3603 5856 3622 
Q 5747 3635 5651 3635 
Q 5094 3635 4742 3213 
Q 4941 3104 5037 3030 
Q 5133 2957 5133 2906 
Q 5133 2797 4909 2797 
Q 4518 2797 4265 2672 
Q 4013 2547 3648 2285 
Q 3757 2246 3757 2185 
Q 3757 2125 3622 2042 
L 3622 1696 
L 4934 1696 
Q 5120 2022 5181 2147 
Q 5242 2272 5306 2272 
Q 5370 2272 5629 2073 
Q 5888 1875 6041 1744 
Q 6195 1613 6195 1549 
Q 6195 1485 6067 1485 
L 3622 1485 
z
" transform="scale(0.015625)"/>
    </defs>
    <use xlink:href="#STSongti-SC-Black-73c"/>
   </g>
  </g>
 </g>
 <defs>
  <clipPath id="pca929a0fc1">
   <rect x="53.142734" y="7.604845" width="212.031496" height="115.653543"/>
  </clipPath>
 </defs>
</svg>
